{"glyphs":{"0":{"ha":864,"x_min":90,"x_max":774,"o":"m 432 -14 q 178 107 265 -14 q 90 458 90 228 q 178 810 90 689 q 432 931 265 931 q 686 810 599 931 q 774 458 774 689 q 686 107 774 228 q 432 -14 599 -14 m 432 86 q 600 181 542 86 q 658 458 658 276 q 600 735 658 640 q 432 831 542 831 q 264 735 322 831 q 206 458 206 640 q 264 181 206 276 q 432 86 322 86 z "},"1":{"ha":568,"x_min":51,"x_max":426,"o":"m 426 917 l 426 0 l 315 0 l 315 672 q 318 779 315 701 q 208 699 271 733 q 81 650 146 665 l 51 751 q 142 783 85 756 q 251 847 199 810 q 329 917 304 883 l 426 917 z "},"2":{"ha":810,"x_min":74,"x_max":719,"o":"m 103 90 q 394 322 293 231 q 540 487 496 413 q 583 643 583 561 q 531 776 583 725 q 389 826 478 826 q 238 765 296 826 q 171 600 181 704 l 74 658 q 174 856 92 782 q 393 931 257 931 q 555 894 485 931 q 663 793 625 858 q 700 643 700 728 q 658 472 700 554 q 519 300 615 390 q 261 101 424 210 l 261 100 q 399 104 353 104 l 719 104 l 719 0 l 103 0 l 103 90 z "},"3":{"ha":810,"x_min":72,"x_max":711,"o":"m 404 931 q 559 898 494 931 q 657 811 624 865 q 690 692 690 757 q 667 576 690 628 q 603 495 643 525 q 518 465 564 465 l 518 463 q 658 399 606 463 q 711 246 711 336 q 672 113 711 172 q 558 19 632 53 q 389 -14 485 -14 q 72 206 160 -14 l 175 260 q 252 133 203 175 q 397 90 301 90 q 543 137 490 90 q 596 257 596 183 q 545 376 596 342 q 385 410 494 410 l 349 410 l 349 514 l 385 514 q 575 669 575 514 q 531 787 575 747 q 406 826 488 826 q 277 790 325 826 q 211 686 229 753 l 107 735 q 220 878 140 825 q 404 931 300 931 z "},"4":{"ha":849,"x_min":61,"x_max":782,"o":"m 782 240 l 619 240 l 619 0 l 508 0 l 508 240 l 61 240 l 61 322 l 479 917 l 619 917 l 619 336 l 782 336 l 782 240 m 179 336 l 508 336 l 508 679 l 514 826 l 511 826 q 419 674 476 756 l 179 336 z "},"5":{"ha":808,"x_min":88,"x_max":721,"o":"m 432 588 q 642 506 563 588 q 721 292 721 425 q 638 67 721 149 q 407 -14 554 -14 q 206 40 283 -14 q 88 196 129 93 l 196 253 q 266 131 219 172 q 403 90 313 90 q 551 142 497 90 q 606 283 606 193 q 556 432 606 381 q 411 483 506 483 q 207 394 268 483 l 108 394 l 164 917 l 679 917 l 679 813 l 258 813 l 222 524 l 221 511 l 222 511 q 432 588 296 588 z "},"6":{"ha":858,"x_min":99,"x_max":768,"o":"m 457 931 q 636 885 567 931 q 749 738 706 839 l 646 689 q 450 826 601 826 q 322 775 378 826 q 234 635 265 724 q 203 438 203 546 l 203 413 l 208 413 q 303 538 229 494 q 460 581 376 581 q 684 500 600 581 q 768 283 768 419 q 683 67 768 147 q 453 -14 597 -14 q 260 47 340 -14 q 140 213 181 107 q 99 458 99 319 q 145 715 99 608 q 273 876 192 821 q 457 931 354 931 m 451 474 q 307 421 363 474 q 251 285 251 368 q 306 146 251 199 q 451 93 361 93 q 599 144 546 93 q 651 285 651 194 q 599 423 651 372 q 451 474 546 474 z "},"7":{"ha":779,"x_min":56,"x_max":731,"o":"m 731 917 l 731 813 q 481 435 560 633 q 403 0 403 236 l 289 0 q 370 433 289 225 q 610 813 451 640 l 56 813 l 56 917 l 731 917 z "},"8":{"ha":856,"x_min":94,"x_max":761,"o":"m 428 929 q 640 865 561 929 q 719 689 719 800 q 685 565 719 618 q 590 483 651 511 l 590 482 q 716 392 671 451 q 761 247 761 332 q 720 109 761 168 q 603 18 679 50 q 428 -14 528 -14 q 253 18 328 -14 q 136 109 178 50 q 94 247 94 168 q 140 392 94 331 q 267 482 185 453 l 267 483 q 171 564 206 510 q 136 689 136 618 q 215 865 136 800 q 428 929 294 929 m 428 825 q 299 786 346 825 q 251 678 251 747 q 300 572 251 611 q 428 532 349 532 q 556 572 507 532 q 604 678 604 611 q 557 786 604 747 q 428 825 510 825 m 428 90 q 588 135 529 90 q 646 258 646 181 q 587 383 646 338 q 428 428 528 428 q 269 382 329 428 q 210 258 210 336 q 269 135 210 181 q 428 90 328 90 z "},"9":{"ha":865,"x_min":96,"x_max":767,"o":"m 413 931 q 605 871 525 931 q 726 705 685 811 q 767 458 767 599 q 676 107 767 228 q 414 -14 586 -14 q 213 38 290 -14 q 96 193 136 89 l 206 251 q 274 130 231 169 q 413 90 318 90 q 608 194 550 90 q 665 496 665 299 l 665 508 l 660 508 q 567 376 640 417 q 404 336 494 336 q 181 417 265 336 q 97 633 97 497 q 183 850 97 769 q 413 931 268 931 m 414 824 q 267 773 319 824 q 214 632 214 722 q 267 494 214 544 q 414 443 319 443 q 558 496 503 443 q 614 632 614 549 q 559 771 614 718 q 414 824 504 824 z "}," ":{"ha":474,"x_min":0,"x_max":0,"o":""},"A":{"ha":917,"x_min":36,"x_max":881,"o":"m 665 254 l 250 254 l 153 0 l 36 0 l 393 917 l 525 917 l 881 0 l 763 0 l 665 254 m 625 358 l 501 683 l 458 811 l 456 811 l 415 688 l 290 358 l 625 358 z "},"Á":{"ha":917,"x_min":36,"x_max":881,"o":"m 490 1032 l 400 1032 l 479 1238 l 610 1238 l 490 1032 m 665 254 l 250 254 l 153 0 l 36 0 l 393 917 l 525 917 l 881 0 l 763 0 l 665 254 m 625 358 l 501 683 l 458 811 l 456 811 l 415 688 l 290 358 l 625 358 z "},"Ă":{"ha":917,"x_min":36,"x_max":881,"o":"m 665 254 l 250 254 l 153 0 l 36 0 l 393 917 l 525 917 l 881 0 l 763 0 l 665 254 m 625 358 l 501 683 l 458 811 l 456 811 l 415 688 l 290 358 l 625 358 m 664 1229 q 607 1081 664 1138 q 458 1024 550 1024 q 310 1081 367 1024 q 253 1229 253 1138 l 344 1229 q 377 1143 344 1179 q 458 1107 410 1107 q 540 1143 507 1107 q 572 1229 572 1179 l 664 1229 z "},"Â":{"ha":917,"x_min":36,"x_max":881,"o":"m 339 1022 l 238 1022 l 396 1254 l 521 1254 l 679 1022 l 578 1022 l 458 1182 l 339 1022 m 665 254 l 250 254 l 153 0 l 36 0 l 393 917 l 525 917 l 881 0 l 763 0 l 665 254 m 625 358 l 501 683 l 458 811 l 456 811 l 415 688 l 290 358 l 625 358 z "},"Ä":{"ha":917,"x_min":36,"x_max":881,"o":"m 665 254 l 250 254 l 153 0 l 36 0 l 393 917 l 525 917 l 881 0 l 763 0 l 665 254 m 625 358 l 501 683 l 458 811 l 456 811 l 415 688 l 290 358 l 625 358 m 324 1189 q 381 1167 360 1189 q 403 1110 403 1146 q 381 1053 403 1075 q 324 1031 360 1031 q 267 1053 289 1031 q 244 1110 244 1075 q 267 1167 244 1146 q 324 1189 289 1189 m 593 1189 q 651 1167 629 1189 q 672 1110 672 1146 q 651 1053 672 1075 q 593 1031 629 1031 q 536 1053 558 1031 q 514 1110 514 1075 q 536 1167 514 1146 q 593 1189 558 1189 z "},"À":{"ha":917,"x_min":36,"x_max":881,"o":"m 414 1032 l 294 1238 l 425 1238 l 504 1032 l 414 1032 m 665 254 l 250 254 l 153 0 l 36 0 l 393 917 l 525 917 l 881 0 l 763 0 l 665 254 m 625 358 l 501 683 l 458 811 l 456 811 l 415 688 l 290 358 l 625 358 z "},"Ā":{"ha":917,"x_min":36,"x_max":881,"o":"m 665 254 l 250 254 l 153 0 l 36 0 l 393 917 l 525 917 l 881 0 l 763 0 l 665 254 m 625 358 l 501 683 l 458 811 l 456 811 l 415 688 l 290 358 l 625 358 m 700 1050 l 217 1050 l 217 1143 l 700 1143 l 700 1050 z "},"Ą":{"ha":917,"x_min":36,"x_max":897,"o":"m 897 -272 q 847 -292 878 -285 q 783 -299 815 -299 q 663 -260 707 -299 q 618 -154 618 -222 q 754 19 618 -39 l 665 254 l 250 254 l 153 0 l 36 0 l 393 917 l 525 917 l 881 0 q 745 -67 782 -32 q 708 -147 708 -103 q 732 -201 708 -182 q 797 -219 756 -219 q 875 -201 849 -219 l 897 -272 m 625 358 l 501 683 l 458 811 l 456 811 l 415 688 l 290 358 l 625 358 z "},"Å":{"ha":917,"x_min":36,"x_max":881,"o":"m 665 254 l 250 254 l 153 0 l 36 0 l 375 871 q 308 929 332 890 q 285 1019 285 968 q 333 1138 285 1093 q 460 1183 382 1183 q 585 1138 538 1183 q 633 1019 633 1093 q 610 929 633 968 q 543 871 586 890 l 881 0 l 763 0 l 665 254 m 458 1115 q 388 1088 415 1115 q 360 1019 360 1061 q 388 951 360 978 q 458 924 415 924 q 529 951 501 924 q 557 1019 557 978 q 529 1088 557 1061 q 458 1115 501 1115 m 625 358 l 501 683 l 458 811 l 456 811 l 415 688 l 290 358 l 625 358 z "},"Ã":{"ha":917,"x_min":36,"x_max":881,"o":"m 665 254 l 250 254 l 153 0 l 36 0 l 393 917 l 525 917 l 881 0 l 763 0 l 665 254 m 625 358 l 501 683 l 458 811 l 456 811 l 415 688 l 290 358 l 625 358 m 708 1218 q 553 1032 693 1032 q 486 1047 513 1032 q 429 1089 460 1061 q 393 1117 407 1108 q 361 1126 379 1126 q 317 1103 332 1126 q 293 1031 301 1079 l 206 1031 q 251 1170 213 1124 q 363 1217 289 1217 q 428 1201 401 1217 q 486 1158 456 1186 q 522 1131 507 1140 q 551 1122 536 1122 q 597 1147 581 1122 q 621 1218 613 1171 l 708 1218 z "},"Æ":{"ha":1325,"x_min":8,"x_max":1253,"o":"m 1253 104 l 1253 0 l 626 0 l 626 296 l 299 296 l 128 0 l 8 0 l 544 917 l 1232 917 l 1232 813 l 738 813 l 738 517 l 1114 517 l 1114 413 l 738 413 l 738 104 l 1253 104 m 626 400 l 626 813 l 599 813 l 360 400 l 626 400 z "},"B":{"ha":907,"x_min":150,"x_max":813,"o":"m 150 917 l 476 917 q 712 851 635 917 q 789 664 789 785 q 748 536 789 592 q 635 467 707 481 l 635 465 q 764 392 715 450 q 813 257 813 333 q 724 69 813 139 q 475 0 635 0 l 150 0 l 150 917 m 478 514 q 624 551 576 514 q 672 664 672 588 q 478 813 672 813 l 261 813 l 261 514 l 478 514 m 501 104 q 647 144 599 104 q 696 257 696 183 q 647 370 696 331 q 501 410 599 410 l 261 410 l 261 104 l 501 104 z "},"C":{"ha":953,"x_min":94,"x_max":889,"o":"m 889 235 q 747 52 846 118 q 519 -14 649 -14 q 294 44 390 -14 q 147 208 199 101 q 94 458 94 314 q 147 708 94 601 q 294 873 199 815 q 517 931 390 931 q 738 876 649 931 q 872 717 828 822 l 763 665 q 674 786 732 746 q 525 826 615 826 q 360 783 431 826 q 250 656 289 739 q 211 458 211 572 q 294 188 211 286 q 519 90 376 90 q 681 138 613 90 q 778 276 749 185 l 889 235 z "},"Ć":{"ha":953,"x_min":94,"x_max":889,"o":"m 668 1238 l 549 1032 l 458 1032 l 538 1238 l 668 1238 m 889 235 q 747 52 846 118 q 519 -14 649 -14 q 294 44 390 -14 q 147 208 199 101 q 94 458 94 314 q 147 708 94 601 q 294 873 199 815 q 517 931 390 931 q 738 876 649 931 q 872 717 828 822 l 763 665 q 674 786 732 746 q 525 826 615 826 q 360 783 431 826 q 250 656 289 739 q 211 458 211 572 q 294 188 211 286 q 519 90 376 90 q 681 138 613 90 q 778 276 749 185 l 889 235 z "},"Č":{"ha":953,"x_min":94,"x_max":889,"o":"m 579 1025 l 454 1025 l 296 1257 l 397 1257 l 517 1097 l 636 1257 l 738 1257 l 579 1025 m 889 235 q 747 52 846 118 q 519 -14 649 -14 q 294 44 390 -14 q 147 208 199 101 q 94 458 94 314 q 147 708 94 601 q 294 873 199 815 q 517 931 390 931 q 738 876 649 931 q 872 717 828 822 l 763 665 q 674 786 732 746 q 525 826 615 826 q 360 783 431 826 q 250 656 289 739 q 211 458 211 572 q 294 188 211 286 q 519 90 376 90 q 681 138 613 90 q 778 276 749 185 l 889 235 z "},"Ç":{"ha":953,"x_min":94,"x_max":889,"o":"m 889 235 q 775 72 851 135 q 596 -7 699 10 q 653 -74 633 -36 q 674 -150 674 -111 q 630 -255 674 -211 q 513 -299 586 -299 q 360 -250 414 -299 l 401 -174 q 444 -203 419 -192 q 497 -215 469 -215 q 553 -193 531 -215 q 576 -135 576 -171 q 554 -67 576 -94 q 474 -12 532 -40 q 272 58 357 -3 q 140 221 186 118 q 94 458 94 324 q 147 708 94 601 q 294 873 199 815 q 517 931 390 931 q 738 876 649 931 q 872 717 828 822 l 763 665 q 674 786 732 746 q 525 826 615 826 q 360 783 431 826 q 250 656 289 739 q 211 458 211 572 q 294 188 211 286 q 519 90 376 90 q 681 138 613 90 q 778 276 749 185 l 889 235 z "},"D":{"ha":1001,"x_min":150,"x_max":907,"o":"m 446 917 q 785 797 663 917 q 907 458 907 678 q 785 119 907 239 q 446 0 663 0 l 150 0 l 150 917 l 446 917 m 457 104 q 702 198 614 104 q 790 458 790 292 q 702 719 790 625 q 457 813 614 813 l 261 813 l 261 104 l 457 104 z "},"Ð":{"ha":1024,"x_min":36,"x_max":929,"o":"m 468 917 q 807 797 685 917 q 929 458 929 678 q 807 119 929 239 q 468 0 685 0 l 172 0 l 172 421 l 36 421 l 36 504 l 172 504 l 172 917 l 468 917 m 479 104 q 724 198 636 104 q 813 458 813 292 q 724 719 813 625 q 479 813 636 813 l 283 813 l 283 504 l 557 504 l 557 421 l 283 421 l 283 104 l 479 104 z "},"Ď":{"ha":1001,"x_min":150,"x_max":907,"o":"m 389 1025 l 231 1257 l 332 1257 l 451 1097 l 571 1257 l 672 1257 l 514 1025 l 389 1025 m 446 917 q 785 797 663 917 q 907 458 907 678 q 785 119 907 239 q 446 0 663 0 l 150 0 l 150 917 l 446 917 m 457 104 q 702 198 614 104 q 790 458 790 292 q 702 719 790 625 q 457 813 614 813 l 261 813 l 261 104 l 457 104 z "},"Đ":{"ha":1024,"x_min":36,"x_max":929,"o":"m 468 917 q 807 797 685 917 q 929 458 929 678 q 807 119 929 239 q 468 0 685 0 l 172 0 l 172 421 l 36 421 l 36 504 l 172 504 l 172 917 l 468 917 m 479 104 q 724 198 636 104 q 813 458 813 292 q 724 719 813 625 q 479 813 636 813 l 283 813 l 283 504 l 557 504 l 557 421 l 283 421 l 283 104 l 479 104 z "},"E":{"ha":886,"x_min":150,"x_max":814,"o":"m 814 104 l 814 0 l 150 0 l 150 917 l 793 917 l 793 813 l 261 813 l 261 517 l 675 517 l 675 413 l 261 413 l 261 104 l 814 104 z "},"É":{"ha":886,"x_min":150,"x_max":814,"o":"m 503 1032 l 413 1032 l 492 1238 l 622 1238 l 503 1032 m 814 104 l 814 0 l 150 0 l 150 917 l 793 917 l 793 813 l 261 813 l 261 517 l 675 517 l 675 413 l 261 413 l 261 104 l 814 104 z "},"Ě":{"ha":886,"x_min":150,"x_max":814,"o":"m 408 1025 l 250 1257 l 351 1257 l 471 1097 l 590 1257 l 692 1257 l 533 1025 l 408 1025 m 814 104 l 814 0 l 150 0 l 150 917 l 793 917 l 793 813 l 261 813 l 261 517 l 675 517 l 675 413 l 261 413 l 261 104 l 814 104 z "},"Ê":{"ha":886,"x_min":150,"x_max":814,"o":"m 351 1022 l 250 1022 l 408 1254 l 533 1254 l 692 1022 l 590 1022 l 471 1182 l 351 1022 m 814 104 l 814 0 l 150 0 l 150 917 l 793 917 l 793 813 l 261 813 l 261 517 l 675 517 l 675 413 l 261 413 l 261 104 l 814 104 z "},"Ë":{"ha":886,"x_min":150,"x_max":814,"o":"m 814 104 l 814 0 l 150 0 l 150 917 l 793 917 l 793 813 l 261 813 l 261 517 l 675 517 l 675 413 l 261 413 l 261 104 l 814 104 m 336 1189 q 394 1167 372 1189 q 415 1110 415 1146 q 394 1053 415 1075 q 336 1031 372 1031 q 279 1053 301 1031 q 257 1110 257 1075 q 279 1167 257 1146 q 336 1189 301 1189 m 606 1189 q 663 1167 642 1189 q 685 1110 685 1146 q 663 1053 685 1075 q 606 1031 642 1031 q 549 1053 571 1031 q 526 1110 526 1075 q 549 1167 526 1146 q 606 1189 571 1189 z "},"Ė":{"ha":886,"x_min":150,"x_max":814,"o":"m 814 104 l 814 0 l 150 0 l 150 917 l 793 917 l 793 813 l 261 813 l 261 517 l 675 517 l 675 413 l 261 413 l 261 104 l 814 104 m 471 1217 q 531 1194 508 1217 q 554 1133 554 1171 q 531 1073 554 1096 q 471 1050 508 1050 q 410 1073 433 1050 q 388 1133 388 1096 q 410 1194 388 1171 q 471 1217 433 1217 z "},"È":{"ha":886,"x_min":150,"x_max":814,"o":"m 447 1032 l 328 1238 l 458 1238 l 538 1032 l 447 1032 m 814 104 l 814 0 l 150 0 l 150 917 l 793 917 l 793 813 l 261 813 l 261 517 l 675 517 l 675 413 l 261 413 l 261 104 l 814 104 z "},"Ē":{"ha":886,"x_min":150,"x_max":814,"o":"m 814 104 l 814 0 l 150 0 l 150 917 l 793 917 l 793 813 l 261 813 l 261 517 l 675 517 l 675 413 l 261 413 l 261 104 l 814 104 m 713 1050 l 229 1050 l 229 1143 l 713 1143 l 713 1050 z "},"Ę":{"ha":886,"x_min":150,"x_max":831,"o":"m 831 -272 q 780 -292 811 -285 q 717 -299 749 -299 q 597 -262 642 -299 q 551 -162 551 -225 q 581 -65 551 -104 q 672 0 611 -26 l 150 0 l 150 917 l 793 917 l 793 813 l 261 813 l 261 517 l 675 517 l 675 413 l 261 413 l 261 104 l 814 104 l 814 0 q 678 -68 715 -33 q 642 -147 642 -103 q 665 -201 642 -182 q 731 -219 689 -219 q 808 -201 782 -219 l 831 -272 z "},"F":{"ha":847,"x_min":150,"x_max":792,"o":"m 261 813 l 261 517 l 675 517 l 675 413 l 261 413 l 261 0 l 150 0 l 150 917 l 792 917 l 792 813 l 261 813 z "},"G":{"ha":1006,"x_min":94,"x_max":896,"o":"m 896 463 l 896 0 l 813 0 l 808 124 q 695 22 768 57 q 519 -14 622 -14 q 294 44 390 -14 q 147 208 199 101 q 94 458 94 314 q 148 708 94 601 q 298 873 201 815 q 522 931 394 931 q 747 879 658 931 q 889 721 835 828 l 788 665 q 688 785 757 743 q 522 826 619 826 q 359 782 429 826 q 250 655 289 738 q 211 458 211 572 q 292 187 211 283 q 524 90 372 90 q 719 151 643 90 q 794 326 794 213 l 794 358 l 503 358 l 503 463 l 896 463 z "},"Ğ":{"ha":1006,"x_min":94,"x_max":896,"o":"m 896 463 l 896 0 l 813 0 l 808 124 q 695 22 768 57 q 519 -14 622 -14 q 294 44 390 -14 q 147 208 199 101 q 94 458 94 314 q 148 708 94 601 q 298 873 201 815 q 522 931 394 931 q 747 879 658 931 q 889 721 835 828 l 788 665 q 688 785 757 743 q 522 826 619 826 q 359 782 429 826 q 250 655 289 738 q 211 458 211 572 q 292 187 211 283 q 524 90 372 90 q 719 151 643 90 q 794 326 794 213 l 794 358 l 503 358 l 503 463 l 896 463 m 724 1229 q 667 1081 724 1138 q 518 1024 610 1024 q 369 1081 426 1024 q 313 1229 313 1138 l 404 1229 q 437 1143 404 1179 q 518 1107 469 1107 q 599 1143 567 1107 q 632 1229 632 1179 l 724 1229 z "},"H":{"ha":1019,"x_min":150,"x_max":869,"o":"m 869 917 l 869 0 l 758 0 l 758 413 l 261 413 l 261 0 l 150 0 l 150 917 l 261 917 l 261 517 l 758 517 l 758 917 l 869 917 z "},"I":{"ha":411,"x_min":150,"x_max":261,"o":"m 261 0 l 150 0 l 150 917 l 261 917 l 261 0 z "},"Ĳ":{"ha":1197,"x_min":150,"x_max":1057,"o":"m 261 0 l 150 0 l 150 917 l 261 917 l 261 0 m 1057 314 q 974 73 1057 160 q 746 -14 892 -14 q 542 51 614 -14 q 469 229 469 115 q 476 303 469 269 l 579 324 q 574 257 574 276 q 614 131 574 172 q 742 90 654 90 q 901 151 856 90 q 946 342 946 213 l 946 917 l 1057 917 l 1057 314 z "},"Í":{"ha":411,"x_min":147,"x_max":357,"o":"m 357 1238 l 238 1032 l 147 1032 l 226 1238 l 357 1238 m 261 0 l 150 0 l 150 917 l 261 917 l 261 0 z "},"Î":{"ha":411,"x_min":-15,"x_max":426,"o":"m 325 1022 l 206 1182 l 86 1022 l -15 1022 l 143 1254 l 268 1254 l 426 1022 l 325 1022 m 261 0 l 150 0 l 150 917 l 261 917 l 261 0 z "},"Ï":{"ha":411,"x_min":7,"x_max":404,"o":"m 86 1189 q 144 1167 122 1189 q 165 1110 165 1146 q 144 1053 165 1075 q 86 1031 122 1031 q 29 1053 51 1031 q 7 1110 7 1075 q 29 1167 7 1146 q 86 1189 51 1189 m 325 1189 q 383 1167 361 1189 q 404 1110 404 1146 q 383 1053 404 1075 q 325 1031 361 1031 q 268 1053 290 1031 q 246 1110 246 1075 q 268 1167 246 1146 q 325 1189 290 1189 m 261 0 l 150 0 l 150 917 l 261 917 l 261 0 z "},"İ":{"ha":411,"x_min":122,"x_max":289,"o":"m 261 0 l 150 0 l 150 917 l 261 917 l 261 0 m 206 1217 q 266 1194 243 1217 q 289 1133 289 1171 q 266 1073 289 1096 q 206 1050 243 1050 q 145 1073 168 1050 q 122 1133 122 1096 q 145 1194 122 1171 q 206 1217 168 1217 z "},"Ì":{"ha":411,"x_min":42,"x_max":261,"o":"m 251 1032 l 161 1032 l 42 1238 l 172 1238 l 251 1032 m 261 0 l 150 0 l 150 917 l 261 917 l 261 0 z "},"Ī":{"ha":411,"x_min":56,"x_max":356,"o":"m 356 1050 l 56 1050 l 56 1143 l 356 1143 l 356 1050 m 261 0 l 150 0 l 150 917 l 261 917 l 261 0 z "},"Į":{"ha":411,"x_min":24,"x_max":303,"o":"m 303 -268 q 185 -299 258 -299 q 67 -262 111 -299 q 24 -162 24 -225 q 56 -65 24 -110 q 150 10 88 -21 l 150 917 l 261 917 l 261 0 q 145 -74 178 -39 q 113 -143 113 -108 q 194 -218 113 -218 q 276 -197 246 -218 l 303 -268 z "},"J":{"ha":786,"x_min":58,"x_max":646,"o":"m 646 314 q 563 73 646 160 q 335 -14 481 -14 q 131 51 203 -14 q 58 229 58 115 q 65 303 58 269 l 168 324 q 163 257 163 276 q 203 131 163 172 q 331 90 243 90 q 490 151 444 90 q 535 342 535 213 l 535 917 l 646 917 l 646 314 z "},"K":{"ha":911,"x_min":150,"x_max":872,"o":"m 425 461 l 261 294 l 261 0 l 150 0 l 150 917 l 261 917 l 261 444 l 722 917 l 868 917 l 503 543 l 872 0 l 739 0 l 425 461 z "},"L":{"ha":831,"x_min":150,"x_max":786,"o":"m 786 104 l 786 0 l 150 0 l 150 917 l 261 917 l 261 104 l 786 104 z "},"Ĺ":{"ha":831,"x_min":147,"x_max":786,"o":"m 238 1032 l 147 1032 l 226 1238 l 357 1238 l 238 1032 m 786 104 l 786 0 l 150 0 l 150 917 l 261 917 l 261 104 l 786 104 z "},"Ľ":{"ha":831,"x_min":150,"x_max":786,"o":"m 465 699 l 389 699 l 417 972 l 522 972 l 465 699 m 786 104 l 786 0 l 150 0 l 150 917 l 261 917 l 261 104 l 786 104 z "},"Ŀ":{"ha":858,"x_min":150,"x_max":825,"o":"m 786 104 l 786 0 l 150 0 l 150 917 l 261 917 l 261 104 l 786 104 m 735 565 q 800 540 775 565 q 825 475 825 515 q 800 410 825 435 q 735 385 775 385 q 669 410 694 385 q 644 475 644 435 q 669 540 644 515 q 735 565 694 565 z "},"Ł":{"ha":872,"x_min":46,"x_max":828,"o":"m 828 104 l 828 0 l 192 0 l 192 354 l 46 272 l 46 388 l 192 469 l 192 917 l 303 917 l 303 531 l 549 668 l 549 553 l 303 415 l 303 104 l 828 104 z "},"M":{"ha":1186,"x_min":150,"x_max":1036,"o":"m 1036 0 l 931 0 l 931 576 l 943 818 l 942 818 l 640 0 l 546 0 l 244 818 l 243 818 l 256 576 l 256 0 l 150 0 l 150 917 l 321 917 l 522 360 l 592 131 l 594 131 l 665 358 l 865 917 l 1036 917 l 1036 0 z "},"N":{"ha":1019,"x_min":150,"x_max":869,"o":"m 869 0 l 732 0 l 349 614 l 251 794 l 250 794 l 256 647 l 256 0 l 150 0 l 150 917 l 288 917 l 669 306 l 768 122 l 769 122 l 764 269 l 764 917 l 869 917 l 869 0 z "},"Ń":{"ha":1019,"x_min":150,"x_max":869,"o":"m 667 1238 l 547 1032 l 457 1032 l 536 1238 l 667 1238 m 869 0 l 732 0 l 349 614 l 251 794 l 250 794 l 256 647 l 256 0 l 150 0 l 150 917 l 288 917 l 669 306 l 768 122 l 769 122 l 764 269 l 764 917 l 869 917 l 869 0 z "},"Ň":{"ha":1019,"x_min":150,"x_max":869,"o":"m 578 1025 l 453 1025 l 294 1257 l 396 1257 l 515 1097 l 635 1257 l 736 1257 l 578 1025 m 869 0 l 732 0 l 349 614 l 251 794 l 250 794 l 256 647 l 256 0 l 150 0 l 150 917 l 288 917 l 669 306 l 768 122 l 769 122 l 764 269 l 764 917 l 869 917 l 869 0 z "},"Ñ":{"ha":1019,"x_min":150,"x_max":869,"o":"m 869 0 l 732 0 l 349 614 l 251 794 l 250 794 l 256 647 l 256 0 l 150 0 l 150 917 l 288 917 l 669 306 l 768 122 l 769 122 l 764 269 l 764 917 l 869 917 l 869 0 m 765 1218 q 610 1032 750 1032 q 543 1047 569 1032 q 486 1089 517 1061 q 450 1117 464 1108 q 418 1126 436 1126 q 374 1103 389 1126 q 350 1031 358 1079 l 263 1031 q 308 1170 269 1124 q 419 1217 346 1217 q 485 1201 458 1217 q 543 1158 513 1186 q 578 1131 564 1140 q 608 1122 593 1122 q 653 1147 638 1122 q 678 1218 669 1171 l 765 1218 z "},"O":{"ha":1039,"x_min":94,"x_max":944,"o":"m 519 931 q 744 873 649 931 q 892 709 840 815 q 944 458 944 603 q 892 208 944 314 q 744 44 840 101 q 519 -14 649 -14 q 294 44 390 -14 q 147 208 199 101 q 94 458 94 314 q 147 709 94 603 q 294 873 199 815 q 519 931 390 931 m 519 826 q 294 728 376 826 q 211 458 211 631 q 294 188 211 286 q 519 90 376 90 q 745 188 663 90 q 828 458 828 286 q 745 728 828 631 q 519 826 663 826 z "},"Ó":{"ha":1039,"x_min":94,"x_max":944,"o":"m 671 1238 l 551 1032 l 461 1032 l 540 1238 l 671 1238 m 519 931 q 744 873 649 931 q 892 709 840 815 q 944 458 944 603 q 892 208 944 314 q 744 44 840 101 q 519 -14 649 -14 q 294 44 390 -14 q 147 208 199 101 q 94 458 94 314 q 147 709 94 603 q 294 873 199 815 q 519 931 390 931 m 519 826 q 294 728 376 826 q 211 458 211 631 q 294 188 211 286 q 519 90 376 90 q 745 188 663 90 q 828 458 828 286 q 745 728 828 631 q 519 826 663 826 z "},"Ô":{"ha":1039,"x_min":94,"x_max":944,"o":"m 639 1022 l 519 1182 l 400 1022 l 299 1022 l 457 1254 l 582 1254 l 740 1022 l 639 1022 m 519 931 q 744 873 649 931 q 892 709 840 815 q 944 458 944 603 q 892 208 944 314 q 744 44 840 101 q 519 -14 649 -14 q 294 44 390 -14 q 147 208 199 101 q 94 458 94 314 q 147 709 94 603 q 294 873 199 815 q 519 931 390 931 m 519 826 q 294 728 376 826 q 211 458 211 631 q 294 188 211 286 q 519 90 376 90 q 745 188 663 90 q 828 458 828 286 q 745 728 828 631 q 519 826 663 826 z "},"Ö":{"ha":1039,"x_min":94,"x_max":944,"o":"m 519 931 q 744 873 649 931 q 892 709 840 815 q 944 458 944 603 q 892 208 944 314 q 744 44 840 101 q 519 -14 649 -14 q 294 44 390 -14 q 147 208 199 101 q 94 458 94 314 q 147 709 94 603 q 294 873 199 815 q 519 931 390 931 m 519 826 q 294 728 376 826 q 211 458 211 631 q 294 188 211 286 q 519 90 376 90 q 745 188 663 90 q 828 458 828 286 q 745 728 828 631 q 519 826 663 826 m 385 1189 q 442 1167 421 1189 q 464 1110 464 1146 q 442 1053 464 1075 q 385 1031 421 1031 q 328 1053 350 1031 q 306 1110 306 1075 q 328 1167 306 1146 q 385 1189 350 1189 m 654 1189 q 712 1167 690 1189 q 733 1110 733 1146 q 712 1053 733 1075 q 654 1031 690 1031 q 597 1053 619 1031 q 575 1110 575 1075 q 597 1167 575 1146 q 654 1189 619 1189 z "},"Ò":{"ha":1039,"x_min":94,"x_max":944,"o":"m 565 1032 l 475 1032 l 356 1238 l 486 1238 l 565 1032 m 519 931 q 744 873 649 931 q 892 709 840 815 q 944 458 944 603 q 892 208 944 314 q 744 44 840 101 q 519 -14 649 -14 q 294 44 390 -14 q 147 208 199 101 q 94 458 94 314 q 147 709 94 603 q 294 873 199 815 q 519 931 390 931 m 519 826 q 294 728 376 826 q 211 458 211 631 q 294 188 211 286 q 519 90 376 90 q 745 188 663 90 q 828 458 828 286 q 745 728 828 631 q 519 826 663 826 z "},"Ő":{"ha":1039,"x_min":94,"x_max":944,"o":"m 564 1238 l 444 1032 l 354 1032 l 433 1238 l 564 1238 m 810 1238 l 690 1032 l 600 1032 l 679 1238 l 810 1238 m 519 931 q 744 873 649 931 q 892 709 840 815 q 944 458 944 603 q 892 208 944 314 q 744 44 840 101 q 519 -14 649 -14 q 294 44 390 -14 q 147 208 199 101 q 94 458 94 314 q 147 709 94 603 q 294 873 199 815 q 519 931 390 931 m 519 826 q 294 728 376 826 q 211 458 211 631 q 294 188 211 286 q 519 90 376 90 q 745 188 663 90 q 828 458 828 286 q 745 728 828 631 q 519 826 663 826 z "},"Ō":{"ha":1039,"x_min":94,"x_max":944,"o":"m 519 931 q 744 873 649 931 q 892 709 840 815 q 944 458 944 603 q 892 208 944 314 q 744 44 840 101 q 519 -14 649 -14 q 294 44 390 -14 q 147 208 199 101 q 94 458 94 314 q 147 709 94 603 q 294 873 199 815 q 519 931 390 931 m 519 826 q 294 728 376 826 q 211 458 211 631 q 294 188 211 286 q 519 90 376 90 q 745 188 663 90 q 828 458 828 286 q 745 728 828 631 q 519 826 663 826 m 761 1050 l 278 1050 l 278 1143 l 761 1143 l 761 1050 z "},"Ø":{"ha":1039,"x_min":94,"x_max":944,"o":"m 822 811 q 913 659 882 749 q 944 458 944 569 q 892 208 944 314 q 744 44 840 101 q 519 -14 649 -14 q 289 46 388 -14 l 221 -51 l 122 -51 l 225 97 q 128 251 161 160 q 94 458 94 343 q 147 709 94 603 q 294 873 199 815 q 519 931 390 931 q 760 864 658 931 l 819 949 l 918 949 l 822 811 m 211 458 q 290 192 211 288 l 697 774 q 519 826 624 826 q 294 728 376 826 q 211 458 211 631 m 519 90 q 745 188 663 90 q 828 458 828 286 q 756 715 828 619 l 351 136 q 519 90 422 90 z "},"Õ":{"ha":1039,"x_min":94,"x_max":944,"o":"m 519 931 q 744 873 649 931 q 892 709 840 815 q 944 458 944 603 q 892 208 944 314 q 744 44 840 101 q 519 -14 649 -14 q 294 44 390 -14 q 147 208 199 101 q 94 458 94 314 q 147 709 94 603 q 294 873 199 815 q 519 931 390 931 m 519 826 q 294 728 376 826 q 211 458 211 631 q 294 188 211 286 q 519 90 376 90 q 745 188 663 90 q 828 458 828 286 q 745 728 828 631 q 519 826 663 826 m 769 1218 q 614 1032 754 1032 q 547 1047 574 1032 q 490 1089 521 1061 q 454 1117 468 1108 q 422 1126 440 1126 q 378 1103 393 1126 q 354 1031 363 1079 l 267 1031 q 312 1170 274 1124 q 424 1217 350 1217 q 490 1201 463 1217 q 547 1158 517 1186 q 583 1131 568 1140 q 613 1122 597 1122 q 658 1147 642 1122 q 682 1218 674 1171 l 769 1218 z "},"Œ":{"ha":1500,"x_min":94,"x_max":1428,"o":"m 1428 104 l 1428 0 l 814 0 l 814 138 q 686 25 763 64 q 517 -14 610 -14 q 292 44 388 -14 q 146 208 197 101 q 94 458 94 314 q 145 709 94 603 q 292 873 196 815 q 522 931 389 931 q 689 892 614 931 q 814 782 764 854 l 814 917 l 1407 917 l 1407 813 l 915 813 l 915 517 l 1289 517 l 1289 413 l 915 413 l 915 104 l 1428 104 m 522 90 q 674 135 608 90 q 777 262 740 179 q 814 458 814 344 q 777 655 814 572 q 674 782 740 738 q 522 826 608 826 q 292 729 374 826 q 211 458 211 632 q 292 188 211 285 q 522 90 374 90 z "},"P":{"ha":847,"x_min":150,"x_max":782,"o":"m 474 917 q 697 841 613 917 q 782 638 782 765 q 697 434 782 510 q 474 358 613 358 l 261 358 l 261 0 l 150 0 l 150 917 l 474 917 m 457 463 q 615 506 564 463 q 665 638 665 550 q 615 769 665 725 q 457 813 564 813 l 261 813 l 261 463 l 457 463 z "},"Þ":{"ha":871,"x_min":150,"x_max":796,"o":"m 454 753 q 710 680 624 753 q 796 468 796 607 q 710 257 796 331 q 454 183 624 183 l 261 183 l 261 0 l 150 0 l 150 917 l 261 917 l 261 753 l 454 753 m 465 288 q 626 332 574 288 q 679 468 679 376 q 626 604 679 560 q 465 649 574 649 l 261 649 l 261 288 l 465 288 z "},"Q":{"ha":1039,"x_min":94,"x_max":944,"o":"m 744 -158 q 839 -144 796 -158 q 908 -107 882 -131 l 944 -210 q 854 -254 913 -237 q 742 -271 796 -271 q 552 -210 628 -271 q 468 -11 476 -150 q 269 60 353 0 q 140 222 185 119 q 94 458 94 324 q 147 709 94 603 q 294 873 199 815 q 519 931 390 931 q 744 873 649 931 q 892 709 840 815 q 944 458 944 603 q 899 222 944 324 q 768 59 853 119 q 568 -11 683 -1 q 622 -128 575 -97 q 744 -158 668 -158 m 211 458 q 294 188 211 286 q 519 90 376 90 q 745 188 663 90 q 828 458 828 286 q 745 728 828 631 q 519 826 663 826 q 294 728 376 826 q 211 458 211 631 z "},"R":{"ha":924,"x_min":150,"x_max":863,"o":"m 481 381 l 261 381 l 261 0 l 150 0 l 150 917 l 497 917 q 722 844 638 917 q 807 649 807 772 q 753 485 807 551 q 604 393 699 418 l 863 0 l 731 0 l 481 381 m 261 485 l 496 485 q 690 649 690 485 q 496 813 690 813 l 261 813 l 261 485 z "},"Ŕ":{"ha":924,"x_min":150,"x_max":863,"o":"m 479 1032 l 389 1032 l 468 1238 l 599 1238 l 479 1032 m 481 381 l 261 381 l 261 0 l 150 0 l 150 917 l 497 917 q 722 844 638 917 q 807 649 807 772 q 753 485 807 551 q 604 393 699 418 l 863 0 l 731 0 l 481 381 m 261 485 l 496 485 q 690 649 690 485 q 496 813 690 813 l 261 813 l 261 485 z "},"Ř":{"ha":924,"x_min":150,"x_max":863,"o":"m 385 1025 l 226 1257 l 328 1257 l 447 1097 l 567 1257 l 668 1257 l 510 1025 l 385 1025 m 481 381 l 261 381 l 261 0 l 150 0 l 150 917 l 497 917 q 722 844 638 917 q 807 649 807 772 q 753 485 807 551 q 604 393 699 418 l 863 0 l 731 0 l 481 381 m 261 485 l 496 485 q 690 649 690 485 q 496 813 690 813 l 261 813 l 261 485 z "},"S":{"ha":890,"x_min":67,"x_max":807,"o":"m 444 931 q 799 736 690 931 l 703 658 q 603 788 661 750 q 446 826 546 826 q 280 783 340 826 q 219 671 219 739 q 243 597 219 626 q 322 547 267 568 q 474 508 376 525 q 731 417 656 478 q 807 247 807 356 q 763 110 807 169 q 639 19 719 51 q 453 -14 558 -14 q 216 40 314 -14 q 67 185 118 94 l 163 263 q 273 135 200 181 q 456 90 346 90 q 628 130 564 90 q 692 242 692 169 q 636 339 692 303 q 439 400 581 375 q 179 492 256 432 q 103 658 103 551 q 144 794 103 732 q 264 894 186 857 q 444 931 342 931 z "},"Ś":{"ha":890,"x_min":67,"x_max":807,"o":"m 604 1238 l 485 1032 l 394 1032 l 474 1238 l 604 1238 m 444 931 q 799 736 690 931 l 703 658 q 603 788 661 750 q 446 826 546 826 q 280 783 340 826 q 219 671 219 739 q 243 597 219 626 q 322 547 267 568 q 474 508 376 525 q 731 417 656 478 q 807 247 807 356 q 763 110 807 169 q 639 19 719 51 q 453 -14 558 -14 q 216 40 314 -14 q 67 185 118 94 l 163 263 q 273 135 200 181 q 456 90 346 90 q 628 130 564 90 q 692 242 692 169 q 636 339 692 303 q 439 400 581 375 q 179 492 256 432 q 103 658 103 551 q 144 794 103 732 q 264 894 186 857 q 444 931 342 931 z "},"Š":{"ha":890,"x_min":67,"x_max":807,"o":"m 515 1025 l 390 1025 l 232 1257 l 333 1257 l 453 1097 l 572 1257 l 674 1257 l 515 1025 m 444 931 q 799 736 690 931 l 703 658 q 603 788 661 750 q 446 826 546 826 q 280 783 340 826 q 219 671 219 739 q 243 597 219 626 q 322 547 267 568 q 474 508 376 525 q 731 417 656 478 q 807 247 807 356 q 763 110 807 169 q 639 19 719 51 q 453 -14 558 -14 q 216 40 314 -14 q 67 185 118 94 l 163 263 q 273 135 200 181 q 456 90 346 90 q 628 130 564 90 q 692 242 692 169 q 636 339 692 303 q 439 400 581 375 q 179 492 256 432 q 103 658 103 551 q 144 794 103 732 q 264 894 186 857 q 444 931 342 931 z "},"ẞ":{"ha":960,"x_min":150,"x_max":904,"o":"m 622 514 q 827 446 750 514 q 904 257 904 378 q 867 118 904 178 q 766 26 831 58 q 619 -7 701 -7 q 472 18 536 -7 q 382 82 408 43 l 429 164 q 504 113 456 132 q 608 94 553 94 q 738 140 689 94 q 788 257 788 185 q 732 376 788 332 q 578 419 676 419 l 471 419 l 471 514 l 713 813 l 458 813 q 360 787 406 813 q 288 716 315 761 q 261 614 261 671 l 261 0 l 150 0 l 150 615 q 190 773 150 704 q 301 879 231 842 q 458 917 371 917 l 844 917 l 844 811 l 590 514 l 622 514 z "},"T":{"ha":839,"x_min":44,"x_max":794,"o":"m 794 813 l 475 813 l 475 0 l 364 0 l 364 813 l 44 813 l 44 917 l 794 917 l 794 813 z "},"Ť":{"ha":839,"x_min":44,"x_max":794,"o":"m 357 1025 l 199 1257 l 300 1257 l 419 1097 l 539 1257 l 640 1257 l 482 1025 l 357 1025 m 794 813 l 475 813 l 475 0 l 364 0 l 364 813 l 44 813 l 44 917 l 794 917 l 794 813 z "},"U":{"ha":1000,"x_min":140,"x_max":860,"o":"m 860 342 q 767 76 860 165 q 500 -14 675 -14 q 233 76 325 -14 q 140 342 140 167 l 140 917 l 251 917 l 251 369 q 312 158 251 225 q 500 90 372 90 q 688 158 628 90 q 749 369 749 225 l 749 917 l 860 917 l 860 342 z "},"Ú":{"ha":1000,"x_min":140,"x_max":860,"o":"m 651 1238 l 532 1032 l 442 1032 l 521 1238 l 651 1238 m 860 342 q 767 76 860 165 q 500 -14 675 -14 q 233 76 325 -14 q 140 342 140 167 l 140 917 l 251 917 l 251 369 q 312 158 251 225 q 500 90 372 90 q 688 158 628 90 q 749 369 749 225 l 749 917 l 860 917 l 860 342 z "},"Û":{"ha":1000,"x_min":140,"x_max":860,"o":"m 619 1022 l 500 1182 l 381 1022 l 279 1022 l 438 1254 l 563 1254 l 721 1022 l 619 1022 m 860 342 q 767 76 860 165 q 500 -14 675 -14 q 233 76 325 -14 q 140 342 140 167 l 140 917 l 251 917 l 251 369 q 312 158 251 225 q 500 90 372 90 q 688 158 628 90 q 749 369 749 225 l 749 917 l 860 917 l 860 342 z "},"Ü":{"ha":1000,"x_min":140,"x_max":860,"o":"m 860 342 q 767 76 860 165 q 500 -14 675 -14 q 233 76 325 -14 q 140 342 140 167 l 140 917 l 251 917 l 251 369 q 312 158 251 225 q 500 90 372 90 q 688 158 628 90 q 749 369 749 225 l 749 917 l 860 917 l 860 342 m 365 1189 q 423 1167 401 1189 q 444 1110 444 1146 q 423 1053 444 1075 q 365 1031 401 1031 q 308 1053 331 1031 q 286 1110 286 1075 q 308 1167 286 1146 q 365 1189 331 1189 m 635 1189 q 692 1167 671 1189 q 714 1110 714 1146 q 692 1053 714 1075 q 635 1031 671 1031 q 578 1053 600 1031 q 556 1110 556 1075 q 578 1167 556 1146 q 635 1189 600 1189 z "},"Ù":{"ha":1000,"x_min":140,"x_max":860,"o":"m 546 1032 l 456 1032 l 336 1238 l 467 1238 l 546 1032 m 860 342 q 767 76 860 165 q 500 -14 675 -14 q 233 76 325 -14 q 140 342 140 167 l 140 917 l 251 917 l 251 369 q 312 158 251 225 q 500 90 372 90 q 688 158 628 90 q 749 369 749 225 l 749 917 l 860 917 l 860 342 z "},"Ű":{"ha":1000,"x_min":140,"x_max":860,"o":"m 522 1240 l 403 1035 l 313 1035 l 392 1240 l 522 1240 m 761 1238 l 642 1032 l 551 1032 l 631 1238 l 761 1238 m 860 342 q 767 76 860 165 q 500 -14 675 -14 q 233 76 325 -14 q 140 342 140 167 l 140 917 l 251 917 l 251 369 q 312 158 251 225 q 500 90 372 90 q 688 158 628 90 q 749 369 749 225 l 749 917 l 860 917 l 860 342 z "},"Ū":{"ha":1000,"x_min":140,"x_max":860,"o":"m 860 342 q 767 76 860 165 q 500 -14 675 -14 q 233 76 325 -14 q 140 342 140 167 l 140 917 l 251 917 l 251 369 q 312 158 251 225 q 500 90 372 90 q 688 158 628 90 q 749 369 749 225 l 749 917 l 860 917 l 860 342 m 742 1050 l 258 1050 l 258 1143 l 742 1143 l 742 1050 z "},"Ų":{"ha":1000,"x_min":140,"x_max":860,"o":"m 860 917 l 860 342 q 797 112 860 199 q 615 -3 735 25 q 481 -146 481 -72 q 505 -199 481 -179 q 569 -219 529 -219 q 646 -203 619 -219 l 668 -274 q 618 -292 649 -286 q 556 -299 588 -299 q 435 -260 481 -299 q 390 -161 390 -222 q 410 -79 390 -114 q 471 -14 431 -44 q 225 84 310 -6 q 140 342 140 174 l 140 917 l 251 917 l 251 369 q 312 158 251 225 q 500 90 372 90 q 688 158 628 90 q 749 369 749 225 l 749 917 l 860 917 z "},"Ů":{"ha":1000,"x_min":140,"x_max":860,"o":"m 860 342 q 767 76 860 165 q 500 -14 675 -14 q 233 76 325 -14 q 140 342 140 167 l 140 917 l 251 917 l 251 369 q 312 158 251 225 q 500 90 372 90 q 688 158 628 90 q 749 369 749 225 l 749 917 l 860 917 l 860 342 m 501 1239 q 627 1194 579 1239 q 675 1075 675 1149 q 627 956 675 1001 q 501 910 579 910 q 375 956 424 910 q 326 1075 326 1001 q 375 1194 326 1149 q 501 1239 424 1239 m 501 1171 q 431 1144 458 1171 q 403 1075 403 1117 q 431 1006 403 1033 q 501 979 458 979 q 572 1006 544 979 q 600 1075 600 1033 q 572 1144 600 1117 q 501 1171 544 1171 z "},"V":{"ha":900,"x_min":39,"x_max":861,"o":"m 514 0 l 388 0 l 39 917 l 158 917 l 392 283 l 450 101 l 508 282 l 742 917 l 861 917 l 514 0 z "},"W":{"ha":1335,"x_min":50,"x_max":1285,"o":"m 458 0 l 321 0 l 50 917 l 169 917 l 390 88 l 607 917 l 733 917 l 950 85 l 1172 917 l 1285 917 l 1015 0 l 878 0 l 715 594 l 668 801 l 667 801 l 619 594 l 458 0 z "},"X":{"ha":835,"x_min":35,"x_max":790,"o":"m 661 0 l 413 379 l 164 0 l 35 0 l 356 467 l 63 917 l 194 917 l 428 558 l 663 917 l 781 917 l 485 472 l 790 0 l 661 0 z "},"Y":{"ha":794,"x_min":14,"x_max":781,"o":"m 453 358 l 453 0 l 342 0 l 342 358 l 14 917 l 146 917 l 397 472 l 649 917 l 781 917 l 453 358 z "},"Ý":{"ha":794,"x_min":14,"x_max":781,"o":"m 549 1238 l 429 1032 l 339 1032 l 418 1238 l 549 1238 m 453 358 l 453 0 l 342 0 l 342 358 l 14 917 l 146 917 l 397 472 l 649 917 l 781 917 l 453 358 z "},"Ÿ":{"ha":794,"x_min":14,"x_max":781,"o":"m 453 358 l 453 0 l 342 0 l 342 358 l 14 917 l 146 917 l 397 472 l 649 917 l 781 917 l 453 358 m 263 1189 q 320 1167 299 1189 q 342 1110 342 1146 q 320 1053 342 1075 q 263 1031 299 1031 q 206 1053 228 1031 q 183 1110 183 1075 q 206 1167 183 1146 q 263 1189 228 1189 m 532 1189 q 590 1167 568 1189 q 611 1110 611 1146 q 590 1053 611 1075 q 532 1031 568 1031 q 475 1053 497 1031 q 453 1110 453 1075 q 475 1167 453 1146 q 532 1189 497 1189 z "},"Z":{"ha":875,"x_min":78,"x_max":799,"o":"m 799 104 l 799 0 l 78 0 l 78 99 l 649 813 l 92 813 l 92 917 l 781 917 l 781 818 l 210 104 l 799 104 z "},"Ź":{"ha":875,"x_min":78,"x_max":799,"o":"m 457 1032 l 367 1032 l 446 1238 l 576 1238 l 457 1032 m 799 104 l 799 0 l 78 0 l 78 99 l 649 813 l 92 813 l 92 917 l 781 917 l 781 818 l 210 104 l 799 104 z "},"Ž":{"ha":875,"x_min":78,"x_max":799,"o":"m 363 1025 l 204 1257 l 306 1257 l 425 1097 l 544 1257 l 646 1257 l 488 1025 l 363 1025 m 799 104 l 799 0 l 78 0 l 78 99 l 649 813 l 92 813 l 92 917 l 781 917 l 781 818 l 210 104 l 799 104 z "},"Ż":{"ha":875,"x_min":78,"x_max":799,"o":"m 799 104 l 799 0 l 78 0 l 78 99 l 649 813 l 92 813 l 92 917 l 781 917 l 781 818 l 210 104 l 799 104 m 425 1217 q 485 1194 463 1217 q 508 1133 508 1171 q 485 1073 508 1096 q 425 1050 463 1050 q 365 1073 388 1050 q 342 1133 342 1096 q 365 1194 342 1171 q 425 1217 388 1217 z "},"Ģ":{"ha":1006,"x_min":94,"x_max":896,"o":"m 896 463 l 896 0 l 813 0 l 808 124 q 695 22 768 57 q 519 -14 622 -14 q 294 44 390 -14 q 147 208 199 101 q 94 458 94 314 q 148 708 94 601 q 298 873 201 815 q 522 931 394 931 q 747 879 658 931 q 889 721 835 828 l 788 665 q 688 785 757 743 q 522 826 619 826 q 359 782 429 826 q 250 655 289 738 q 211 458 211 572 q 292 187 211 283 q 524 90 372 90 q 719 151 643 90 q 794 326 794 213 l 794 358 l 503 358 l 503 463 l 896 463 m 514 -329 l 426 -329 l 488 -106 l 604 -106 l 514 -329 z "},"Ķ":{"ha":911,"x_min":150,"x_max":872,"o":"m 425 461 l 261 294 l 261 0 l 150 0 l 150 917 l 261 917 l 261 444 l 722 917 l 868 917 l 503 543 l 872 0 l 739 0 l 425 461 m 469 -329 l 382 -329 l 443 -106 l 560 -106 l 469 -329 z "},"Ļ":{"ha":831,"x_min":150,"x_max":786,"o":"m 786 104 l 786 0 l 150 0 l 150 917 l 261 917 l 261 104 l 786 104 m 454 -329 l 367 -329 l 428 -106 l 544 -106 l 454 -329 z "},"Ņ":{"ha":1019,"x_min":150,"x_max":869,"o":"m 869 0 l 732 0 l 349 614 l 251 794 l 250 794 l 256 647 l 256 0 l 150 0 l 150 917 l 288 917 l 669 306 l 768 122 l 769 122 l 764 269 l 764 917 l 869 917 l 869 0 m 503 -329 l 415 -329 l 476 -106 l 593 -106 l 503 -329 z "},"Ŗ":{"ha":924,"x_min":150,"x_max":863,"o":"m 481 381 l 261 381 l 261 0 l 150 0 l 150 917 l 497 917 q 722 844 638 917 q 807 649 807 772 q 753 485 807 551 q 604 393 699 418 l 863 0 l 731 0 l 481 381 m 261 485 l 496 485 q 690 649 690 485 q 496 813 690 813 l 261 813 l 261 485 m 458 -329 l 371 -329 l 432 -106 l 549 -106 l 458 -329 z "},"Ş":{"ha":890,"x_min":67,"x_max":807,"o":"m 807 247 q 734 78 807 146 q 536 -8 661 10 q 593 -74 574 -37 q 613 -150 613 -111 q 569 -255 613 -211 q 451 -299 525 -299 q 299 -250 353 -299 l 340 -174 q 383 -203 358 -192 q 436 -215 408 -215 q 492 -193 469 -215 q 515 -135 515 -171 q 494 -69 515 -96 q 414 -12 472 -42 q 202 49 290 -4 q 67 185 114 101 l 163 263 q 273 135 200 181 q 456 90 346 90 q 628 130 564 90 q 692 242 692 169 q 636 339 692 303 q 439 400 581 375 q 179 492 256 432 q 103 658 103 551 q 144 794 103 732 q 264 894 186 857 q 444 931 342 931 q 799 736 690 931 l 703 658 q 603 788 661 750 q 446 826 546 826 q 280 783 340 826 q 219 671 219 739 q 243 597 219 626 q 322 547 267 568 q 474 508 376 525 q 731 417 656 478 q 807 247 807 356 z "},"Ţ":{"ha":839,"x_min":44,"x_max":794,"o":"m 475 813 l 475 13 q 574 -151 574 -56 q 528 -255 574 -211 q 411 -299 483 -299 q 258 -250 313 -299 l 300 -174 q 343 -203 318 -192 q 396 -215 368 -215 q 452 -193 429 -215 q 475 -135 475 -171 q 451 -70 475 -97 q 364 0 428 -43 l 364 813 l 44 813 l 44 917 l 794 917 l 794 813 l 475 813 z "},"Ș":{"ha":890,"x_min":67,"x_max":807,"o":"m 444 931 q 799 736 690 931 l 703 658 q 603 788 661 750 q 446 826 546 826 q 280 783 340 826 q 219 671 219 739 q 243 597 219 626 q 322 547 267 568 q 474 508 376 525 q 731 417 656 478 q 807 247 807 356 q 763 110 807 169 q 639 19 719 51 q 453 -14 558 -14 q 216 40 314 -14 q 67 185 118 94 l 163 263 q 273 135 200 181 q 456 90 346 90 q 628 130 564 90 q 692 242 692 169 q 636 339 692 303 q 439 400 581 375 q 179 492 256 432 q 103 658 103 551 q 144 794 103 732 q 264 894 186 857 q 444 931 342 931 m 450 -329 l 363 -329 l 424 -106 l 540 -106 l 450 -329 z "},"Ț":{"ha":839,"x_min":44,"x_max":794,"o":"m 794 813 l 475 813 l 475 0 l 364 0 l 364 813 l 44 813 l 44 917 l 794 917 l 794 813 m 393 -329 l 306 -329 l 367 -106 l 483 -106 l 393 -329 z "},"a":{"ha":786,"x_min":79,"x_max":754,"o":"m 699 81 q 754 88 726 81 l 747 0 q 664 -14 708 -14 q 578 10 610 -14 q 539 89 547 33 q 445 13 507 40 q 315 -14 383 -14 q 146 34 213 -14 q 79 172 79 82 q 149 309 79 251 q 350 389 218 367 l 535 419 l 535 458 q 492 569 535 528 q 372 611 449 611 q 252 578 303 611 q 174 479 201 544 l 92 539 q 195 663 119 617 q 372 708 271 708 q 571 649 496 708 q 646 472 646 589 l 646 131 q 658 93 646 106 q 699 81 671 81 m 321 83 q 472 125 408 83 q 535 233 535 167 l 535 329 l 379 300 q 240 252 286 283 q 194 172 194 221 q 228 106 194 129 q 321 83 261 83 z "},"á":{"ha":786,"x_min":79,"x_max":754,"o":"m 699 81 q 754 88 726 81 l 747 0 q 664 -14 708 -14 q 578 10 610 -14 q 539 89 547 33 q 445 13 507 40 q 315 -14 383 -14 q 146 34 213 -14 q 79 172 79 82 q 149 309 79 251 q 350 389 218 367 l 535 419 l 535 458 q 492 569 535 528 q 372 611 449 611 q 252 578 303 611 q 174 479 201 544 l 92 539 q 195 663 119 617 q 372 708 271 708 q 571 649 496 708 q 646 472 646 589 l 646 131 q 658 93 646 106 q 699 81 671 81 m 321 83 q 472 125 408 83 q 535 233 535 167 l 535 329 l 379 300 q 240 252 286 283 q 194 172 194 221 q 228 106 194 129 q 321 83 261 83 m 542 1042 l 406 810 l 315 810 l 421 1042 l 542 1042 z "},"ă":{"ha":786,"x_min":79,"x_max":754,"o":"m 699 81 q 754 88 726 81 l 747 0 q 664 -14 708 -14 q 578 10 610 -14 q 539 89 547 33 q 445 13 507 40 q 315 -14 383 -14 q 146 34 213 -14 q 79 172 79 82 q 149 309 79 251 q 350 389 218 367 l 535 419 l 535 458 q 492 569 535 528 q 372 611 449 611 q 252 578 303 611 q 174 479 201 544 l 92 539 q 195 663 119 617 q 372 708 271 708 q 571 649 496 708 q 646 472 646 589 l 646 131 q 658 93 646 106 q 699 81 671 81 m 321 83 q 472 125 408 83 q 535 233 535 167 l 535 329 l 379 300 q 240 252 286 283 q 194 172 194 221 q 228 106 194 129 q 321 83 261 83 m 589 1007 q 532 858 589 915 q 383 801 475 801 q 235 858 292 801 q 178 1007 178 915 l 269 1007 q 302 921 269 957 q 383 885 335 885 q 465 921 432 885 q 497 1007 497 957 l 589 1007 z "},"â":{"ha":786,"x_min":79,"x_max":754,"o":"m 699 81 q 754 88 726 81 l 747 0 q 664 -14 708 -14 q 578 10 610 -14 q 539 89 547 33 q 445 13 507 40 q 315 -14 383 -14 q 146 34 213 -14 q 79 172 79 82 q 149 309 79 251 q 350 389 218 367 l 535 419 l 535 458 q 492 569 535 528 q 372 611 449 611 q 252 578 303 611 q 174 479 201 544 l 92 539 q 195 663 119 617 q 372 708 271 708 q 571 649 496 708 q 646 472 646 589 l 646 131 q 658 93 646 106 q 699 81 671 81 m 321 83 q 472 125 408 83 q 535 233 535 167 l 535 329 l 379 300 q 240 252 286 283 q 194 172 194 221 q 228 106 194 129 q 321 83 261 83 m 501 800 l 383 954 l 265 800 l 164 800 l 319 1032 l 447 1032 l 603 800 l 501 800 z "},"ä":{"ha":786,"x_min":79,"x_max":754,"o":"m 699 81 q 754 88 726 81 l 747 0 q 664 -14 708 -14 q 578 10 610 -14 q 539 89 547 33 q 445 13 507 40 q 315 -14 383 -14 q 146 34 213 -14 q 79 172 79 82 q 149 309 79 251 q 350 389 218 367 l 535 419 l 535 458 q 492 569 535 528 q 372 611 449 611 q 252 578 303 611 q 174 479 201 544 l 92 539 q 195 663 119 617 q 372 708 271 708 q 571 649 496 708 q 646 472 646 589 l 646 131 q 658 93 646 106 q 699 81 671 81 m 321 83 q 472 125 408 83 q 535 233 535 167 l 535 329 l 379 300 q 240 252 286 283 q 194 172 194 221 q 228 106 194 129 q 321 83 261 83 m 249 967 q 306 945 285 967 q 328 888 328 924 q 306 831 328 853 q 249 808 285 808 q 192 831 214 808 q 169 888 169 853 q 192 945 169 924 q 249 967 214 967 m 518 967 q 576 945 554 967 q 597 888 597 924 q 576 831 597 853 q 518 808 554 808 q 461 831 483 808 q 439 888 439 853 q 461 945 439 924 q 518 967 483 967 z "},"à":{"ha":786,"x_min":79,"x_max":754,"o":"m 699 81 q 754 88 726 81 l 747 0 q 664 -14 708 -14 q 578 10 610 -14 q 539 89 547 33 q 445 13 507 40 q 315 -14 383 -14 q 146 34 213 -14 q 79 172 79 82 q 149 309 79 251 q 350 389 218 367 l 535 419 l 535 458 q 492 569 535 528 q 372 611 449 611 q 252 578 303 611 q 174 479 201 544 l 92 539 q 195 663 119 617 q 372 708 271 708 q 571 649 496 708 q 646 472 646 589 l 646 131 q 658 93 646 106 q 699 81 671 81 m 321 83 q 472 125 408 83 q 535 233 535 167 l 535 329 l 379 300 q 240 252 286 283 q 194 172 194 221 q 228 106 194 129 q 321 83 261 83 m 442 810 l 351 810 l 215 1042 l 336 1042 l 442 810 z "},"ā":{"ha":786,"x_min":79,"x_max":754,"o":"m 699 81 q 754 88 726 81 l 747 0 q 664 -14 708 -14 q 578 10 610 -14 q 539 89 547 33 q 445 13 507 40 q 315 -14 383 -14 q 146 34 213 -14 q 79 172 79 82 q 149 309 79 251 q 350 389 218 367 l 535 419 l 535 458 q 492 569 535 528 q 372 611 449 611 q 252 578 303 611 q 174 479 201 544 l 92 539 q 195 663 119 617 q 372 708 271 708 q 571 649 496 708 q 646 472 646 589 l 646 131 q 658 93 646 106 q 699 81 671 81 m 321 83 q 472 125 408 83 q 535 233 535 167 l 535 329 l 379 300 q 240 252 286 283 q 194 172 194 221 q 228 106 194 129 q 321 83 261 83 m 625 828 l 142 828 l 142 921 l 625 921 l 625 828 z "},"ą":{"ha":786,"x_min":79,"x_max":754,"o":"m 656 -219 q 732 -203 706 -219 l 754 -274 q 647 -299 715 -299 q 528 -262 572 -299 q 485 -165 485 -226 q 517 -69 485 -110 q 610 4 549 -28 q 542 94 558 33 q 448 15 511 44 q 315 -14 385 -14 q 146 34 213 -14 q 79 172 79 82 q 149 309 79 251 q 350 389 218 367 l 535 419 l 535 458 q 492 569 535 528 q 372 611 449 611 q 252 578 303 611 q 174 479 201 544 l 92 539 q 195 663 119 617 q 372 708 271 708 q 571 649 496 708 q 646 472 646 589 l 646 131 q 658 93 646 106 q 699 81 671 81 q 754 88 726 81 l 747 0 q 732 -6 735 -4 q 610 -68 644 -33 q 575 -146 575 -103 q 596 -200 575 -181 q 656 -219 617 -219 m 321 83 q 472 125 408 83 q 535 233 535 167 l 535 329 l 379 300 q 240 250 285 281 q 194 172 194 219 q 228 106 194 129 q 321 83 261 83 z "},"å":{"ha":786,"x_min":79,"x_max":754,"o":"m 699 81 q 754 88 726 81 l 747 0 q 664 -14 708 -14 q 578 10 610 -14 q 539 89 547 33 q 445 13 507 40 q 315 -14 383 -14 q 146 34 213 -14 q 79 172 79 82 q 149 309 79 251 q 350 389 218 367 l 535 419 l 535 458 q 492 569 535 528 q 372 611 449 611 q 252 578 303 611 q 174 479 201 544 l 92 539 q 195 663 119 617 q 372 708 271 708 q 571 649 496 708 q 646 472 646 589 l 646 131 q 658 93 646 106 q 699 81 671 81 m 321 83 q 472 125 408 83 q 535 233 535 167 l 535 329 l 379 300 q 240 252 286 283 q 194 172 194 221 q 228 106 194 129 q 321 83 261 83 m 379 1128 q 505 1083 457 1128 q 553 964 553 1038 q 505 844 553 890 q 379 799 457 799 q 253 844 301 799 q 204 964 204 890 q 253 1083 204 1038 q 379 1128 301 1128 m 379 1060 q 308 1033 336 1060 q 281 964 281 1006 q 308 895 281 922 q 379 868 336 868 q 450 895 422 868 q 478 964 478 922 q 450 1033 478 1006 q 379 1060 422 1060 z "},"ã":{"ha":786,"x_min":79,"x_max":754,"o":"m 699 81 q 754 88 726 81 l 747 0 q 664 -14 708 -14 q 578 10 610 -14 q 539 89 547 33 q 445 13 507 40 q 315 -14 383 -14 q 146 34 213 -14 q 79 172 79 82 q 149 309 79 251 q 350 389 218 367 l 535 419 l 535 458 q 492 569 535 528 q 372 611 449 611 q 252 578 303 611 q 174 479 201 544 l 92 539 q 195 663 119 617 q 372 708 271 708 q 571 649 496 708 q 646 472 646 589 l 646 131 q 658 93 646 106 q 699 81 671 81 m 321 83 q 472 125 408 83 q 535 233 535 167 l 535 329 l 379 300 q 240 252 286 283 q 194 172 194 221 q 228 106 194 129 q 321 83 261 83 m 633 996 q 478 810 618 810 q 411 824 438 810 q 354 867 385 839 q 318 895 332 886 q 286 904 304 904 q 242 881 257 904 q 218 808 226 857 l 131 808 q 176 948 138 901 q 288 994 214 994 q 353 979 326 994 q 411 936 381 964 q 447 909 432 918 q 476 900 461 900 q 522 924 506 900 q 546 996 538 949 l 633 996 z "},"æ":{"ha":1228,"x_min":79,"x_max":1146,"o":"m 1146 383 q 1140 306 1146 344 l 644 306 q 713 142 656 201 q 857 83 771 83 q 976 109 932 83 q 1039 186 1019 135 l 1132 138 q 1026 24 1089 61 q 857 -14 964 -14 q 692 28 761 -14 q 589 157 622 71 q 485 30 561 74 q 306 -14 408 -14 q 141 37 203 -14 q 79 172 79 88 q 146 308 79 253 q 338 379 213 363 l 544 406 l 544 458 q 499 569 544 528 q 374 611 454 611 q 253 578 304 611 q 174 479 201 544 l 92 539 q 199 663 122 618 q 376 708 275 708 q 518 672 458 708 q 608 567 578 636 q 708 671 647 633 q 849 708 769 708 q 1069 617 993 708 q 1146 383 1146 525 m 849 611 q 713 556 767 611 q 647 404 660 501 l 1039 404 q 982 557 1029 503 q 849 611 935 611 m 325 83 q 433 107 383 83 q 514 174 483 131 q 544 275 544 218 l 544 318 l 367 290 q 235 248 275 275 q 194 172 194 221 q 325 83 194 83 z "},"b":{"ha":875,"x_min":129,"x_max":788,"o":"m 471 708 q 702 612 617 708 q 788 347 788 515 q 702 83 788 179 q 471 -14 617 -14 q 327 23 390 -14 q 233 121 264 60 l 226 0 l 129 0 l 129 1014 l 240 1014 l 240 586 q 334 675 274 642 q 471 708 394 708 m 458 83 q 618 155 560 83 q 676 347 676 226 q 618 540 676 468 q 458 611 560 611 q 299 542 358 611 q 240 356 240 472 l 240 339 q 299 153 240 222 q 458 83 358 83 z "},"c":{"ha":783,"x_min":86,"x_max":717,"o":"m 422 708 q 598 660 526 708 q 710 524 669 613 l 604 474 q 419 611 560 611 q 256 541 315 611 q 197 347 197 471 q 256 153 197 224 q 419 83 315 83 q 549 120 500 83 q 614 226 599 157 l 717 190 q 606 40 681 93 q 422 -14 531 -14 q 176 82 265 -14 q 86 347 86 178 q 176 613 86 517 q 422 708 265 708 z "},"ć":{"ha":783,"x_min":86,"x_max":717,"o":"m 422 708 q 598 660 526 708 q 710 524 669 613 l 604 474 q 419 611 560 611 q 256 541 315 611 q 197 347 197 471 q 256 153 197 224 q 419 83 315 83 q 549 120 500 83 q 614 226 599 157 l 717 190 q 606 40 681 93 q 422 -14 531 -14 q 176 82 265 -14 q 86 347 86 178 q 176 613 86 517 q 422 708 265 708 m 569 1042 l 433 810 l 343 810 l 449 1042 l 569 1042 z "},"č":{"ha":783,"x_min":86,"x_max":717,"o":"m 422 708 q 598 660 526 708 q 710 524 669 613 l 604 474 q 419 611 560 611 q 256 541 315 611 q 197 347 197 471 q 256 153 197 224 q 419 83 315 83 q 549 120 500 83 q 614 226 599 157 l 717 190 q 606 40 681 93 q 422 -14 531 -14 q 176 82 265 -14 q 86 347 86 178 q 176 613 86 517 q 422 708 265 708 m 475 810 l 347 810 l 192 1042 l 293 1042 l 411 888 l 529 1042 l 631 1042 l 475 810 z "},"ç":{"ha":783,"x_min":86,"x_max":717,"o":"m 717 190 q 628 57 686 108 q 488 -8 569 6 q 544 -74 525 -37 q 564 -150 564 -111 q 520 -255 564 -211 q 403 -299 476 -299 q 250 -250 304 -299 l 292 -174 q 335 -203 310 -192 q 388 -215 360 -215 q 444 -193 421 -215 q 467 -135 467 -171 q 444 -67 467 -94 q 358 -10 421 -40 q 158 103 229 10 q 86 347 86 197 q 176 613 86 517 q 422 708 265 708 q 598 660 526 708 q 710 524 669 613 l 604 474 q 419 611 560 611 q 256 541 315 611 q 197 347 197 471 q 256 153 197 224 q 419 83 315 83 q 549 120 500 83 q 614 226 599 157 l 717 190 z "},"d":{"ha":875,"x_min":88,"x_max":746,"o":"m 746 1014 l 746 0 l 649 0 l 642 121 q 548 23 611 60 q 404 -14 485 -14 q 173 83 258 -14 q 88 347 88 179 q 173 612 88 515 q 404 708 258 708 q 541 675 481 708 q 635 586 601 642 l 635 1014 l 746 1014 m 417 83 q 576 153 517 83 q 635 339 635 222 l 635 356 q 576 542 635 472 q 417 611 517 611 q 257 540 315 611 q 199 347 199 468 q 257 155 199 226 q 417 83 315 83 z "},"ð":{"ha":861,"x_min":86,"x_max":758,"o":"m 629 846 q 758 400 758 674 q 671 99 758 211 q 414 -14 583 -14 q 174 78 263 -14 q 86 331 86 169 q 128 513 86 435 q 244 632 171 590 q 411 674 318 674 q 646 576 568 674 q 602 712 629 651 q 533 824 575 772 l 275 757 l 261 825 l 486 875 q 285 1014 407 950 l 439 1014 q 585 899 525 963 l 738 942 l 757 872 l 629 846 m 419 83 q 542 117 490 83 q 622 208 594 151 q 650 331 650 264 q 590 510 650 444 q 426 576 531 576 q 261 511 321 576 q 201 331 201 446 q 260 149 201 215 q 419 83 318 83 z "},"ď":{"ha":890,"x_min":88,"x_max":957,"o":"m 635 1014 l 746 1014 l 746 0 l 649 0 l 642 121 q 548 23 611 60 q 404 -14 485 -14 q 173 83 258 -14 q 88 347 88 179 q 173 612 88 515 q 404 708 258 708 q 541 675 481 708 q 635 586 601 642 l 635 1014 m 957 1014 l 900 740 l 824 740 l 851 1014 l 957 1014 m 417 83 q 576 153 517 83 q 635 339 635 222 l 635 356 q 576 542 635 472 q 417 611 517 611 q 257 540 315 611 q 199 347 199 468 q 257 155 199 226 q 417 83 315 83 z "},"đ":{"ha":874,"x_min":88,"x_max":853,"o":"m 853 786 l 746 786 l 746 0 l 649 0 l 642 121 q 548 23 611 60 q 404 -14 485 -14 q 173 83 258 -14 q 88 347 88 179 q 173 612 88 515 q 404 708 258 708 q 541 675 481 708 q 635 586 601 642 l 635 786 l 417 786 l 417 871 l 635 871 l 635 1014 l 746 1014 l 746 871 l 853 871 l 853 786 m 417 83 q 576 153 517 83 q 635 339 635 222 l 635 356 q 576 542 635 472 q 417 611 517 611 q 257 540 315 611 q 199 347 199 468 q 257 155 199 226 q 417 83 315 83 z "},"e":{"ha":807,"x_min":86,"x_max":725,"o":"m 725 383 q 719 306 725 344 l 196 306 q 266 142 206 200 q 422 83 326 83 q 549 110 499 83 q 618 186 600 136 l 711 138 q 600 25 669 64 q 422 -14 531 -14 q 176 82 265 -14 q 86 347 86 178 q 172 613 86 517 q 414 708 257 708 q 582 665 511 708 q 689 549 653 622 q 725 383 725 475 m 414 611 q 266 557 322 611 q 197 404 210 503 l 618 404 q 554 556 607 501 q 414 611 501 611 z "},"é":{"ha":807,"x_min":86,"x_max":725,"o":"m 725 383 q 719 306 725 344 l 196 306 q 266 142 206 200 q 422 83 326 83 q 549 110 499 83 q 618 186 600 136 l 711 138 q 600 25 669 64 q 422 -14 531 -14 q 176 82 265 -14 q 86 347 86 178 q 172 613 86 517 q 414 708 257 708 q 582 665 511 708 q 689 549 653 622 q 725 383 725 475 m 414 611 q 266 557 322 611 q 197 404 210 503 l 618 404 q 554 556 607 501 q 414 611 501 611 m 568 1042 l 432 810 l 342 810 l 447 1042 l 568 1042 z "},"ě":{"ha":807,"x_min":86,"x_max":725,"o":"m 725 383 q 719 306 725 344 l 196 306 q 266 142 206 200 q 422 83 326 83 q 549 110 499 83 q 618 186 600 136 l 711 138 q 600 25 669 64 q 422 -14 531 -14 q 176 82 265 -14 q 86 347 86 178 q 172 613 86 517 q 414 708 257 708 q 582 665 511 708 q 689 549 653 622 q 725 383 725 475 m 414 611 q 266 557 322 611 q 197 404 210 503 l 618 404 q 554 556 607 501 q 414 611 501 611 m 474 810 l 346 810 l 190 1042 l 292 1042 l 410 888 l 528 1042 l 629 1042 l 474 810 z "},"ê":{"ha":807,"x_min":86,"x_max":725,"o":"m 725 383 q 719 306 725 344 l 196 306 q 266 142 206 200 q 422 83 326 83 q 549 110 499 83 q 618 186 600 136 l 711 138 q 600 25 669 64 q 422 -14 531 -14 q 176 82 265 -14 q 86 347 86 178 q 172 613 86 517 q 414 708 257 708 q 582 665 511 708 q 689 549 653 622 q 725 383 725 475 m 414 611 q 266 557 322 611 q 197 404 210 503 l 618 404 q 554 556 607 501 q 414 611 501 611 m 528 800 l 410 954 l 292 800 l 190 800 l 346 1032 l 474 1032 l 629 800 l 528 800 z "},"ë":{"ha":807,"x_min":86,"x_max":725,"o":"m 725 383 q 719 306 725 344 l 196 306 q 266 142 206 200 q 422 83 326 83 q 549 110 499 83 q 618 186 600 136 l 711 138 q 600 25 669 64 q 422 -14 531 -14 q 176 82 265 -14 q 86 347 86 178 q 172 613 86 517 q 414 708 257 708 q 582 665 511 708 q 689 549 653 622 q 725 383 725 475 m 414 611 q 266 557 322 611 q 197 404 210 503 l 618 404 q 554 556 607 501 q 414 611 501 611 m 275 967 q 333 945 311 967 q 354 888 354 924 q 333 831 354 853 q 275 808 311 808 q 218 831 240 808 q 196 888 196 853 q 218 945 196 924 q 275 967 240 967 m 544 967 q 602 945 581 967 q 624 888 624 924 q 602 831 624 853 q 544 808 581 808 q 488 831 510 808 q 465 888 465 853 q 488 945 465 924 q 544 967 510 967 z "},"ė":{"ha":807,"x_min":86,"x_max":725,"o":"m 725 383 q 719 306 725 344 l 196 306 q 266 142 206 200 q 422 83 326 83 q 549 110 499 83 q 618 186 600 136 l 711 138 q 600 25 669 64 q 422 -14 531 -14 q 176 82 265 -14 q 86 347 86 178 q 172 613 86 517 q 414 708 257 708 q 582 665 511 708 q 689 549 653 622 q 725 383 725 475 m 414 611 q 266 557 322 611 q 197 404 210 503 l 618 404 q 554 556 607 501 q 414 611 501 611 m 410 994 q 470 972 447 994 q 493 911 493 949 q 470 851 493 874 q 410 828 447 828 q 349 851 372 828 q 326 911 326 874 q 349 972 326 949 q 410 994 372 994 z "},"è":{"ha":807,"x_min":86,"x_max":725,"o":"m 725 383 q 719 306 725 344 l 196 306 q 266 142 206 200 q 422 83 326 83 q 549 110 499 83 q 618 186 600 136 l 711 138 q 600 25 669 64 q 422 -14 531 -14 q 176 82 265 -14 q 86 347 86 178 q 172 613 86 517 q 414 708 257 708 q 582 665 511 708 q 689 549 653 622 q 725 383 725 475 m 414 611 q 266 557 322 611 q 197 404 210 503 l 618 404 q 554 556 607 501 q 414 611 501 611 m 468 810 l 378 810 l 242 1042 l 363 1042 l 468 810 z "},"ē":{"ha":807,"x_min":86,"x_max":725,"o":"m 725 383 q 719 306 725 344 l 196 306 q 266 142 206 200 q 422 83 326 83 q 549 110 499 83 q 618 186 600 136 l 711 138 q 600 25 669 64 q 422 -14 531 -14 q 176 82 265 -14 q 86 347 86 178 q 172 613 86 517 q 414 708 257 708 q 582 665 511 708 q 689 549 653 622 q 725 383 725 475 m 414 611 q 266 557 322 611 q 197 404 210 503 l 618 404 q 554 556 607 501 q 414 611 501 611 m 651 828 l 168 828 l 168 921 l 651 921 l 651 828 z "},"ę":{"ha":807,"x_min":86,"x_max":725,"o":"m 725 383 q 719 306 725 344 l 196 306 q 266 142 206 200 q 422 83 326 83 q 549 110 499 83 q 618 186 600 136 l 711 138 q 551 4 657 38 q 458 -70 488 -35 q 428 -140 428 -106 q 452 -199 428 -178 q 515 -219 476 -219 q 592 -203 565 -219 l 614 -274 q 564 -292 594 -286 q 501 -299 533 -299 q 381 -259 426 -299 q 336 -157 336 -219 q 356 -81 336 -115 q 414 -14 375 -46 q 174 85 261 -11 q 86 347 86 181 q 172 613 86 517 q 414 708 257 708 q 582 665 511 708 q 689 549 653 622 q 725 383 725 475 m 414 611 q 266 557 322 611 q 197 404 210 503 l 618 404 q 554 556 607 501 q 414 611 501 611 z "},"f":{"ha":546,"x_min":44,"x_max":529,"o":"m 294 694 l 526 694 l 526 599 l 294 599 l 294 0 l 183 0 l 183 599 l 44 599 l 44 694 l 183 694 l 183 811 q 242 964 183 907 q 411 1021 300 1021 q 480 1013 449 1021 q 529 989 511 1004 l 500 899 q 421 919 467 919 q 294 800 294 919 l 294 694 z "},"g":{"ha":763,"x_min":64,"x_max":742,"o":"m 517 89 q 671 44 615 89 q 726 -76 726 0 q 681 -194 726 -143 q 556 -272 635 -244 q 383 -299 478 -299 q 144 -248 225 -299 q 64 -115 64 -197 q 97 -32 64 -68 q 186 19 129 4 q 117 72 143 40 q 92 147 92 104 q 119 233 92 199 q 196 283 147 267 q 120 363 146 314 q 94 474 94 413 q 131 595 94 542 q 232 678 167 649 q 379 708 297 708 q 521 681 457 708 q 717 822 560 822 l 742 725 q 576 649 606 725 q 641 572 618 617 q 664 474 664 528 q 628 352 664 406 q 526 269 592 299 q 379 239 461 239 q 272 251 318 239 q 213 221 231 242 q 194 164 194 200 q 219 108 194 128 q 286 89 244 89 l 517 89 m 379 618 q 258 578 307 618 q 210 474 210 538 q 258 369 210 410 q 379 329 307 329 q 500 369 451 329 q 549 474 549 410 q 500 578 549 538 q 379 618 451 618 m 396 -206 q 563 -172 501 -206 q 624 -89 624 -137 q 592 -28 624 -49 q 486 -7 561 -7 l 300 -7 q 201 -30 236 -7 q 167 -93 167 -53 q 225 -176 167 -146 q 396 -206 283 -206 z "},"ğ":{"ha":739,"x_min":50,"x_max":739,"o":"m 385 801 q 236 858 293 801 q 179 1007 179 915 l 271 1007 q 303 921 271 957 q 385 885 336 885 q 466 921 433 885 q 499 1007 499 957 l 590 1007 q 533 858 590 915 q 385 801 476 801 m 503 89 q 657 44 601 89 q 713 -76 713 0 q 667 -194 713 -143 q 542 -272 621 -244 q 369 -299 464 -299 q 131 -248 211 -299 q 50 -115 50 -197 q 83 -32 50 -68 q 172 19 115 4 q 103 72 129 40 q 78 147 78 104 q 106 233 78 199 q 182 283 133 267 q 106 363 132 314 q 81 474 81 413 q 117 595 81 542 q 218 678 153 649 q 365 708 283 708 q 522 674 453 708 q 585 782 532 742 q 714 822 639 822 l 739 725 q 589 625 594 725 q 650 474 650 561 q 614 352 650 406 q 513 269 578 299 q 365 239 447 239 q 258 251 304 239 q 199 221 217 242 q 181 164 181 200 q 206 108 181 128 q 272 89 231 89 l 503 89 m 365 618 q 244 578 293 618 q 196 474 196 538 q 244 369 196 410 q 365 329 293 329 q 486 369 438 329 q 535 474 535 410 q 486 578 535 538 q 365 618 438 618 m 382 -206 q 549 -172 488 -206 q 610 -89 610 -137 q 578 -28 610 -49 q 472 -7 547 -7 l 286 -7 q 188 -30 222 -7 q 153 -93 153 -53 q 211 -176 153 -146 q 382 -206 269 -206 z "},"h":{"ha":860,"x_min":129,"x_max":738,"o":"m 467 708 q 661 640 585 708 q 738 444 738 572 l 738 0 l 626 0 l 626 406 q 580 563 626 514 q 456 611 533 611 q 352 586 401 611 q 272 506 303 561 q 240 368 240 451 l 240 0 l 129 0 l 129 1014 l 240 1014 l 240 590 q 334 679 275 650 q 467 708 393 708 z "},"i":{"ha":369,"x_min":101,"x_max":268,"o":"m 185 828 q 124 851 147 828 q 101 911 101 874 q 124 972 101 949 q 185 994 147 994 q 245 972 222 994 q 268 911 268 949 q 245 851 268 874 q 185 828 222 828 m 240 0 l 129 0 l 129 694 l 240 694 l 240 0 z "},"ı":{"ha":369,"x_min":129,"x_max":240,"o":"m 240 0 l 129 0 l 129 694 l 240 694 l 240 0 z "},"í":{"ha":369,"x_min":129,"x_max":357,"o":"m 240 0 l 129 0 l 129 694 l 240 694 l 240 0 m 357 1042 l 221 810 l 131 810 l 236 1042 l 357 1042 z "},"î":{"ha":369,"x_min":-35,"x_max":404,"o":"m 240 0 l 129 0 l 129 694 l 240 694 l 240 0 m 303 800 l 185 954 l 67 800 l -35 800 l 121 1032 l 249 1032 l 404 800 l 303 800 z "},"ï":{"ha":369,"x_min":-6,"x_max":375,"o":"m 74 808 q 17 831 39 808 q -6 888 -6 853 q 17 945 -6 924 q 74 967 39 967 q 132 945 110 967 q 154 888 154 924 q 132 830 154 851 q 74 808 110 808 m 296 808 q 238 830 260 808 q 215 888 215 851 q 238 945 215 924 q 296 967 260 967 q 353 945 332 967 q 375 888 375 924 q 353 831 375 853 q 296 808 332 808 m 240 0 l 129 0 l 129 694 l 240 694 l 240 0 z "},"ì":{"ha":369,"x_min":17,"x_max":243,"o":"m 240 0 l 129 0 l 129 694 l 240 694 l 240 0 m 243 810 l 153 810 l 17 1042 l 138 1042 l 243 810 z "},"ĳ":{"ha":739,"x_min":101,"x_max":638,"o":"m 185 828 q 124 851 147 828 q 101 911 101 874 q 124 972 101 949 q 185 994 147 994 q 245 972 222 994 q 268 911 268 949 q 245 851 268 874 q 185 828 222 828 m 240 0 l 129 0 l 129 694 l 240 694 l 240 0 m 554 994 q 613 970 589 994 q 638 911 638 946 q 613 852 638 876 q 554 828 589 828 q 495 852 519 828 q 471 911 471 876 q 495 970 471 946 q 554 994 519 994 m 610 -71 q 547 -244 610 -189 q 399 -299 483 -299 q 321 -286 357 -299 q 260 -253 285 -274 l 283 -147 q 397 -190 332 -190 q 499 -60 499 -190 l 499 694 l 610 694 l 610 -71 z "},"ī":{"ha":369,"x_min":31,"x_max":339,"o":"m 339 828 l 31 828 l 31 921 l 339 921 l 339 828 m 240 0 l 129 0 l 129 694 l 240 694 l 240 0 z "},"į":{"ha":369,"x_min":11,"x_max":290,"o":"m 185 828 q 124 851 147 828 q 101 911 101 874 q 124 972 101 949 q 185 994 147 994 q 245 972 222 994 q 268 911 268 949 q 245 851 268 874 q 185 828 222 828 m 290 -269 q 172 -299 244 -299 q 55 -262 99 -299 q 11 -162 11 -225 q 40 -74 11 -114 q 129 3 69 -33 l 129 694 l 240 694 l 240 0 q 132 -78 161 -44 q 103 -151 103 -111 q 124 -201 103 -182 q 182 -221 144 -221 q 226 -215 203 -221 q 264 -200 249 -210 l 290 -269 z "},"j":{"ha":369,"x_min":-110,"x_max":268,"o":"m 185 994 q 244 970 219 994 q 268 911 268 946 q 244 852 268 876 q 185 828 219 828 q 126 852 150 828 q 101 911 101 876 q 126 970 101 946 q 185 994 150 994 m 240 -71 q 177 -244 240 -189 q 29 -299 114 -299 q -49 -286 -12 -299 q -110 -253 -85 -274 l -86 -147 q 28 -190 -37 -190 q 129 -60 129 -190 l 129 694 l 240 694 l 240 -71 z "},"k":{"ha":788,"x_min":129,"x_max":756,"o":"m 388 343 l 240 196 l 240 0 l 129 0 l 129 1014 l 240 1014 l 240 335 l 600 694 l 739 694 l 468 424 l 756 0 l 621 0 l 388 343 z "},"l":{"ha":425,"x_min":124,"x_max":411,"o":"m 235 186 q 251 113 235 133 q 310 93 267 93 q 360 97 339 93 q 411 113 382 101 l 393 6 q 290 -14 347 -14 q 165 32 206 -14 q 124 172 124 78 l 124 1014 l 235 1014 l 235 186 z "},"ĺ":{"ha":438,"x_min":124,"x_max":411,"o":"m 303 1292 l 218 1111 l 129 1111 l 181 1292 l 303 1292 m 235 186 q 251 113 235 133 q 310 93 267 93 q 360 97 339 93 q 411 113 382 101 l 393 6 q 290 -14 347 -14 q 165 32 206 -14 q 124 172 124 78 l 124 1014 l 235 1014 l 235 186 z "},"ľ":{"ha":438,"x_min":124,"x_max":447,"o":"m 235 186 q 251 113 235 133 q 310 93 267 93 q 360 97 339 93 q 411 113 382 101 l 393 6 q 290 -14 347 -14 q 165 32 206 -14 q 124 172 124 78 l 124 1014 l 235 1014 l 235 186 m 390 740 l 314 740 l 342 1014 l 447 1014 l 390 740 z "},"ŀ":{"ha":565,"x_min":124,"x_max":554,"o":"m 235 186 q 251 113 235 133 q 310 93 267 93 q 360 97 339 93 q 411 113 382 101 l 393 6 q 290 -14 347 -14 q 165 32 206 -14 q 124 172 124 78 l 124 1014 l 235 1014 l 235 186 m 464 583 q 529 558 504 583 q 554 493 554 533 q 529 428 554 453 q 464 403 504 403 q 399 428 424 403 q 374 493 374 453 q 399 558 374 533 q 464 583 424 583 z "},"ł":{"ha":517,"x_min":54,"x_max":475,"o":"m 374 93 q 424 97 403 93 q 475 113 446 101 l 457 6 q 354 -14 411 -14 q 228 32 269 -14 q 188 172 188 78 l 188 403 l 54 318 l 54 433 l 188 518 l 188 1014 l 299 1014 l 299 589 l 465 694 l 465 579 l 299 474 l 299 186 q 315 113 299 133 q 374 93 331 93 z "},"m":{"ha":1324,"x_min":129,"x_max":1201,"o":"m 936 708 q 1066 680 1006 708 q 1164 592 1126 651 q 1201 444 1201 532 l 1201 0 l 1090 0 l 1090 433 q 1045 567 1090 524 q 926 611 1000 611 q 824 584 871 611 q 749 505 778 557 q 721 381 721 453 l 721 0 l 610 0 l 610 433 q 565 567 610 524 q 446 611 519 611 q 349 585 396 611 q 271 506 301 560 q 240 371 240 451 l 240 0 l 129 0 l 129 694 l 226 694 l 233 586 q 328 678 269 647 q 456 708 388 708 q 597 674 532 708 q 694 572 661 639 q 794 674 725 639 q 936 708 864 708 z "},"n":{"ha":860,"x_min":129,"x_max":738,"o":"m 467 708 q 661 640 585 708 q 738 444 738 572 l 738 0 l 626 0 l 626 406 q 580 563 626 514 q 456 611 533 611 q 351 587 400 611 q 272 508 303 563 q 240 369 240 453 l 240 0 l 129 0 l 129 694 l 226 694 l 233 586 q 329 678 268 649 q 467 708 390 708 z "},"ń":{"ha":860,"x_min":129,"x_max":738,"o":"m 467 708 q 661 640 585 708 q 738 444 738 572 l 738 0 l 626 0 l 626 406 q 580 563 626 514 q 456 611 533 611 q 351 587 400 611 q 272 508 303 563 q 240 369 240 453 l 240 0 l 129 0 l 129 694 l 226 694 l 233 586 q 329 678 268 649 q 467 708 390 708 m 600 1042 l 464 810 l 374 810 l 479 1042 l 600 1042 z "},"ň":{"ha":860,"x_min":129,"x_max":738,"o":"m 467 708 q 661 640 585 708 q 738 444 738 572 l 738 0 l 626 0 l 626 406 q 580 563 626 514 q 456 611 533 611 q 351 587 400 611 q 272 508 303 563 q 240 369 240 453 l 240 0 l 129 0 l 129 694 l 226 694 l 233 586 q 329 678 268 649 q 467 708 390 708 m 506 810 l 378 810 l 222 1042 l 324 1042 l 442 888 l 560 1042 l 661 1042 l 506 810 z "},"ñ":{"ha":860,"x_min":129,"x_max":738,"o":"m 467 708 q 661 640 585 708 q 738 444 738 572 l 738 0 l 626 0 l 626 406 q 580 563 626 514 q 456 611 533 611 q 351 587 400 611 q 272 508 303 563 q 240 369 240 453 l 240 0 l 129 0 l 129 694 l 226 694 l 233 586 q 329 678 268 649 q 467 708 390 708 m 692 996 q 536 810 676 810 q 469 824 496 810 q 413 867 443 839 q 376 895 390 886 q 344 904 363 904 q 300 881 315 904 q 276 808 285 857 l 189 808 q 234 948 196 901 q 346 994 272 994 q 412 979 385 994 q 469 936 439 964 q 505 909 490 918 q 535 900 519 900 q 580 924 564 900 q 604 996 596 949 l 692 996 z "},"o":{"ha":844,"x_min":86,"x_max":758,"o":"m 422 708 q 669 613 579 708 q 758 347 758 517 q 669 82 758 178 q 422 -14 579 -14 q 176 82 265 -14 q 86 347 86 178 q 176 613 86 517 q 422 708 265 708 m 422 613 q 257 542 317 613 q 197 347 197 471 q 257 153 197 224 q 422 82 317 82 q 588 153 528 82 q 647 347 647 224 q 588 542 647 471 q 422 613 528 613 z "},"ó":{"ha":844,"x_min":86,"x_max":758,"o":"m 422 708 q 669 613 579 708 q 758 347 758 517 q 669 82 758 178 q 422 -14 579 -14 q 176 82 265 -14 q 86 347 86 178 q 176 613 86 517 q 422 708 265 708 m 422 613 q 257 542 317 613 q 197 347 197 471 q 257 153 197 224 q 422 82 317 82 q 588 153 528 82 q 647 347 647 224 q 588 542 647 471 q 422 613 528 613 m 581 1042 l 444 810 l 354 810 l 460 1042 l 581 1042 z "},"ô":{"ha":844,"x_min":86,"x_max":758,"o":"m 422 708 q 669 613 579 708 q 758 347 758 517 q 669 82 758 178 q 422 -14 579 -14 q 176 82 265 -14 q 86 347 86 178 q 176 613 86 517 q 422 708 265 708 m 422 613 q 257 542 317 613 q 197 347 197 471 q 257 153 197 224 q 422 82 317 82 q 588 153 528 82 q 647 347 647 224 q 588 542 647 471 q 422 613 528 613 m 540 800 l 422 954 l 304 800 l 203 800 l 358 1032 l 486 1032 l 642 800 l 540 800 z "},"ö":{"ha":844,"x_min":86,"x_max":758,"o":"m 422 708 q 669 613 579 708 q 758 347 758 517 q 669 82 758 178 q 422 -14 579 -14 q 176 82 265 -14 q 86 347 86 178 q 176 613 86 517 q 422 708 265 708 m 422 613 q 257 542 317 613 q 197 347 197 471 q 257 153 197 224 q 422 82 317 82 q 588 153 528 82 q 647 347 647 224 q 588 542 647 471 q 422 613 528 613 m 288 967 q 345 945 324 967 q 367 888 367 924 q 345 831 367 853 q 288 808 324 808 q 231 831 253 808 q 208 888 208 853 q 231 945 208 924 q 288 967 253 967 m 557 967 q 615 945 593 967 q 636 888 636 924 q 615 831 636 853 q 557 808 593 808 q 500 831 522 808 q 478 888 478 853 q 500 945 478 924 q 557 967 522 967 z "},"ò":{"ha":844,"x_min":86,"x_max":758,"o":"m 422 708 q 669 613 579 708 q 758 347 758 517 q 669 82 758 178 q 422 -14 579 -14 q 176 82 265 -14 q 86 347 86 178 q 176 613 86 517 q 422 708 265 708 m 422 613 q 257 542 317 613 q 197 347 197 471 q 257 153 197 224 q 422 82 317 82 q 588 153 528 82 q 647 347 647 224 q 588 542 647 471 q 422 613 528 613 m 481 810 l 390 810 l 254 1042 l 375 1042 l 481 810 z "},"ő":{"ha":844,"x_min":86,"x_max":758,"o":"m 422 708 q 669 613 579 708 q 758 347 758 517 q 669 82 758 178 q 422 -14 579 -14 q 176 82 265 -14 q 86 347 86 178 q 176 613 86 517 q 422 708 265 708 m 422 613 q 257 542 317 613 q 197 347 197 471 q 257 153 197 224 q 422 82 317 82 q 588 153 528 82 q 647 347 647 224 q 588 542 647 471 q 422 613 528 613 m 317 810 l 226 810 l 332 1042 l 453 1042 l 317 810 m 561 810 l 471 810 l 576 1042 l 697 1042 l 561 810 z "},"ō":{"ha":844,"x_min":86,"x_max":758,"o":"m 422 708 q 669 613 579 708 q 758 347 758 517 q 669 82 758 178 q 422 -14 579 -14 q 176 82 265 -14 q 86 347 86 178 q 176 613 86 517 q 422 708 265 708 m 422 613 q 257 542 317 613 q 197 347 197 471 q 257 153 197 224 q 422 82 317 82 q 588 153 528 82 q 647 347 647 224 q 588 542 647 471 q 422 613 528 613 m 664 828 l 181 828 l 181 921 l 664 921 l 664 828 z "},"ø":{"ha":846,"x_min":85,"x_max":765,"o":"m 422 708 q 618 656 538 708 l 672 726 l 765 726 l 674 607 q 758 347 758 511 q 669 82 758 178 q 422 -14 579 -14 q 240 31 317 -14 l 178 -51 l 85 -51 l 181 76 q 86 347 86 174 q 176 613 86 517 q 422 708 265 708 m 249 164 l 299 232 l 556 572 q 422 613 500 613 q 257 542 317 613 q 197 347 197 471 q 247 164 197 236 l 249 164 m 422 82 q 588 153 528 82 q 647 347 647 224 q 606 517 647 450 l 604 517 l 560 456 l 303 114 q 422 82 351 82 z "},"õ":{"ha":844,"x_min":86,"x_max":758,"o":"m 422 708 q 669 613 579 708 q 758 347 758 517 q 669 82 758 178 q 422 -14 579 -14 q 176 82 265 -14 q 86 347 86 178 q 176 613 86 517 q 422 708 265 708 m 422 613 q 257 542 317 613 q 197 347 197 471 q 257 153 197 224 q 422 82 317 82 q 588 153 528 82 q 647 347 647 224 q 588 542 647 471 q 422 613 528 613 m 672 996 q 517 810 657 810 q 450 824 476 810 q 393 867 424 839 q 357 895 371 886 q 325 904 343 904 q 281 881 296 904 q 257 808 265 857 l 169 808 q 215 948 176 901 q 326 994 253 994 q 392 979 365 994 q 450 936 419 964 q 485 909 471 918 q 515 900 500 900 q 560 924 544 900 q 585 996 576 949 l 672 996 z "},"œ":{"ha":1374,"x_min":86,"x_max":1290,"o":"m 1290 383 q 1285 306 1290 344 l 761 306 q 831 142 771 200 q 988 83 892 83 q 1115 110 1064 83 q 1183 186 1165 136 l 1276 138 q 1165 25 1235 64 q 988 -14 1096 -14 q 819 27 890 -14 q 708 144 749 68 q 597 27 669 68 q 426 -14 525 -14 q 176 82 267 -14 q 86 347 86 178 q 176 613 86 517 q 426 708 267 708 q 597 668 525 708 q 708 553 668 628 q 814 668 744 628 q 979 708 883 708 q 1147 665 1076 708 q 1254 549 1218 622 q 1290 383 1290 475 m 426 83 q 592 153 532 83 q 651 347 651 224 q 592 541 651 471 q 426 611 532 611 q 261 541 321 611 q 201 347 201 471 q 261 153 201 224 q 426 83 321 83 m 979 611 q 831 557 888 611 q 763 404 775 503 l 1183 404 q 1119 556 1172 501 q 979 611 1067 611 z "},"p":{"ha":875,"x_min":129,"x_max":788,"o":"m 471 708 q 702 612 617 708 q 788 347 788 515 q 702 83 788 179 q 471 -14 617 -14 q 334 19 394 -14 q 240 108 274 53 l 240 -292 l 129 -292 l 129 694 l 226 694 l 233 574 q 327 672 264 635 q 471 708 390 708 m 458 83 q 618 155 560 83 q 676 347 676 226 q 618 540 676 468 q 458 611 560 611 q 299 542 358 611 q 240 356 240 472 l 240 339 q 299 153 240 222 q 458 83 358 83 z "},"þ":{"ha":875,"x_min":129,"x_max":788,"o":"m 471 708 q 702 612 617 708 q 788 347 788 515 q 702 83 788 179 q 471 -14 617 -14 q 335 16 394 -14 q 240 96 276 46 l 240 -292 l 129 -292 l 129 1014 l 240 1014 l 240 599 q 335 678 276 649 q 471 708 394 708 m 458 83 q 618 155 560 83 q 676 347 676 226 q 618 540 676 468 q 458 611 560 611 q 299 542 358 611 q 240 356 240 472 l 240 339 q 299 153 240 222 q 458 83 358 83 z "},"q":{"ha":876,"x_min":89,"x_max":747,"o":"m 747 694 l 747 -292 l 636 -292 l 636 108 q 542 19 603 53 q 406 -14 482 -14 q 174 83 260 -14 q 89 347 89 179 q 174 612 89 515 q 406 708 260 708 q 549 672 486 708 q 643 574 613 635 l 650 694 l 747 694 m 418 83 q 577 153 518 83 q 636 339 636 222 l 636 356 q 577 542 636 472 q 418 611 518 611 q 258 540 317 611 q 200 347 200 468 q 258 155 200 226 q 418 83 317 83 z "},"r":{"ha":567,"x_min":129,"x_max":533,"o":"m 457 708 q 533 694 507 708 l 511 586 q 424 604 478 604 q 337 578 379 604 q 267 501 294 553 q 240 375 240 449 l 240 0 l 129 0 l 129 694 l 219 694 l 235 581 q 457 708 293 708 z "},"ŕ":{"ha":567,"x_min":129,"x_max":533,"o":"m 457 708 q 533 694 507 708 l 511 586 q 424 604 478 604 q 337 578 379 604 q 267 501 294 553 q 240 375 240 449 l 240 0 l 129 0 l 129 694 l 219 694 l 235 581 q 457 708 293 708 m 464 1042 l 328 810 l 238 810 l 343 1042 l 464 1042 z "},"ř":{"ha":567,"x_min":86,"x_max":533,"o":"m 457 708 q 533 694 507 708 l 511 586 q 424 604 478 604 q 337 578 379 604 q 267 501 294 553 q 240 375 240 449 l 240 0 l 129 0 l 129 694 l 219 694 l 235 581 q 457 708 293 708 m 369 810 l 242 810 l 86 1042 l 188 1042 l 306 888 l 424 1042 l 525 1042 l 369 810 z "},"s":{"ha":732,"x_min":67,"x_max":656,"o":"m 365 -14 q 185 26 265 -14 q 67 143 104 65 l 157 206 q 239 114 181 144 q 376 83 297 83 q 501 113 458 83 q 544 186 544 142 q 504 251 544 226 q 363 293 464 275 q 204 337 263 311 q 119 402 146 363 q 93 500 93 442 q 126 604 93 557 q 222 680 160 651 q 367 708 285 708 q 545 667 478 708 q 642 542 613 626 l 547 486 q 480 582 525 553 q 367 611 435 611 q 251 581 299 611 q 204 510 204 550 q 245 439 204 464 q 392 396 286 414 q 596 325 536 372 q 656 192 656 278 q 620 85 656 132 q 519 13 585 39 q 365 -14 453 -14 z "},"ś":{"ha":732,"x_min":67,"x_max":656,"o":"m 365 -14 q 185 26 265 -14 q 67 143 104 65 l 157 206 q 239 114 181 144 q 376 83 297 83 q 501 113 458 83 q 544 186 544 142 q 504 251 544 226 q 363 293 464 275 q 204 337 263 311 q 119 402 146 363 q 93 500 93 442 q 126 604 93 557 q 222 680 160 651 q 367 708 285 708 q 545 667 478 708 q 642 542 613 626 l 547 486 q 480 582 525 553 q 367 611 435 611 q 251 581 299 611 q 204 510 204 550 q 245 439 204 464 q 392 396 286 414 q 596 325 536 372 q 656 192 656 278 q 620 85 656 132 q 519 13 585 39 q 365 -14 453 -14 m 525 1042 l 389 810 l 299 810 l 404 1042 l 525 1042 z "},"š":{"ha":732,"x_min":67,"x_max":656,"o":"m 365 -14 q 185 26 265 -14 q 67 143 104 65 l 157 206 q 239 114 181 144 q 376 83 297 83 q 501 113 458 83 q 544 186 544 142 q 504 251 544 226 q 363 293 464 275 q 204 337 263 311 q 119 402 146 363 q 93 500 93 442 q 126 604 93 557 q 222 680 160 651 q 367 708 285 708 q 545 667 478 708 q 642 542 613 626 l 547 486 q 480 582 525 553 q 367 611 435 611 q 251 581 299 611 q 204 510 204 550 q 245 439 204 464 q 392 396 286 414 q 596 325 536 372 q 656 192 656 278 q 620 85 656 132 q 519 13 585 39 q 365 -14 453 -14 m 431 810 l 303 810 l 147 1042 l 249 1042 l 367 888 l 485 1042 l 586 1042 l 431 810 z "},"ß":{"ha":861,"x_min":129,"x_max":778,"o":"m 518 543 q 667 503 608 543 q 751 403 725 464 q 778 274 778 342 q 743 132 778 197 q 639 26 708 67 q 471 -14 569 -14 q 385 -1 426 -14 q 325 32 344 13 l 357 122 q 476 88 400 88 q 620 142 569 88 q 671 286 671 197 q 609 432 671 382 q 429 482 547 482 l 375 482 l 375 586 l 429 586 q 574 633 521 586 q 628 756 628 681 q 442 917 628 917 q 285 854 329 917 q 240 657 240 792 l 240 0 l 129 0 l 129 690 q 203 933 129 846 q 453 1021 278 1021 q 618 982 553 1021 q 713 884 683 943 q 742 763 742 825 q 718 663 742 713 q 644 579 694 613 q 518 546 593 546 l 518 543 z "},"ſ":{"ha":361,"x_min":124,"x_max":418,"o":"m 124 811 q 311 1021 124 1021 q 418 989 389 1021 l 396 899 q 333 919 369 919 q 235 800 235 919 l 235 0 l 124 0 l 124 811 z "},"t":{"ha":582,"x_min":43,"x_max":554,"o":"m 554 49 q 375 -14 485 -14 q 237 32 290 -14 q 182 172 183 78 l 182 599 l 43 599 l 43 694 l 182 694 l 182 861 l 293 892 l 293 694 l 550 694 l 550 599 l 293 599 l 293 192 q 322 116 293 142 q 397 90 350 90 q 515 142 464 90 l 554 49 z "},"ť":{"ha":582,"x_min":43,"x_max":554,"o":"m 454 792 l 378 792 l 406 1065 l 511 1065 l 454 792 m 554 49 q 375 -14 485 -14 q 237 32 290 -14 q 182 172 183 78 l 182 599 l 43 599 l 43 694 l 182 694 l 182 861 l 293 892 l 293 694 l 550 694 l 550 599 l 293 599 l 293 192 q 322 116 293 142 q 397 90 350 90 q 515 142 464 90 l 554 49 z "},"u":{"ha":860,"x_min":122,"x_max":731,"o":"m 731 694 l 731 0 l 633 0 l 626 106 q 378 -14 557 -14 q 194 49 265 -14 q 122 240 122 111 l 122 694 l 233 694 l 233 269 q 275 126 233 168 q 397 83 317 83 q 556 142 493 83 q 619 317 619 200 l 619 694 l 731 694 z "},"ú":{"ha":860,"x_min":122,"x_max":731,"o":"m 731 694 l 731 0 l 633 0 l 626 106 q 378 -14 557 -14 q 194 49 265 -14 q 122 240 122 111 l 122 694 l 233 694 l 233 269 q 275 126 233 168 q 397 83 317 83 q 556 142 493 83 q 619 317 619 200 l 619 694 l 731 694 m 586 1042 l 450 810 l 360 810 l 465 1042 l 586 1042 z "},"û":{"ha":860,"x_min":122,"x_max":731,"o":"m 731 694 l 731 0 l 633 0 l 626 106 q 378 -14 557 -14 q 194 49 265 -14 q 122 240 122 111 l 122 694 l 233 694 l 233 269 q 275 126 233 168 q 397 83 317 83 q 556 142 493 83 q 619 317 619 200 l 619 694 l 731 694 m 546 800 l 428 954 l 310 800 l 208 800 l 364 1032 l 492 1032 l 647 800 l 546 800 z "},"ü":{"ha":860,"x_min":122,"x_max":731,"o":"m 731 694 l 731 0 l 633 0 l 626 106 q 378 -14 557 -14 q 194 49 265 -14 q 122 240 122 111 l 122 694 l 233 694 l 233 269 q 275 126 233 168 q 397 83 317 83 q 556 142 493 83 q 619 317 619 200 l 619 694 l 731 694 m 293 967 q 351 945 329 967 q 372 888 372 924 q 351 831 372 853 q 293 808 329 808 q 236 831 258 808 q 214 888 214 853 q 236 945 214 924 q 293 967 258 967 m 563 967 q 620 945 599 967 q 642 888 642 924 q 620 831 642 853 q 563 808 599 808 q 506 831 528 808 q 483 888 483 853 q 506 945 483 924 q 563 967 528 967 z "},"ù":{"ha":860,"x_min":122,"x_max":731,"o":"m 731 694 l 731 0 l 633 0 l 626 106 q 378 -14 557 -14 q 194 49 265 -14 q 122 240 122 111 l 122 694 l 233 694 l 233 269 q 275 126 233 168 q 397 83 317 83 q 556 142 493 83 q 619 317 619 200 l 619 694 l 731 694 m 486 810 l 396 810 l 260 1042 l 381 1042 l 486 810 z "},"ű":{"ha":860,"x_min":122,"x_max":731,"o":"m 731 694 l 731 0 l 633 0 l 626 106 q 378 -14 557 -14 q 194 49 265 -14 q 122 240 122 111 l 122 694 l 233 694 l 233 269 q 275 126 233 168 q 397 83 317 83 q 556 142 493 83 q 619 317 619 200 l 619 694 l 731 694 m 322 810 l 232 810 l 338 1042 l 458 1042 l 322 810 m 567 810 l 476 810 l 582 1042 l 703 1042 l 567 810 z "},"ū":{"ha":860,"x_min":122,"x_max":731,"o":"m 731 694 l 731 0 l 633 0 l 626 106 q 378 -14 557 -14 q 194 49 265 -14 q 122 240 122 111 l 122 694 l 233 694 l 233 269 q 275 126 233 168 q 397 83 317 83 q 556 142 493 83 q 619 317 619 200 l 619 694 l 731 694 m 669 828 l 186 828 l 186 921 l 669 921 l 669 828 z "},"ģ":{"ha":739,"x_min":64,"x_max":742,"o":"m 438 815 l 315 815 l 413 1081 l 496 1081 l 438 815 m 517 89 q 671 44 615 89 q 726 -76 726 0 q 681 -194 726 -143 q 556 -272 635 -244 q 383 -299 478 -299 q 144 -248 225 -299 q 64 -115 64 -197 q 97 -32 64 -68 q 186 19 129 4 q 117 72 143 40 q 92 147 92 104 q 119 233 92 199 q 196 283 147 267 q 120 363 146 314 q 94 474 94 413 q 131 595 94 542 q 232 678 167 649 q 379 708 297 708 q 521 681 457 708 q 717 822 560 822 l 742 725 q 576 649 606 725 q 641 572 618 617 q 664 474 664 528 q 628 352 664 406 q 526 269 592 299 q 379 239 461 239 q 272 251 318 239 q 213 221 231 242 q 194 164 194 200 q 219 108 194 128 q 286 89 244 89 l 517 89 m 379 618 q 258 578 307 618 q 210 474 210 538 q 258 369 210 410 q 379 329 307 329 q 500 369 451 329 q 549 474 549 410 q 500 578 549 538 q 379 618 451 618 m 396 -206 q 563 -172 501 -206 q 624 -89 624 -137 q 592 -28 624 -49 q 486 -7 561 -7 l 300 -7 q 201 -30 236 -7 q 167 -93 167 -53 q 225 -176 167 -146 q 396 -206 283 -206 z "},"ķ":{"ha":788,"x_min":129,"x_max":756,"o":"m 388 343 l 240 196 l 240 0 l 129 0 l 129 1014 l 240 1014 l 240 335 l 600 694 l 739 694 l 468 424 l 756 0 l 621 0 l 388 343 m 389 -329 l 301 -329 l 363 -106 l 479 -106 l 389 -329 z "},"ļ":{"ha":425,"x_min":124,"x_max":411,"o":"m 235 186 q 251 113 235 133 q 310 93 267 93 q 360 97 339 93 q 411 113 382 101 l 393 6 q 290 -14 347 -14 q 165 32 206 -14 q 124 172 124 78 l 124 1014 l 235 1014 l 235 186 m 249 -329 l 161 -329 l 222 -106 l 339 -106 l 249 -329 z "},"ņ":{"ha":860,"x_min":129,"x_max":738,"o":"m 467 708 q 661 640 585 708 q 738 444 738 572 l 738 0 l 626 0 l 626 406 q 580 563 626 514 q 456 611 533 611 q 351 587 400 611 q 272 508 303 563 q 240 369 240 453 l 240 0 l 129 0 l 129 694 l 226 694 l 233 586 q 329 678 268 649 q 467 708 390 708 m 426 -329 l 339 -329 l 400 -106 l 517 -106 l 426 -329 z "},"ŗ":{"ha":567,"x_min":78,"x_max":533,"o":"m 457 708 q 533 694 507 708 l 511 586 q 424 604 478 604 q 337 578 379 604 q 267 501 294 553 q 240 375 240 449 l 240 0 l 129 0 l 129 694 l 219 694 l 235 581 q 457 708 293 708 m 165 -329 l 78 -329 l 139 -106 l 256 -106 l 165 -329 z "},"ş":{"ha":732,"x_min":67,"x_max":656,"o":"m 656 192 q 601 64 656 117 q 453 -7 547 11 q 512 -73 492 -35 q 532 -150 532 -111 q 488 -255 532 -211 q 371 -299 444 -299 q 218 -250 272 -299 l 260 -174 q 303 -203 278 -192 q 356 -215 328 -215 q 412 -193 389 -215 q 435 -135 435 -171 q 413 -69 435 -96 q 333 -12 392 -42 q 173 33 244 -7 q 67 143 101 72 l 157 206 q 239 114 181 144 q 376 83 297 83 q 501 113 458 83 q 544 186 544 142 q 504 251 544 226 q 363 293 464 275 q 204 337 263 311 q 119 402 146 363 q 93 500 93 442 q 126 604 93 557 q 222 680 160 651 q 367 708 285 708 q 545 667 478 708 q 642 542 613 626 l 547 486 q 480 582 525 553 q 367 611 435 611 q 251 581 299 611 q 204 510 204 550 q 245 439 204 464 q 392 396 286 414 q 596 325 536 372 q 656 192 656 278 z "},"ţ":{"ha":610,"x_min":43,"x_max":554,"o":"m 433 -8 q 490 -75 471 -37 q 508 -150 508 -112 q 465 -255 508 -211 q 347 -299 421 -299 q 194 -250 249 -299 l 236 -174 q 279 -203 254 -192 q 332 -215 304 -215 q 388 -193 365 -215 q 411 -135 411 -171 q 388 -66 411 -94 q 297 -3 364 -37 q 214 58 244 15 q 182 172 183 101 l 182 599 l 43 599 l 43 694 l 182 694 l 182 861 l 293 892 l 293 694 l 550 694 l 550 599 l 293 599 l 293 192 q 322 116 293 142 q 397 90 350 90 q 515 142 464 90 l 554 49 q 433 -8 503 4 z "},"ș":{"ha":732,"x_min":67,"x_max":656,"o":"m 365 -14 q 185 26 265 -14 q 67 143 104 65 l 157 206 q 239 114 181 144 q 376 83 297 83 q 501 113 458 83 q 544 186 544 142 q 504 251 544 226 q 363 293 464 275 q 204 337 263 311 q 119 402 146 363 q 93 500 93 442 q 126 604 93 557 q 222 680 160 651 q 367 708 285 708 q 545 667 478 708 q 642 542 613 626 l 547 486 q 480 582 525 553 q 367 611 435 611 q 251 581 299 611 q 204 510 204 550 q 245 439 204 464 q 392 396 286 414 q 596 325 536 372 q 656 192 656 278 q 620 85 656 132 q 519 13 585 39 q 365 -14 453 -14 m 339 -329 l 251 -329 l 313 -106 l 429 -106 l 339 -329 z "},"ț":{"ha":582,"x_min":43,"x_max":554,"o":"m 554 49 q 375 -14 485 -14 q 237 32 290 -14 q 182 172 183 78 l 182 599 l 43 599 l 43 694 l 182 694 l 182 861 l 293 892 l 293 694 l 550 694 l 550 599 l 293 599 l 293 192 q 322 116 293 142 q 397 90 350 90 q 515 142 464 90 l 554 49 m 307 -329 l 219 -329 l 281 -106 l 397 -106 l 307 -329 z "},"ų":{"ha":860,"x_min":122,"x_max":746,"o":"m 746 -271 q 695 -291 726 -283 q 633 -299 664 -299 q 524 -264 561 -299 q 486 -169 486 -229 q 522 -67 486 -110 q 639 14 558 -25 l 625 125 q 517 23 583 60 q 378 -14 451 -14 q 194 49 265 -14 q 122 240 122 111 l 122 694 l 233 694 l 233 269 q 274 126 233 168 q 390 83 315 83 q 503 113 450 83 q 588 199 556 143 q 619 328 619 254 l 619 694 l 731 694 l 731 0 q 608 -80 643 -46 q 572 -153 572 -114 q 647 -219 572 -219 q 724 -201 694 -219 l 746 -271 z "},"ů":{"ha":860,"x_min":122,"x_max":731,"o":"m 731 694 l 731 0 l 633 0 l 626 106 q 378 -14 557 -14 q 194 49 265 -14 q 122 240 122 111 l 122 694 l 233 694 l 233 269 q 275 126 233 168 q 397 83 317 83 q 556 142 493 83 q 619 317 619 200 l 619 694 l 731 694 m 424 1128 q 549 1083 501 1128 q 597 964 597 1038 q 549 844 597 890 q 424 799 501 799 q 297 844 346 799 q 249 964 249 890 q 297 1083 249 1038 q 424 1128 346 1128 m 424 1060 q 353 1033 381 1060 q 325 964 325 1006 q 353 895 325 922 q 424 868 381 868 q 494 895 467 868 q 522 964 522 922 q 494 1033 522 1006 q 424 1060 467 1060 z "},"v":{"ha":722,"x_min":17,"x_max":706,"o":"m 706 694 l 417 0 l 306 0 l 17 694 l 143 694 l 363 113 l 589 694 l 706 694 z "},"w":{"ha":1189,"x_min":51,"x_max":1138,"o":"m 1138 694 l 896 0 l 785 0 l 589 553 l 404 0 l 293 0 l 51 694 l 175 694 l 350 129 l 539 694 l 650 694 l 839 129 l 1014 694 l 1138 694 z "},"x":{"ha":740,"x_min":40,"x_max":694,"o":"m 558 0 l 367 268 l 169 0 l 40 0 l 307 350 l 57 694 l 196 694 l 379 438 l 560 694 l 690 694 l 439 354 l 694 0 l 558 0 z "},"y":{"ha":743,"x_min":21,"x_max":719,"o":"m 393 -117 q 303 -258 353 -217 q 174 -299 253 -299 q 85 -285 121 -299 q 21 -240 50 -271 l 60 -146 q 172 -201 100 -201 q 244 -177 213 -201 q 299 -89 275 -153 l 335 1 l 44 694 l 171 694 l 344 242 l 388 118 l 438 256 l 600 694 l 719 694 l 393 -117 z "},"ý":{"ha":743,"x_min":21,"x_max":719,"o":"m 393 -117 q 303 -258 353 -217 q 174 -299 253 -299 q 85 -285 121 -299 q 21 -240 50 -271 l 60 -146 q 172 -201 100 -201 q 244 -177 213 -201 q 299 -89 275 -153 l 335 1 l 44 694 l 171 694 l 344 242 l 388 118 l 438 256 l 600 694 l 719 694 l 393 -117 m 538 1042 l 401 810 l 311 810 l 417 1042 l 538 1042 z "},"ÿ":{"ha":743,"x_min":21,"x_max":719,"o":"m 393 -117 q 303 -258 353 -217 q 174 -299 253 -299 q 85 -285 121 -299 q 21 -240 50 -271 l 60 -146 q 172 -201 100 -201 q 244 -177 213 -201 q 299 -89 275 -153 l 335 1 l 44 694 l 171 694 l 344 242 l 388 118 l 438 256 l 600 694 l 719 694 l 393 -117 m 244 967 q 302 945 281 967 q 324 888 324 924 q 302 831 324 853 q 244 808 281 808 q 188 831 210 808 q 165 888 165 853 q 188 945 165 924 q 244 967 210 967 m 514 967 q 572 945 550 967 q 593 888 593 924 q 572 831 593 853 q 514 808 550 808 q 457 831 479 808 q 435 888 435 853 q 457 945 435 924 q 514 967 479 967 z "},"z":{"ha":742,"x_min":79,"x_max":665,"o":"m 79 85 l 443 511 l 531 601 l 407 599 l 83 599 l 83 694 l 654 694 l 654 610 l 290 183 l 204 93 l 339 96 l 665 96 l 665 0 l 79 0 l 79 85 z "},"ź":{"ha":742,"x_min":79,"x_max":665,"o":"m 79 85 l 443 511 l 531 601 l 407 599 l 83 599 l 83 694 l 654 694 l 654 610 l 290 183 l 204 93 l 339 96 l 665 96 l 665 0 l 79 0 l 79 85 m 508 1042 l 372 810 l 282 810 l 388 1042 l 508 1042 z "},"ž":{"ha":742,"x_min":79,"x_max":665,"o":"m 79 85 l 443 511 l 531 601 l 407 599 l 83 599 l 83 694 l 654 694 l 654 610 l 290 183 l 204 93 l 339 96 l 665 96 l 665 0 l 79 0 l 79 85 m 414 810 l 286 810 l 131 1042 l 232 1042 l 350 888 l 468 1042 l 569 1042 l 414 810 z "},"ż":{"ha":742,"x_min":79,"x_max":665,"o":"m 79 85 l 443 511 l 531 601 l 407 599 l 83 599 l 83 694 l 654 694 l 654 610 l 290 183 l 204 93 l 339 96 l 665 96 l 665 0 l 79 0 l 79 85 m 350 994 q 410 972 388 994 q 433 911 433 949 q 410 851 433 874 q 350 828 388 828 q 290 851 313 828 q 267 911 267 874 q 290 972 267 949 q 350 994 313 994 z "},"ﬁ":{"ha":915,"x_min":44,"x_max":814,"o":"m 294 694 l 526 694 l 526 599 l 294 599 l 294 0 l 183 0 l 183 599 l 44 599 l 44 694 l 183 694 l 183 811 q 242 964 183 907 q 411 1021 300 1021 q 480 1013 449 1021 q 529 989 511 1004 l 500 899 q 421 919 467 919 q 294 800 294 919 l 294 694 m 731 828 q 670 851 693 828 q 647 911 647 874 q 670 972 647 949 q 731 994 693 994 q 791 972 768 994 q 814 911 814 949 q 791 851 814 874 q 731 828 768 828 m 786 0 l 675 0 l 675 694 l 786 694 l 786 0 z "},"ﬂ":{"ha":971,"x_min":44,"x_max":957,"o":"m 294 694 l 526 694 l 526 599 l 294 599 l 294 0 l 183 0 l 183 599 l 44 599 l 44 694 l 183 694 l 183 811 q 242 964 183 907 q 411 1021 300 1021 q 480 1013 449 1021 q 529 989 511 1004 l 500 899 q 421 919 467 919 q 294 800 294 919 l 294 694 m 781 186 q 797 113 781 133 q 856 93 813 93 q 906 97 885 93 q 957 113 928 101 l 939 6 q 836 -14 893 -14 q 710 32 751 -14 q 669 172 669 78 l 669 1014 l 781 1014 l 781 186 z "},"ª":{"ha":531,"x_min":26,"x_max":507,"o":"m 474 522 q 507 528 496 522 l 500 467 q 446 454 472 454 q 385 472 410 454 q 353 524 361 489 q 283 473 329 492 q 179 454 238 454 q 67 484 108 454 q 26 569 26 514 q 70 663 26 628 q 207 715 114 699 l 336 738 l 336 757 q 309 824 336 800 q 233 849 282 849 q 153 829 186 849 q 103 764 121 810 l 35 804 q 103 891 51 858 q 238 924 156 924 q 381 882 332 924 q 431 760 431 840 l 431 565 q 474 522 431 522 m 204 529 q 295 555 254 529 q 336 622 336 581 l 336 675 l 238 656 q 150 627 176 643 q 124 581 124 611 q 143 541 124 553 q 204 529 163 529 m 36 353 l 481 353 l 481 279 l 36 279 l 36 353 z "},"º":{"ha":500,"x_min":32,"x_max":468,"o":"m 250 454 q 88 516 144 454 q 32 689 32 578 q 88 862 32 800 q 250 924 144 924 q 412 862 356 924 q 468 689 468 800 q 412 516 468 578 q 250 454 356 454 m 250 531 q 341 572 311 531 q 371 689 371 613 q 340 807 371 765 q 250 849 310 849 q 160 807 190 849 q 129 689 129 765 q 159 572 129 613 q 250 531 189 531 m 50 353 l 450 353 l 450 279 l 50 279 l 50 353 z "},"π":{"ha":1022,"x_min":43,"x_max":965,"o":"m 754 601 l 754 189 q 789 114 754 135 q 906 93 824 93 l 883 0 q 742 16 794 0 q 667 69 690 32 q 643 174 643 107 l 643 601 l 343 601 l 343 0 l 232 0 l 232 601 l 43 601 l 43 694 l 965 694 l 965 601 l 754 601 z "},"⁄":{"ha":344,"x_min":-214,"x_max":558,"o":"m 449 917 l 558 917 l -104 0 l -214 0 l 449 917 z "},"½":{"ha":1188,"x_min":14,"x_max":1147,"o":"m 263 924 l 263 372 l 165 372 l 165 721 q 168 821 165 749 q 96 769 136 790 q 14 740 56 747 l 14 824 q 105 862 54 832 q 176 924 156 892 l 263 924 m 785 917 l 894 917 l 232 0 l 122 0 l 785 917 m 735 61 q 863 154 826 125 q 998 278 963 233 q 1033 371 1033 324 q 1006 444 1033 417 q 926 472 978 472 q 841 438 872 472 q 807 343 810 404 l 719 374 q 782 505 725 457 q 931 553 839 553 q 1081 501 1028 553 q 1135 376 1135 450 q 1086 253 1135 315 q 933 119 1038 192 l 861 71 l 861 69 q 950 74 911 74 l 1147 74 l 1147 -6 l 735 -6 l 735 61 z "},"¼":{"ha":1094,"x_min":14,"x_max":1067,"o":"m 263 924 l 263 372 l 165 372 l 165 721 q 168 821 165 749 q 96 769 136 790 q 14 740 56 747 l 14 824 q 105 862 54 832 q 176 924 156 892 l 263 924 m 785 917 l 894 917 l 232 0 l 122 0 l 785 917 m 1067 132 l 968 132 l 968 -6 l 886 -6 l 886 132 l 610 132 l 610 183 l 863 546 l 968 546 l 968 201 l 1067 201 l 1067 132 m 886 201 l 886 360 q 890 465 886 414 l 886 465 q 842 390 861 419 l 704 201 l 886 201 z "},"¾":{"ha":1261,"x_min":33,"x_max":1233,"o":"m 251 931 q 392 890 342 931 q 443 781 443 849 q 408 688 443 722 q 333 650 374 653 l 333 649 q 418 613 381 647 q 456 521 456 579 q 397 407 456 450 q 247 364 339 364 q 33 497 76 364 l 126 539 q 164 467 135 490 q 246 444 193 444 q 324 469 294 444 q 354 535 354 493 q 246 613 354 613 l 213 613 l 213 682 l 242 682 q 315 703 290 682 q 340 765 340 725 q 316 828 340 807 q 246 850 292 850 q 176 829 203 850 q 140 767 149 808 l 50 799 q 121 897 67 864 q 251 931 175 931 m 951 917 l 1061 917 l 399 0 l 289 0 l 951 917 m 1233 132 l 1135 132 l 1135 -6 l 1053 -6 l 1053 132 l 776 132 l 776 183 l 1029 546 l 1135 546 l 1135 201 l 1233 201 l 1233 132 m 1053 201 l 1053 360 q 1057 465 1053 414 l 1053 465 q 1008 390 1028 419 l 871 201 l 1053 201 z "},"➀":{"ha":1264,"x_min":113,"x_max":1151,"o":"m 632 -56 q 360 9 478 -56 q 177 190 242 74 q 113 458 113 307 q 177 726 113 610 q 360 908 242 843 q 632 972 478 972 q 904 908 786 972 q 1087 726 1022 843 q 1151 458 1151 610 q 1087 190 1151 307 q 904 9 1022 74 q 632 -56 786 -56 m 632 28 q 855 82 758 28 q 1006 234 951 136 q 1060 458 1060 332 q 1006 683 1060 585 q 855 835 951 781 q 632 889 758 889 q 409 835 506 889 q 258 683 313 781 q 204 458 204 585 q 258 234 204 332 q 409 82 313 136 q 632 28 506 28 m 710 740 l 710 189 l 613 189 l 613 538 q 615 638 613 565 q 543 585 583 607 q 461 557 503 564 l 461 640 q 552 678 501 649 q 624 740 603 708 l 710 740 z "},"➁":{"ha":1264,"x_min":113,"x_max":1151,"o":"m 632 -56 q 360 9 478 -56 q 177 190 242 74 q 113 458 113 307 q 177 726 113 610 q 360 908 242 843 q 632 972 478 972 q 904 908 786 972 q 1087 726 1022 843 q 1151 458 1151 610 q 1087 190 1151 307 q 904 9 1022 74 q 632 -56 786 -56 m 632 28 q 855 82 758 28 q 1006 234 951 136 q 1060 458 1060 332 q 1006 683 1060 585 q 855 835 951 781 q 632 889 758 889 q 409 835 506 889 q 258 683 313 781 q 204 458 204 585 q 258 234 204 332 q 409 82 313 136 q 632 28 506 28 m 432 269 q 560 363 524 333 q 695 487 660 442 q 731 579 731 532 q 703 653 731 625 q 624 681 675 681 q 538 647 569 681 q 504 551 507 613 l 417 582 q 479 713 422 665 q 628 761 536 761 q 778 710 725 761 q 832 585 832 658 q 783 462 832 524 q 631 328 735 400 l 558 279 l 558 278 q 647 282 608 282 l 844 282 l 844 203 l 432 203 l 432 269 z "},"➂":{"ha":1264,"x_min":113,"x_max":1151,"o":"m 632 -56 q 360 9 478 -56 q 177 190 242 74 q 113 458 113 307 q 177 726 113 610 q 360 908 242 843 q 632 972 478 972 q 904 908 786 972 q 1087 726 1022 843 q 1151 458 1151 610 q 1087 190 1151 307 q 904 9 1022 74 q 632 -56 786 -56 m 632 28 q 855 82 758 28 q 1006 234 951 136 q 1060 458 1060 332 q 1006 683 1060 585 q 855 835 951 781 q 632 889 758 889 q 409 835 506 889 q 258 683 313 781 q 204 458 204 585 q 258 234 204 332 q 409 82 313 136 q 632 28 506 28 m 642 743 q 783 702 732 743 q 833 593 833 661 q 799 500 833 535 q 724 463 764 465 l 724 461 q 808 426 771 460 q 846 333 846 392 q 788 219 846 263 q 638 176 729 176 q 424 310 467 176 l 517 351 q 554 280 525 303 q 636 257 583 257 q 715 281 685 257 q 744 347 744 306 q 636 425 744 425 l 603 425 l 603 494 l 632 494 q 706 516 681 494 q 731 578 731 538 q 706 641 731 619 q 636 663 682 663 q 566 642 593 663 q 531 579 539 621 l 440 611 q 511 710 457 676 q 642 743 565 743 z "},"➃":{"ha":1264,"x_min":113,"x_max":1151,"o":"m 632 -56 q 360 9 478 -56 q 177 190 242 74 q 113 458 113 307 q 177 726 113 610 q 360 908 242 843 q 632 972 478 972 q 904 908 786 972 q 1087 726 1022 843 q 1151 458 1151 610 q 1087 190 1151 307 q 904 9 1022 74 q 632 -56 786 -56 m 632 28 q 855 82 758 28 q 1006 234 951 136 q 1060 458 1060 332 q 1006 683 1060 585 q 855 835 951 781 q 632 889 758 889 q 409 835 506 889 q 258 683 313 781 q 204 458 204 585 q 258 234 204 332 q 409 82 313 136 q 632 28 506 28 m 826 326 l 728 326 l 728 189 l 646 189 l 646 326 l 369 326 l 369 378 l 622 740 l 728 740 l 728 396 l 826 396 l 826 326 m 646 396 l 646 554 q 650 660 646 608 l 646 660 q 601 585 621 614 l 464 396 l 646 396 z "},"➄":{"ha":1264,"x_min":113,"x_max":1151,"o":"m 632 -56 q 360 9 478 -56 q 177 190 242 74 q 113 458 113 307 q 177 726 113 610 q 360 908 242 843 q 632 972 478 972 q 904 908 786 972 q 1087 726 1022 843 q 1151 458 1151 610 q 1087 190 1151 307 q 904 9 1022 74 q 632 -56 786 -56 m 632 28 q 855 82 758 28 q 1006 234 951 136 q 1060 458 1060 332 q 1006 683 1060 585 q 855 835 951 781 q 632 889 758 889 q 409 835 506 889 q 258 683 313 781 q 204 458 204 585 q 258 234 204 332 q 409 82 313 136 q 632 28 506 28 m 660 532 q 792 483 742 532 q 842 358 842 433 q 783 219 842 268 q 632 169 725 169 q 500 197 553 169 q 418 288 447 225 l 506 338 q 629 250 528 250 q 714 280 682 250 q 746 357 746 310 q 633 460 746 460 q 517 406 549 460 l 442 406 l 467 728 l 813 728 l 813 647 l 542 647 l 531 522 q 524 483 529 503 l 525 483 q 574 519 544 507 q 660 532 604 532 z "},"➅":{"ha":1264,"x_min":113,"x_max":1151,"o":"m 632 -56 q 360 9 478 -56 q 177 190 242 74 q 113 458 113 307 q 177 726 113 610 q 360 908 242 843 q 632 972 478 972 q 904 908 786 972 q 1087 726 1022 843 q 1151 458 1151 610 q 1087 190 1151 307 q 904 9 1022 74 q 632 -56 786 -56 m 632 28 q 855 82 758 28 q 1006 234 951 136 q 1060 458 1060 332 q 1006 683 1060 585 q 855 835 951 781 q 632 889 758 889 q 409 835 506 889 q 258 683 313 781 q 204 458 204 585 q 258 234 204 332 q 409 82 313 136 q 632 28 506 28 m 628 176 q 460 249 519 176 q 401 460 401 322 q 467 669 401 596 q 639 743 533 743 q 755 715 710 743 q 824 629 800 688 l 743 588 q 638 664 719 664 q 531 607 568 664 q 493 468 493 550 l 493 450 l 494 450 q 557 510 522 492 q 642 528 592 528 q 781 480 729 528 q 833 353 833 432 q 778 224 833 271 q 628 176 722 176 m 629 254 q 712 280 682 254 q 742 353 742 306 q 711 424 742 397 q 629 451 681 451 q 549 422 581 451 q 517 353 517 392 q 547 281 517 308 q 629 254 578 254 z "},"➆":{"ha":1264,"x_min":113,"x_max":1151,"o":"m 632 -56 q 360 9 478 -56 q 177 190 242 74 q 113 458 113 307 q 177 726 113 610 q 360 908 242 843 q 632 972 478 972 q 904 908 786 972 q 1087 726 1022 843 q 1151 458 1151 610 q 1087 190 1151 307 q 904 9 1022 74 q 632 -56 786 -56 m 632 28 q 855 82 758 28 q 1006 234 951 136 q 1060 458 1060 332 q 1006 683 1060 585 q 855 835 951 781 q 632 889 758 889 q 409 835 506 889 q 258 683 313 781 q 204 458 204 585 q 258 234 204 332 q 409 82 313 136 q 632 28 506 28 m 854 718 l 854 638 q 711 422 754 533 q 668 167 668 310 l 571 167 q 761 638 571 442 l 433 638 l 433 718 l 854 718 z "},"➇":{"ha":1264,"x_min":113,"x_max":1151,"o":"m 632 -56 q 360 9 478 -56 q 177 190 242 74 q 113 458 113 307 q 177 726 113 610 q 360 908 242 843 q 632 972 478 972 q 904 908 786 972 q 1087 726 1022 843 q 1151 458 1151 610 q 1087 190 1151 307 q 904 9 1022 74 q 632 -56 786 -56 m 632 28 q 855 82 758 28 q 1006 234 951 136 q 1060 458 1060 332 q 1006 683 1060 585 q 855 835 951 781 q 632 889 758 889 q 409 835 506 889 q 258 683 313 781 q 204 458 204 585 q 258 234 204 332 q 409 82 313 136 q 632 28 506 28 m 632 742 q 777 701 724 742 q 831 593 831 661 q 806 517 831 549 q 733 469 781 485 l 733 468 q 821 418 790 453 q 851 333 851 383 q 792 219 851 261 q 632 176 733 176 q 472 219 532 176 q 413 333 413 261 q 444 418 413 383 q 531 468 475 453 l 531 469 q 459 517 485 485 q 433 593 433 549 q 487 701 433 661 q 632 742 540 742 m 632 668 q 557 647 585 668 q 529 588 529 625 q 557 528 529 550 q 632 506 585 506 q 707 528 679 506 q 735 588 735 550 q 707 647 735 625 q 632 668 679 668 m 632 251 q 720 276 688 251 q 753 340 753 300 q 720 406 753 382 q 632 431 688 431 q 544 406 578 431 q 511 340 511 382 q 544 276 511 300 q 632 251 576 251 z "},"➈":{"ha":1264,"x_min":113,"x_max":1151,"o":"m 632 -56 q 360 9 478 -56 q 177 190 242 74 q 113 458 113 307 q 177 726 113 610 q 360 908 242 843 q 632 972 478 972 q 904 908 786 972 q 1087 726 1022 843 q 1151 458 1151 610 q 1087 190 1151 307 q 904 9 1022 74 q 632 -56 786 -56 m 632 28 q 855 82 758 28 q 1006 234 951 136 q 1060 458 1060 332 q 1006 683 1060 585 q 855 835 951 781 q 632 889 758 889 q 409 835 506 889 q 258 683 313 781 q 204 458 204 585 q 258 234 204 332 q 409 82 313 136 q 632 28 506 28 m 635 743 q 801 669 742 743 q 861 458 861 594 q 801 249 861 322 q 632 176 740 176 q 428 296 474 176 l 519 335 q 556 274 529 294 q 633 254 582 254 q 737 307 704 254 q 769 435 769 360 q 768 463 769 454 l 767 463 q 713 412 756 435 q 626 389 671 389 q 479 435 532 389 q 426 563 426 482 q 482 694 426 646 q 635 743 538 743 m 636 664 q 552 638 582 664 q 522 564 522 611 q 552 492 522 518 q 635 465 582 465 q 717 494 685 465 q 750 564 750 522 q 718 636 750 608 q 636 664 686 664 z "},"₀":{"ha":550,"x_min":47,"x_max":503,"o":"m 275 -271 q 105 -199 163 -271 q 47 13 47 -128 q 105 224 47 153 q 275 296 163 296 q 445 224 388 296 q 503 13 503 153 q 445 -199 503 -128 q 275 -271 388 -271 m 275 -192 q 406 13 406 -192 q 275 217 406 217 q 144 13 144 217 q 275 -192 144 -192 z "},"₁":{"ha":336,"x_min":14,"x_max":263,"o":"m 263 289 l 263 -262 l 165 -262 l 165 86 q 168 186 165 114 q 96 134 136 156 q 14 106 56 113 l 14 189 q 105 227 54 197 q 176 289 156 257 l 263 289 z "},"₂":{"ha":507,"x_min":39,"x_max":467,"o":"m 54 -196 q 182 -103 146 -132 q 317 22 282 -24 q 353 114 353 67 q 325 188 353 160 q 246 215 297 215 q 160 181 192 215 q 126 86 129 147 l 39 117 q 101 248 44 200 q 250 296 158 296 q 401 244 347 296 q 454 119 454 193 q 406 -3 454 58 q 253 -137 357 -65 l 181 -186 l 181 -187 q 269 -183 231 -183 l 467 -183 l 467 -262 l 54 -262 l 54 -196 z "},"₃":{"ha":503,"x_min":33,"x_max":456,"o":"m 251 296 q 392 255 342 296 q 443 146 443 214 q 408 53 443 88 q 333 15 374 18 l 333 14 q 418 -22 381 13 q 456 -114 456 -56 q 397 -228 456 -185 q 247 -271 339 -271 q 33 -137 76 -271 l 126 -96 q 164 -167 135 -144 q 246 -190 193 -190 q 324 -166 294 -190 q 354 -100 354 -142 q 246 -22 354 -22 l 213 -22 l 213 47 l 242 47 q 315 69 290 47 q 340 131 340 90 q 316 194 340 172 q 246 215 292 215 q 176 194 203 215 q 140 132 149 174 l 50 164 q 121 263 67 229 q 251 296 175 296 z "},"₄":{"ha":497,"x_min":13,"x_max":469,"o":"m 469 -125 l 371 -125 l 371 -262 l 289 -262 l 289 -125 l 13 -125 l 13 -74 l 265 289 l 371 289 l 371 -56 l 469 -56 l 469 -125 m 289 -56 l 289 103 q 293 208 289 157 l 289 208 q 244 133 264 163 l 107 -56 l 289 -56 z "},"₅":{"ha":500,"x_min":36,"x_max":460,"o":"m 278 93 q 410 44 360 93 q 460 -81 460 -6 q 401 -220 460 -171 q 250 -269 343 -269 q 118 -242 171 -269 q 36 -151 65 -214 l 124 -101 q 247 -189 146 -189 q 332 -159 300 -189 q 364 -82 364 -129 q 251 21 364 21 q 135 -33 167 21 l 60 -33 l 85 289 l 431 289 l 431 208 l 160 208 l 149 83 q 142 44 147 64 l 143 44 q 192 81 163 68 q 278 93 222 93 z "},"₆":{"ha":522,"x_min":47,"x_max":479,"o":"m 274 -271 q 106 -198 165 -271 q 47 13 47 -125 q 113 222 47 149 q 285 296 179 296 q 401 268 356 296 q 469 182 446 240 l 389 140 q 283 217 365 217 q 176 160 214 217 q 139 21 139 103 l 139 3 l 140 3 q 203 63 168 44 q 288 81 238 81 q 427 33 375 81 q 479 -94 479 -15 q 424 -224 479 -176 q 274 -271 368 -271 m 275 -193 q 358 -167 328 -193 q 388 -94 388 -142 q 357 -23 388 -50 q 275 4 326 4 q 194 -26 226 4 q 163 -94 163 -56 q 193 -166 163 -139 q 275 -193 224 -193 z "},"₇":{"ha":433,"x_min":4,"x_max":425,"o":"m 425 289 l 425 208 q 282 -8 325 104 q 239 -262 239 -119 l 142 -262 q 332 208 142 13 l 4 208 l 4 289 l 425 289 z "},"₈":{"ha":535,"x_min":47,"x_max":486,"o":"m 267 294 q 412 254 358 294 q 465 146 465 214 q 440 69 465 101 q 368 22 415 38 l 368 21 q 456 -29 425 6 q 486 -114 486 -64 q 427 -228 486 -186 q 267 -271 368 -271 q 107 -228 167 -271 q 47 -114 47 -186 q 78 -29 47 -64 q 165 21 110 6 l 165 22 q 94 69 119 38 q 68 146 68 101 q 122 254 68 214 q 267 294 175 294 m 267 221 q 192 199 219 221 q 164 140 164 178 q 192 81 164 103 q 267 58 219 58 q 342 81 314 58 q 369 140 369 103 q 342 199 369 178 q 267 221 314 221 m 267 -196 q 355 -172 322 -196 q 388 -107 388 -147 q 355 -41 388 -65 q 267 -17 322 -17 q 179 -41 213 -17 q 146 -107 146 -65 q 178 -172 146 -147 q 267 -196 211 -196 z "},"₉":{"ha":529,"x_min":47,"x_max":482,"o":"m 256 296 q 422 222 363 296 q 482 11 482 147 q 422 -198 482 -125 q 253 -271 361 -271 q 49 -151 94 -271 l 140 -112 q 176 -173 150 -153 q 254 -193 203 -193 q 358 -140 325 -193 q 390 -12 390 -87 q 389 15 390 7 l 388 15 q 334 -35 376 -12 q 247 -58 292 -58 q 100 -12 153 -58 q 47 115 47 35 q 103 247 47 199 q 256 296 158 296 m 257 217 q 173 190 203 217 q 143 117 143 164 q 173 44 143 71 q 256 18 203 18 q 338 47 306 18 q 371 117 371 75 q 339 189 371 161 q 257 217 307 217 z "},"⁰":{"ha":550,"x_min":47,"x_max":503,"o":"m 275 454 q 105 526 163 454 q 47 738 47 597 q 105 949 47 878 q 275 1021 163 1021 q 445 949 388 1021 q 503 738 503 878 q 445 526 503 597 q 275 454 388 454 m 275 533 q 406 738 406 533 q 275 942 406 942 q 144 738 144 942 q 275 533 144 533 z "},"¹":{"ha":336,"x_min":14,"x_max":263,"o":"m 263 1014 l 263 463 l 165 463 l 165 811 q 168 911 165 839 q 96 859 136 881 q 14 831 56 838 l 14 914 q 105 952 54 922 q 176 1014 156 982 l 263 1014 z "},"²":{"ha":507,"x_min":39,"x_max":467,"o":"m 54 529 q 182 622 146 593 q 317 747 282 701 q 353 839 353 792 q 325 913 353 885 q 246 940 297 940 q 160 906 192 940 q 126 811 129 872 l 39 842 q 101 973 44 925 q 250 1021 158 1021 q 401 969 347 1021 q 454 844 454 918 q 406 722 454 783 q 253 588 357 660 l 181 539 l 181 538 q 269 542 231 542 l 467 542 l 467 463 l 54 463 l 54 529 z "},"³":{"ha":503,"x_min":33,"x_max":456,"o":"m 251 1021 q 392 980 342 1021 q 443 871 443 939 q 408 778 443 813 q 333 740 374 743 l 333 739 q 418 703 381 738 q 456 611 456 669 q 397 497 456 540 q 247 454 339 454 q 33 588 76 454 l 126 629 q 164 558 135 581 q 246 535 193 535 q 324 559 294 535 q 354 625 354 583 q 246 703 354 703 l 213 703 l 213 772 l 242 772 q 315 794 290 772 q 340 856 340 815 q 316 919 340 897 q 246 940 292 940 q 176 919 203 940 q 140 857 149 899 l 50 889 q 121 988 67 954 q 251 1021 175 1021 z "},"⁴":{"ha":497,"x_min":13,"x_max":469,"o":"m 469 600 l 371 600 l 371 463 l 289 463 l 289 600 l 13 600 l 13 651 l 265 1014 l 371 1014 l 371 669 l 469 669 l 469 600 m 289 669 l 289 828 q 293 933 289 882 l 289 933 q 244 858 264 888 l 107 669 l 289 669 z "},"⁵":{"ha":500,"x_min":36,"x_max":460,"o":"m 278 818 q 410 769 360 818 q 460 644 460 719 q 401 505 460 554 q 250 456 343 456 q 118 483 171 456 q 36 574 65 511 l 124 624 q 247 536 146 536 q 332 566 300 536 q 364 643 364 596 q 251 746 364 746 q 135 692 167 746 l 60 692 l 85 1014 l 431 1014 l 431 933 l 160 933 l 149 808 q 142 769 147 789 l 143 769 q 192 806 163 793 q 278 818 222 818 z "},"⁶":{"ha":522,"x_min":47,"x_max":479,"o":"m 274 454 q 106 527 165 454 q 47 738 47 600 q 113 947 47 874 q 285 1021 179 1021 q 401 993 356 1021 q 469 907 446 965 l 389 865 q 283 942 365 942 q 176 885 214 942 q 139 746 139 828 l 139 728 l 140 728 q 203 788 168 769 q 288 806 238 806 q 427 758 375 806 q 479 631 479 710 q 424 501 479 549 q 274 454 368 454 m 275 532 q 358 558 328 532 q 388 631 388 583 q 357 702 388 675 q 275 729 326 729 q 194 699 226 729 q 163 631 163 669 q 193 559 163 586 q 275 532 224 532 z "},"⁷":{"ha":433,"x_min":4,"x_max":425,"o":"m 425 1014 l 425 933 q 282 717 325 829 q 239 463 239 606 l 142 463 q 332 933 142 738 l 4 933 l 4 1014 l 425 1014 z "},"⁸":{"ha":535,"x_min":47,"x_max":486,"o":"m 267 1019 q 412 979 358 1019 q 465 871 465 939 q 440 794 465 826 q 368 747 415 763 l 368 746 q 456 696 425 731 q 486 611 486 661 q 427 497 486 539 q 267 454 368 454 q 107 497 167 454 q 47 611 47 539 q 78 696 47 661 q 165 746 110 731 l 165 747 q 94 794 119 763 q 68 871 68 826 q 122 979 68 939 q 267 1019 175 1019 m 267 946 q 192 924 219 946 q 164 865 164 903 q 192 806 164 828 q 267 783 219 783 q 342 806 314 783 q 369 865 369 828 q 342 924 369 903 q 267 946 314 946 m 267 529 q 355 553 322 529 q 388 618 388 578 q 355 684 388 660 q 267 708 322 708 q 179 684 213 708 q 146 618 146 660 q 178 553 146 578 q 267 529 211 529 z "},"⁹":{"ha":529,"x_min":47,"x_max":482,"o":"m 256 1021 q 422 947 363 1021 q 482 736 482 872 q 422 527 482 600 q 253 454 361 454 q 49 574 94 454 l 140 613 q 176 552 150 572 q 254 532 203 532 q 358 585 325 532 q 390 713 390 638 q 389 740 390 732 l 388 740 q 334 690 376 713 q 247 667 292 667 q 100 713 153 667 q 47 840 47 760 q 103 972 47 924 q 256 1021 158 1021 m 257 942 q 173 915 203 942 q 143 842 143 889 q 173 769 143 796 q 256 743 203 743 q 338 772 306 743 q 371 842 371 800 q 339 914 371 886 q 257 942 307 942 z "},"*":{"ha":794,"x_min":74,"x_max":721,"o":"m 528 586 l 625 450 l 553 397 l 453 532 l 397 633 l 342 532 l 242 397 l 169 450 l 267 586 l 346 671 l 232 693 l 74 746 l 100 831 l 261 781 l 365 732 l 351 846 l 351 1014 l 443 1014 l 443 846 l 429 732 l 533 781 l 694 831 l 721 746 l 563 693 l 449 671 l 528 586 z "},"\\":{"ha":608,"x_min":40,"x_max":569,"o":"m 144 1014 l 569 -97 l 465 -97 l 40 1014 l 144 1014 z "},"·":{"ha":314,"x_min":67,"x_max":247,"o":"m 157 583 q 222 558 197 583 q 247 493 247 533 q 222 428 247 453 q 157 403 197 403 q 92 428 117 403 q 67 493 67 453 q 92 558 67 533 q 157 583 117 583 z "},"•":{"ha":597,"x_min":125,"x_max":472,"o":"m 299 636 q 424 589 375 636 q 472 468 472 542 q 424 347 472 394 q 299 300 375 300 q 174 348 224 300 q 125 468 125 396 q 174 588 125 540 q 299 636 224 636 z "},":":{"ha":411,"x_min":115,"x_max":296,"o":"m 206 708 q 271 683 246 708 q 296 618 296 658 q 271 553 296 578 q 206 528 246 528 q 140 553 165 528 q 115 618 115 578 q 140 683 115 658 q 206 708 165 708 m 206 167 q 271 142 246 167 q 296 76 296 117 q 271 11 296 36 q 206 -14 246 -14 q 140 11 165 -14 q 115 76 115 36 q 140 142 115 117 q 206 167 165 167 z "},",":{"ha":369,"x_min":79,"x_max":289,"o":"m 185 167 q 261 129 233 167 q 289 32 289 92 q 251 -104 289 -42 q 138 -203 214 -167 l 79 -149 q 169 -92 133 -131 q 215 -7 206 -53 l 210 -4 q 171 -14 197 -14 q 118 9 142 -14 q 94 74 94 32 q 121 139 94 111 q 185 167 147 167 z "},"…":{"ha":1194,"x_min":104,"x_max":1090,"o":"m 1000 167 q 1065 142 1040 167 q 1090 76 1090 117 q 1065 11 1090 36 q 1000 -14 1040 -14 q 935 11 960 -14 q 910 76 910 36 q 935 142 910 117 q 1000 167 960 167 m 597 167 q 663 142 638 167 q 688 76 688 117 q 663 11 688 36 q 597 -14 638 -14 q 532 11 557 -14 q 507 76 507 36 q 532 142 507 117 q 597 167 557 167 m 194 167 q 260 142 235 167 q 285 76 285 117 q 260 11 285 36 q 194 -14 235 -14 q 129 11 154 -14 q 104 76 104 36 q 129 142 104 117 q 194 167 154 167 z "},"!":{"ha":378,"x_min":99,"x_max":279,"o":"m 247 519 l 231 289 l 147 289 l 131 519 l 131 917 l 247 917 l 247 519 m 189 167 q 254 142 229 167 q 279 76 279 117 q 254 11 279 36 q 189 -14 229 -14 q 124 11 149 -14 q 99 76 99 36 q 124 142 99 117 q 189 167 149 167 z "},"¡":{"ha":367,"x_min":93,"x_max":274,"o":"m 183 528 q 118 553 143 528 q 93 618 93 578 q 118 683 93 658 q 183 708 143 708 q 249 683 224 708 q 274 618 274 658 q 249 553 274 578 q 183 528 224 528 m 125 175 l 142 406 l 225 406 l 242 175 l 242 -222 l 125 -222 l 125 175 z "},"#":{"ha":889,"x_min":28,"x_max":860,"o":"m 674 579 l 633 344 l 799 344 l 799 260 l 619 260 l 576 0 l 482 0 l 525 260 l 294 260 l 251 0 l 157 0 l 200 260 l 28 260 l 28 344 l 214 344 l 254 579 l 89 579 l 89 664 l 268 664 l 310 917 l 404 917 l 363 664 l 593 664 l 635 917 l 729 917 l 688 664 l 860 664 l 860 579 l 674 579 m 579 579 l 349 579 l 308 344 l 539 344 l 579 579 z "},".":{"ha":369,"x_min":94,"x_max":275,"o":"m 185 167 q 250 142 225 167 q 275 76 275 117 q 250 11 275 36 q 185 -14 225 -14 q 119 11 144 -14 q 94 76 94 36 q 119 142 94 117 q 185 167 144 167 z "},"?":{"ha":753,"x_min":54,"x_max":683,"o":"m 379 931 q 599 867 514 931 q 683 694 683 803 q 611 515 683 579 q 422 438 539 450 l 422 289 l 307 289 l 307 497 q 507 560 447 518 q 567 681 567 601 q 517 788 567 749 q 371 826 467 826 q 222 776 279 826 q 153 638 164 725 l 54 694 q 164 867 78 803 q 379 931 250 931 m 363 167 q 428 142 403 167 q 453 76 453 117 q 428 11 453 36 q 363 -14 403 -14 q 297 11 322 -14 q 272 76 272 36 q 297 142 272 117 q 363 167 322 167 z "},"¿":{"ha":746,"x_min":65,"x_max":694,"o":"m 386 528 q 321 553 346 528 q 296 618 296 578 q 321 683 296 658 q 386 708 346 708 q 451 683 426 708 q 476 618 476 658 q 451 553 476 578 q 386 528 426 528 m 369 -236 q 150 -172 235 -236 q 65 0 65 -108 q 138 180 65 115 q 326 257 210 244 l 326 406 l 442 406 l 442 197 q 242 135 301 176 q 182 14 182 93 q 232 -93 182 -54 q 378 -132 282 -132 q 527 -81 469 -132 q 596 57 585 -31 l 694 0 q 585 -172 671 -108 q 369 -236 499 -236 z "},"\"":{"ha":560,"x_min":114,"x_max":471,"o":"m 435 615 l 349 615 l 349 958 l 471 958 l 435 615 m 200 615 l 114 615 l 114 958 l 236 958 l 200 615 z "},"'":{"ha":325,"x_min":114,"x_max":236,"o":"m 200 615 l 114 615 l 114 958 l 236 958 l 200 615 z "},";":{"ha":411,"x_min":103,"x_max":313,"o":"m 214 528 q 149 553 174 528 q 124 618 124 578 q 149 683 124 658 q 214 708 174 708 q 279 683 254 708 q 304 618 304 658 q 279 553 304 578 q 214 528 254 528 m 208 167 q 285 129 257 167 q 313 32 313 92 q 275 -104 313 -42 q 161 -203 238 -167 l 103 -149 q 193 -92 157 -131 q 239 -7 229 -53 l 233 -4 q 194 -14 221 -14 q 142 9 165 -14 q 118 74 118 32 q 144 139 118 111 q 208 167 171 167 z "},"/":{"ha":608,"x_min":39,"x_max":568,"o":"m 143 -97 l 39 -97 l 464 1014 l 568 1014 l 143 -97 z "},"_":{"ha":749,"x_min":0,"x_max":749,"o":"m 749 -239 l 0 -239 l 0 -135 l 749 -135 l 749 -239 z "},"₍":{"ha":314,"x_min":93,"x_max":324,"o":"m 324 367 q 217 209 249 292 q 185 13 185 126 q 217 -184 185 -101 q 324 -342 249 -267 l 268 -390 q 138 -212 182 -315 q 93 13 93 -110 q 138 238 93 135 q 268 415 182 340 l 324 367 z "},"₎":{"ha":314,"x_min":-10,"x_max":221,"o":"m 46 415 q 176 238 132 340 q 221 13 221 135 q 176 -212 221 -110 q 46 -390 132 -315 l -10 -342 q 97 -184 65 -267 q 129 13 129 -101 q 97 209 129 126 q -10 367 65 292 l 46 415 z "},"{":{"ha":488,"x_min":39,"x_max":431,"o":"m 299 -99 q 330 -154 299 -136 q 431 -172 361 -172 l 413 -262 q 245 -219 296 -262 q 194 -90 194 -176 l 194 197 q 159 308 194 275 q 39 342 124 342 l 39 439 q 159 472 124 439 q 194 583 194 506 l 194 871 q 245 1000 194 957 q 413 1043 296 1043 l 431 953 q 330 935 361 953 q 299 879 299 917 l 299 574 q 140 390 299 425 q 299 207 299 356 l 299 -99 z "},"}":{"ha":488,"x_min":57,"x_max":449,"o":"m 293 583 q 328 472 293 506 q 449 439 364 439 l 449 342 q 328 308 364 342 q 293 197 293 275 l 293 -90 q 242 -219 293 -176 q 75 -262 192 -262 l 57 -172 q 158 -154 126 -172 q 189 -99 189 -136 l 189 207 q 347 390 189 356 q 189 574 189 425 l 189 879 q 158 935 189 917 q 57 953 126 953 l 75 1043 q 242 1000 192 1043 q 293 871 293 957 l 293 583 z "},"[":{"ha":483,"x_min":121,"x_max":438,"o":"m 225 917 l 225 -136 l 438 -136 l 438 -233 l 121 -233 l 121 1014 l 438 1014 l 438 917 l 225 917 z "},"]":{"ha":483,"x_min":46,"x_max":363,"o":"m 363 -233 l 46 -233 l 46 -136 l 258 -136 l 258 917 l 46 917 l 46 1014 l 363 1014 l 363 -233 z "},"(":{"ha":486,"x_min":85,"x_max":446,"o":"m 446 979 q 254 719 310 856 q 199 390 199 583 q 254 61 199 197 q 446 -199 310 -75 l 382 -262 q 160 30 235 -135 q 85 390 85 194 q 160 751 85 586 q 382 1043 235 915 l 446 979 z "},")":{"ha":486,"x_min":40,"x_max":401,"o":"m 104 1043 q 326 751 251 915 q 401 390 401 586 q 326 30 401 194 q 104 -262 251 -135 l 40 -199 q 232 61 176 -75 q 288 390 288 197 q 232 719 288 583 q 40 979 176 856 l 104 1043 z "},"⁽":{"ha":314,"x_min":93,"x_max":324,"o":"m 324 1092 q 217 934 249 1017 q 185 738 185 851 q 217 541 185 624 q 324 383 249 458 l 268 335 q 138 513 182 410 q 93 738 93 615 q 138 963 93 860 q 268 1140 182 1065 l 324 1092 z "},"⁾":{"ha":314,"x_min":-10,"x_max":221,"o":"m 46 1140 q 176 963 132 1065 q 221 738 221 860 q 176 513 221 615 q 46 335 132 410 l -10 383 q 97 541 65 458 q 129 738 129 624 q 97 934 129 851 q -10 1092 65 1017 l 46 1140 z "},"—":{"ha":1408,"x_min":114,"x_max":1294,"o":"m 1294 311 l 114 311 l 114 415 l 1294 415 l 1294 311 z "},"–":{"ha":922,"x_min":114,"x_max":808,"o":"m 808 311 l 114 311 l 114 415 l 808 415 l 808 311 z "},"-":{"ha":708,"x_min":125,"x_max":583,"o":"m 583 306 l 125 306 l 125 421 l 583 421 l 583 306 z "},"­":{"ha":708,"x_min":125,"x_max":583,"o":"m 583 306 l 125 306 l 125 421 l 583 421 l 583 306 z "},"«":{"ha":685,"x_min":71,"x_max":613,"o":"m 189 368 l 367 96 l 246 96 l 71 368 l 246 640 l 367 640 l 189 368 m 435 368 l 613 96 l 492 96 l 317 368 l 492 640 l 613 640 l 435 368 z "},"»":{"ha":683,"x_min":71,"x_max":613,"o":"m 192 640 l 367 368 l 192 96 l 71 96 l 249 368 l 71 640 l 192 640 m 438 640 l 613 368 l 438 96 l 317 96 l 494 368 l 317 640 l 438 640 z "},"‹":{"ha":439,"x_min":71,"x_max":367,"o":"m 189 368 l 367 96 l 246 96 l 71 368 l 246 640 l 367 640 l 189 368 z "},"›":{"ha":439,"x_min":72,"x_max":368,"o":"m 193 640 l 368 368 l 193 96 l 72 96 l 250 368 l 72 640 l 193 640 z "},"„":{"ha":629,"x_min":76,"x_max":547,"o":"m 182 167 q 258 129 231 167 q 286 32 286 92 q 249 -104 286 -42 q 135 -203 211 -167 l 76 -149 q 167 -92 131 -131 q 213 -7 203 -53 l 207 -4 q 168 -14 194 -14 q 115 9 139 -14 q 92 74 92 32 q 118 139 92 111 q 182 167 144 167 m 443 167 q 519 129 492 167 q 547 32 547 92 q 510 -104 547 -42 q 396 -203 472 -167 l 338 -149 q 428 -92 392 -131 q 474 -7 464 -53 l 468 -4 q 429 -14 456 -14 q 376 9 400 -14 q 353 74 353 32 q 379 139 353 111 q 443 167 406 167 z "},"“":{"ha":615,"x_min":74,"x_max":544,"o":"m 178 603 q 101 640 129 603 q 74 738 74 678 q 111 874 74 811 q 225 972 149 936 l 283 918 q 193 861 229 900 q 147 776 157 822 l 153 774 q 192 783 165 783 q 244 760 221 783 q 268 696 268 738 q 242 631 268 658 q 178 603 215 603 m 439 603 q 363 640 390 603 q 335 738 335 678 q 372 874 335 811 q 486 972 410 936 l 544 918 q 454 861 490 900 q 408 776 418 822 l 414 774 q 453 783 426 783 q 506 760 482 783 q 529 696 529 738 q 503 631 529 658 q 439 603 476 603 z "},"”":{"ha":615,"x_min":76,"x_max":547,"o":"m 182 972 q 258 935 231 972 q 286 838 286 897 q 249 701 286 764 q 135 603 211 639 l 76 657 q 167 714 131 675 q 213 799 203 753 l 207 801 q 168 792 194 792 q 115 815 139 792 q 92 879 92 838 q 118 944 92 917 q 182 972 144 972 m 443 972 q 519 935 492 972 q 547 838 547 897 q 510 701 547 764 q 396 603 472 639 l 338 657 q 428 714 392 675 q 474 799 464 753 l 468 801 q 429 792 456 792 q 376 815 400 792 q 353 879 353 838 q 379 944 353 917 q 443 972 406 972 z "},"‘":{"ha":354,"x_min":74,"x_max":283,"o":"m 178 603 q 101 640 129 603 q 74 738 74 678 q 111 874 74 811 q 225 972 149 936 l 283 918 q 193 861 229 900 q 147 776 157 822 l 153 774 q 192 783 165 783 q 244 760 221 783 q 268 696 268 738 q 242 631 268 658 q 178 603 215 603 z "},"’":{"ha":354,"x_min":76,"x_max":286,"o":"m 182 972 q 258 935 231 972 q 286 838 286 897 q 249 701 286 764 q 135 603 211 639 l 76 657 q 167 714 131 675 q 213 799 203 753 l 207 801 q 168 792 194 792 q 115 815 139 792 q 92 879 92 838 q 118 944 92 917 q 182 972 144 972 z "},"‚":{"ha":368,"x_min":76,"x_max":286,"o":"m 182 167 q 258 129 231 167 q 286 32 286 92 q 249 -104 286 -42 q 135 -203 211 -167 l 76 -149 q 167 -92 131 -131 q 213 -7 203 -53 l 207 -4 q 168 -14 194 -14 q 115 9 139 -14 q 92 74 92 32 q 118 139 92 111 q 182 167 144 167 z "}," ":{"ha":474,"x_min":0,"x_max":0,"o":""},"€":{"ha":972,"x_min":86,"x_max":917,"o":"m 917 235 q 785 53 879 119 q 575 -14 692 -14 q 336 68 431 -14 q 208 297 242 150 l 86 297 l 86 388 l 194 388 q 192 458 192 432 q 193 507 192 492 l 86 507 l 86 597 l 204 597 q 329 843 233 756 q 572 931 425 931 q 777 875 692 931 q 900 717 863 819 l 800 669 q 718 790 776 747 q 582 833 660 833 q 415 771 485 833 q 318 597 346 708 l 649 597 l 621 507 l 304 507 q 303 458 303 492 q 307 388 303 421 l 593 388 l 565 297 l 324 297 q 417 140 351 196 q 576 83 483 83 q 724 133 657 83 q 815 272 792 183 l 917 235 z "},"¢":{"ha":788,"x_min":94,"x_max":722,"o":"m 722 192 q 626 50 692 103 q 468 -12 561 -3 l 468 -139 l 375 -139 l 375 -11 q 168 101 242 7 q 94 347 94 194 q 168 594 94 500 q 375 706 242 688 l 375 833 l 468 833 l 468 707 q 715 524 644 690 l 610 474 q 468 614 571 594 l 468 79 q 622 226 586 97 l 722 192 m 199 347 q 244 166 199 235 q 375 81 290 97 l 375 614 q 244 528 290 597 q 199 347 199 460 z "},"¤":{"ha":924,"x_min":97,"x_max":826,"o":"m 754 457 q 703 283 754 360 l 826 163 l 756 92 l 631 213 q 463 164 557 164 q 289 217 365 164 l 168 92 l 97 163 l 219 288 q 169 457 169 360 q 221 629 169 553 l 97 750 l 168 821 l 292 699 q 463 749 365 749 q 635 697 563 749 l 756 821 l 826 750 l 706 626 q 754 457 754 551 m 463 264 q 592 318 540 264 q 643 457 643 372 q 592 594 643 540 q 463 649 540 649 q 332 594 383 649 q 281 457 281 540 q 332 318 281 372 q 463 264 383 264 z "},"$":{"ha":854,"x_min":65,"x_max":771,"o":"m 388 1 q 184 72 267 13 q 65 238 101 132 l 168 290 q 244 163 183 215 q 388 96 306 111 l 388 418 q 238 460 297 438 q 140 529 179 483 q 101 651 101 575 q 136 778 101 721 q 235 872 171 835 q 388 915 300 908 l 388 1056 l 483 1056 l 483 914 q 653 859 586 906 q 769 722 721 813 l 679 651 q 600 771 644 732 q 483 819 556 810 l 483 493 q 633 451 574 474 q 731 381 692 428 q 771 254 771 333 q 693 80 771 147 q 483 1 615 13 l 483 -139 l 388 -139 l 388 1 m 388 821 q 253 771 299 813 q 207 660 207 729 q 253 565 207 597 q 388 513 300 533 l 388 821 m 483 93 q 667 246 667 108 q 619 343 667 310 q 483 397 571 376 l 483 93 z "},"ƒ":{"ha":678,"x_min":-22,"x_max":661,"o":"m 543 919 q 472 890 499 919 q 436 800 446 861 l 397 556 l 603 556 l 603 460 l 382 460 l 314 32 q 106 -178 281 -178 q 38 -171 64 -178 q -22 -144 11 -164 l -6 -44 q 96 -76 39 -76 q 167 -47 140 -76 q 203 43 193 -18 l 269 460 l 75 460 l 75 556 l 285 556 l 325 811 q 533 1021 358 1021 q 601 1014 575 1021 q 661 988 628 1007 l 644 888 q 543 919 600 919 z "},"£":{"ha":869,"x_min":69,"x_max":818,"o":"m 818 213 q 769 44 818 101 q 629 -14 719 -14 q 524 7 572 -14 q 417 67 475 28 q 222 -14 343 -14 q 111 19 153 -14 q 69 106 69 53 q 114 193 69 157 q 233 229 158 229 q 396 183 317 229 q 403 240 403 214 q 390 310 403 276 q 349 386 378 343 l 119 386 l 119 476 l 279 476 q 222 569 239 531 q 206 649 206 608 q 243 794 206 729 q 347 894 281 858 q 499 931 414 931 q 676 877 608 931 q 775 714 744 824 l 679 661 q 615 787 658 744 q 493 829 572 829 q 358 785 408 829 q 308 667 308 740 q 325 590 308 628 q 389 486 342 553 l 396 476 l 657 476 l 657 386 l 451 386 q 486 246 486 317 q 463 136 486 192 q 539 90 506 106 q 614 75 572 75 q 700 107 674 75 q 728 213 726 139 l 818 213 m 236 61 q 354 107 308 61 q 235 146 286 146 q 171 106 171 146 q 189 73 171 85 q 236 61 207 61 z "},"₺":{"ha":903,"x_min":88,"x_max":836,"o":"m 836 372 q 741 92 829 183 q 483 0 653 0 l 267 0 l 267 364 l 88 313 l 88 393 l 267 444 l 267 572 l 88 521 l 88 601 l 267 653 l 267 917 l 371 917 l 371 683 l 664 768 l 664 688 l 371 603 l 371 475 l 664 560 l 664 479 l 371 394 l 371 94 l 472 94 q 666 163 603 94 q 729 372 729 231 l 836 372 z "},"₽":{"ha":896,"x_min":74,"x_max":838,"o":"m 310 363 l 310 265 l 557 265 l 557 178 l 310 178 l 310 0 l 206 0 l 206 178 l 74 178 l 74 265 l 206 265 l 206 363 l 74 363 l 74 460 l 206 460 l 206 917 l 529 917 q 753 841 668 917 q 838 638 838 765 q 753 438 838 513 q 529 363 668 363 l 310 363 m 310 460 l 513 460 q 670 504 619 460 q 721 638 721 549 q 670 771 721 726 q 513 815 619 815 l 310 815 l 310 460 z "},"¥":{"ha":861,"x_min":47,"x_max":814,"o":"m 567 413 l 747 413 l 747 329 l 479 329 l 479 225 l 747 225 l 747 149 l 479 149 l 479 0 l 382 0 l 382 149 l 115 149 l 115 225 l 382 225 l 382 329 l 115 329 l 115 413 l 294 413 l 356 407 l 47 917 l 176 917 l 363 579 l 429 442 l 432 442 l 499 581 l 685 917 l 814 917 l 506 407 l 567 413 z "},"≈":{"ha":839,"x_min":82,"x_max":757,"o":"m 265 688 q 343 674 306 688 q 435 636 381 661 q 515 602 482 614 q 579 590 547 590 q 670 607 629 590 q 757 667 711 624 l 757 565 q 672 508 715 526 q 578 489 629 489 q 505 501 540 489 q 418 539 469 514 q 332 575 364 564 q 265 586 300 586 q 165 569 206 586 q 82 510 125 551 l 82 611 q 167 670 128 653 q 265 688 207 688 m 265 410 q 343 397 306 410 q 435 358 381 383 q 515 324 482 336 q 579 313 547 313 q 670 329 629 313 q 757 389 711 346 l 757 288 q 672 230 715 249 q 578 211 629 211 q 505 224 540 211 q 418 261 469 236 q 332 297 364 286 q 265 308 300 308 q 165 291 206 308 q 82 232 125 274 l 82 333 q 167 392 128 375 q 265 410 207 410 z "},"~":{"ha":750,"x_min":60,"x_max":690,"o":"m 690 533 q 636 378 682 431 q 510 326 590 326 q 431 342 464 326 q 356 385 397 357 q 301 418 324 407 q 251 429 279 429 q 165 326 183 429 l 60 326 q 242 533 76 533 q 319 519 286 533 q 396 475 353 504 q 450 442 428 453 q 499 431 472 431 q 585 533 567 431 l 690 533 z "},"÷":{"ha":839,"x_min":82,"x_max":757,"o":"m 419 800 q 485 775 460 800 q 510 710 510 750 q 485 644 510 669 q 419 619 460 619 q 354 644 379 619 q 329 710 329 669 q 354 775 329 750 q 419 800 379 800 m 757 388 l 82 388 l 82 492 l 757 492 l 757 388 m 419 257 q 485 232 460 257 q 510 167 510 207 q 485 101 510 126 q 419 76 460 76 q 354 101 379 76 q 329 167 329 126 q 354 232 329 207 q 419 257 379 257 z "},"=":{"ha":839,"x_min":89,"x_max":750,"o":"m 750 508 l 89 508 l 89 613 l 750 613 l 750 508 m 750 231 l 89 231 l 89 335 l 750 335 l 750 231 z "},"₌":{"ha":531,"x_min":74,"x_max":457,"o":"m 74 135 l 457 135 l 457 61 l 74 61 l 74 135 m 74 -40 l 457 -40 l 457 -114 l 74 -114 l 74 -40 z "},"⁼":{"ha":531,"x_min":74,"x_max":457,"o":"m 74 860 l 457 860 l 457 786 l 74 786 l 74 860 m 74 685 l 457 685 l 457 611 l 74 611 l 74 685 z "},">":{"ha":839,"x_min":79,"x_max":740,"o":"m 740 481 l 740 351 l 79 39 l 79 154 l 651 417 l 79 678 l 79 793 l 740 481 z "},"≥":{"ha":839,"x_min":75,"x_max":743,"o":"m 743 596 l 743 458 l 75 175 l 75 293 l 656 528 l 75 761 l 75 879 l 743 596 m 75 104 l 743 104 l 743 0 l 75 0 l 75 104 z "},"∞":{"ha":1231,"x_min":99,"x_max":1132,"o":"m 903 694 q 1018 661 965 694 q 1101 565 1071 628 q 1132 417 1132 501 q 1101 269 1132 332 q 1018 172 1071 206 q 903 139 965 139 q 768 184 831 139 q 608 339 706 229 q 488 207 532 249 q 410 152 444 165 q 328 139 376 139 q 213 172 265 139 q 129 269 160 206 q 99 417 99 332 q 129 565 99 501 q 213 661 160 628 q 328 694 265 694 q 467 649 403 694 q 621 497 531 604 q 746 629 699 588 q 825 683 793 671 q 903 694 857 694 m 907 250 q 990 299 956 250 q 1024 431 1024 349 q 989 563 1024 514 q 906 611 954 611 q 849 599 872 611 q 790 550 825 586 q 681 425 754 514 q 811 291 758 332 q 907 250 864 250 m 325 222 q 383 235 358 222 q 439 283 407 249 q 547 408 471 318 q 413 547 456 511 q 325 583 369 583 q 242 535 276 583 q 207 403 207 486 q 242 271 207 319 q 325 222 276 222 z "},"∫":{"ha":638,"x_min":39,"x_max":600,"o":"m 472 1053 q 546 1045 521 1053 q 600 1019 571 1038 l 583 919 q 482 951 539 951 q 406 922 436 951 q 375 832 375 892 l 375 32 q 319 -120 375 -62 q 167 -178 263 -178 q 93 -170 118 -178 q 39 -144 68 -162 l 56 -44 q 157 -76 100 -76 q 233 -47 203 -76 q 264 43 264 -17 l 264 843 q 320 995 264 938 q 472 1053 376 1053 z "},"<":{"ha":839,"x_min":99,"x_max":760,"o":"m 760 678 l 188 417 l 760 154 l 760 39 l 99 351 l 99 481 l 760 793 l 760 678 z "},"≤":{"ha":839,"x_min":96,"x_max":764,"o":"m 764 761 l 183 528 l 764 293 l 764 175 l 96 458 l 96 596 l 764 879 l 764 761 m 96 104 l 764 104 l 764 0 l 96 0 l 96 104 z "},"¬":{"ha":839,"x_min":82,"x_max":757,"o":"m 757 492 l 757 182 l 646 182 l 646 388 l 82 388 l 82 492 l 757 492 z "},"−":{"ha":839,"x_min":82,"x_max":757,"o":"m 757 388 l 82 388 l 82 492 l 757 492 l 757 388 z "},"₋":{"ha":475,"x_min":38,"x_max":438,"o":"m 38 44 l 438 44 l 438 -24 l 38 -24 l 38 44 z "},"⁻":{"ha":475,"x_min":38,"x_max":438,"o":"m 38 769 l 438 769 l 438 701 l 38 701 l 38 769 z "},"×":{"ha":839,"x_min":113,"x_max":725,"o":"m 493 442 l 725 208 l 651 135 l 419 368 l 186 135 l 113 208 l 346 442 l 113 674 l 186 747 l 419 515 l 651 747 l 725 674 l 493 442 z "},"≠":{"ha":839,"x_min":89,"x_max":750,"o":"m 522 515 l 428 328 l 750 328 l 750 231 l 379 231 l 308 89 l 199 89 l 269 231 l 89 231 l 89 328 l 318 328 l 413 515 l 89 515 l 89 613 l 461 613 l 532 754 l 642 754 l 571 613 l 750 613 l 750 515 l 522 515 z "},"∂":{"ha":861,"x_min":90,"x_max":761,"o":"m 392 931 q 761 458 761 931 q 670 107 761 228 q 406 -14 579 -14 q 240 26 311 -14 q 129 136 168 65 q 90 297 90 207 q 131 458 90 388 q 241 569 171 529 q 400 608 311 608 q 548 574 481 608 q 658 479 615 540 q 588 751 654 667 q 389 836 521 836 q 285 817 328 836 q 197 751 243 797 l 140 833 q 392 931 251 931 m 406 86 q 569 149 507 86 q 650 335 631 213 q 560 463 622 417 q 399 510 497 510 q 253 453 304 510 q 201 299 201 397 q 254 142 201 199 q 406 86 307 86 z "},"%":{"ha":1189,"x_min":56,"x_max":1133,"o":"m 276 931 q 438 862 378 931 q 497 678 497 793 q 438 494 497 563 q 276 425 378 425 q 115 494 175 425 q 56 678 56 563 q 115 862 56 793 q 276 931 175 931 m 833 917 l 939 917 l 356 0 l 250 0 l 833 917 m 276 843 q 186 800 218 843 q 154 678 154 757 q 186 556 154 599 q 276 513 218 513 q 367 556 335 513 q 399 678 399 599 q 367 800 399 757 q 276 843 335 843 m 913 492 q 1074 423 1014 492 q 1133 239 1133 354 q 1074 55 1133 124 q 913 -14 1014 -14 q 751 55 811 -14 q 692 239 692 124 q 751 423 692 354 q 913 492 811 492 m 913 404 q 822 361 854 404 q 790 239 790 318 q 822 117 790 160 q 913 74 854 74 q 1003 117 971 74 q 1035 239 1035 160 q 1003 361 1035 318 q 913 404 971 404 z "},"‰":{"ha":1728,"x_min":56,"x_max":1672,"o":"m 276 931 q 438 862 378 931 q 497 678 497 793 q 438 494 497 563 q 276 425 378 425 q 115 494 175 425 q 56 678 56 563 q 115 862 56 793 q 276 931 175 931 m 833 917 l 939 917 l 356 0 l 250 0 l 833 917 m 276 843 q 186 800 218 843 q 154 678 154 757 q 186 556 154 599 q 276 513 218 513 q 367 556 335 513 q 399 678 399 599 q 367 800 399 757 q 276 843 335 843 m 913 492 q 1074 423 1014 492 q 1133 239 1133 354 q 1074 55 1133 124 q 913 -14 1014 -14 q 751 55 811 -14 q 692 239 692 124 q 751 423 692 354 q 913 492 811 492 m 1451 492 q 1613 423 1553 492 q 1672 239 1672 354 q 1613 55 1672 124 q 1451 -14 1553 -14 q 1290 55 1350 -14 q 1231 239 1231 124 q 1290 423 1231 354 q 1451 492 1350 492 m 913 404 q 822 361 854 404 q 790 239 790 318 q 822 117 790 160 q 913 74 854 74 q 1003 117 971 74 q 1035 239 1035 160 q 1003 361 1035 318 q 913 404 971 404 m 1451 404 q 1361 361 1393 404 q 1329 239 1329 318 q 1361 117 1329 160 q 1451 74 1393 74 q 1542 117 1510 74 q 1574 239 1574 160 q 1542 361 1574 318 q 1451 404 1510 404 z "},"+":{"ha":839,"x_min":82,"x_max":757,"o":"m 757 388 l 472 388 l 472 94 l 368 94 l 368 388 l 82 388 l 82 492 l 368 492 l 368 783 l 472 783 l 472 492 l 757 492 l 757 388 z "},"₊":{"ha":475,"x_min":38,"x_max":438,"o":"m 438 -24 l 278 -24 l 278 -190 l 199 -190 l 199 -24 l 38 -24 l 38 44 l 199 44 l 199 211 l 278 211 l 278 44 l 438 44 l 438 -24 z "},"±":{"ha":839,"x_min":82,"x_max":757,"o":"m 757 603 l 757 499 l 472 499 l 472 214 l 368 214 l 368 499 l 82 499 l 82 603 l 368 603 l 368 889 l 472 889 l 472 603 l 757 603 m 82 104 l 757 104 l 757 0 l 82 0 l 82 104 z "},"⁺":{"ha":475,"x_min":38,"x_max":438,"o":"m 438 701 l 278 701 l 278 535 l 199 535 l 199 701 l 38 701 l 38 769 l 199 769 l 199 936 l 278 936 l 278 769 l 438 769 l 438 701 z "},"∏":{"ha":972,"x_min":126,"x_max":846,"o":"m 846 -178 l 735 -178 l 735 813 l 238 813 l 238 -178 l 126 -178 l 126 917 l 846 917 l 846 -178 z "},"√":{"ha":933,"x_min":28,"x_max":933,"o":"m 933 1136 l 483 0 l 374 0 l 172 492 l 28 492 l 28 596 l 235 596 l 393 217 l 431 103 l 468 221 l 825 1136 l 933 1136 z "},"∑":{"ha":885,"x_min":81,"x_max":797,"o":"m 797 813 l 226 813 l 674 382 l 674 363 l 225 -74 l 797 -74 l 797 -178 l 81 -178 l 81 -74 l 535 372 l 81 813 l 81 917 l 797 917 l 797 813 z "},"µ":{"ha":849,"x_min":121,"x_max":729,"o":"m 729 694 l 729 0 l 639 0 l 629 113 q 376 -14 557 -14 q 232 49 285 -14 l 232 -292 l 121 -292 l 121 694 l 232 694 l 232 269 q 274 126 232 168 q 396 83 315 83 q 545 129 486 83 q 618 256 604 175 l 618 694 l 729 694 z "},"Ω":{"ha":1075,"x_min":99,"x_max":976,"o":"m 976 94 l 976 0 l 617 0 l 617 94 q 789 218 726 124 q 851 458 851 313 q 813 656 851 572 q 703 783 774 739 q 538 826 632 826 q 372 783 443 826 q 263 656 301 739 q 224 458 224 572 q 286 218 224 313 q 458 94 349 124 l 458 0 l 99 0 l 99 94 l 301 94 q 161 244 210 151 q 113 458 113 338 q 165 709 113 603 q 313 873 217 815 q 538 931 408 931 q 763 873 667 931 q 910 709 858 815 q 963 458 963 603 q 914 244 963 338 q 774 94 865 151 l 976 94 z "},"∆":{"ha":971,"x_min":56,"x_max":915,"o":"m 915 93 l 915 0 l 56 0 l 56 93 l 419 917 l 551 917 l 915 93 m 157 93 l 814 93 l 485 832 l 157 93 z "},"∕":{"ha":344,"x_min":-214,"x_max":558,"o":"m 449 917 l 558 917 l -104 0 l -214 0 l 449 917 z "},"∙":{"ha":314,"x_min":67,"x_max":247,"o":"m 157 564 q 222 539 197 564 q 247 474 247 514 q 222 408 247 433 q 157 383 197 383 q 92 408 117 383 q 67 474 67 433 q 92 539 67 514 q 157 564 117 564 z "},"↑":{"ha":1042,"x_min":58,"x_max":981,"o":"m 524 925 q 716 708 611 803 q 981 515 821 613 l 908 428 q 564 733 671 585 q 575 493 575 608 l 575 0 l 464 0 l 464 493 q 475 733 464 608 q 131 428 368 585 l 58 515 q 323 708 218 613 q 515 925 428 803 l 524 925 z "},"↗":{"ha":1042,"x_min":172,"x_max":868,"o":"m 868 813 q 836 446 836 610 q 860 160 836 297 l 751 149 q 735 372 735 253 q 760 647 735 525 q 599 472 668 540 l 250 124 l 172 201 l 521 550 q 696 711 589 619 q 421 686 572 686 q 197 703 301 686 l 208 811 q 494 788 346 788 q 861 819 658 788 l 868 813 z "},"→":{"ha":1042,"x_min":68,"x_max":993,"o":"m 583 921 q 776 656 681 761 q 993 464 871 551 l 993 456 q 776 263 871 368 q 583 -1 681 158 l 496 71 q 801 415 653 308 q 561 404 676 404 l 68 404 l 68 515 l 561 515 q 801 504 676 515 q 496 849 653 611 l 583 921 z "},"↘":{"ha":1042,"x_min":160,"x_max":856,"o":"m 847 799 q 824 513 824 661 q 856 146 824 349 l 849 139 q 482 171 646 171 q 196 147 333 171 l 185 256 q 408 272 289 272 q 683 247 560 272 q 508 408 576 339 l 160 757 l 238 835 l 586 486 q 747 311 656 418 q 722 586 722 435 q 739 810 722 706 l 847 799 z "},"↓":{"ha":1042,"x_min":61,"x_max":983,"o":"m 983 401 q 719 209 824 304 q 526 -8 614 114 l 518 -8 q 326 209 431 114 q 61 401 221 304 l 133 489 q 478 183 371 332 q 467 424 467 308 l 467 917 l 578 917 l 578 424 q 567 183 578 308 q 911 489 674 332 l 983 401 z "},"↙":{"ha":1042,"x_min":186,"x_max":882,"o":"m 358 247 q 633 272 482 272 q 857 256 753 272 l 846 147 q 560 171 708 171 q 193 139 396 171 l 186 146 q 218 513 218 349 q 194 799 218 661 l 303 810 q 319 586 319 706 q 294 311 319 435 q 456 486 386 418 l 804 835 l 882 757 l 533 408 q 358 247 465 339 z "},"←":{"ha":1042,"x_min":49,"x_max":974,"o":"m 481 404 q 240 415 365 404 q 546 71 389 308 l 458 -1 q 266 263 361 158 q 49 456 171 368 l 49 464 q 266 656 171 551 q 458 921 361 761 l 546 849 q 240 504 389 611 q 481 515 365 515 l 974 515 l 974 404 l 481 404 z "},"↖":{"ha":1042,"x_min":174,"x_max":869,"o":"m 869 201 l 792 124 l 443 472 q 282 647 374 540 q 307 372 307 525 q 290 149 307 253 l 182 160 q 206 446 206 297 q 174 813 206 610 l 181 819 q 547 788 383 788 q 833 811 696 788 l 844 703 q 621 686 740 686 q 346 711 469 686 q 521 550 453 619 l 869 201 z "},"↔":{"ha":1475,"x_min":49,"x_max":1426,"o":"m 1017 946 q 1209 681 1114 786 q 1426 489 1304 576 l 1426 481 q 1209 288 1304 393 q 1017 24 1114 183 l 919 82 q 1235 439 1085 332 q 1050 429 1147 429 l 425 429 q 240 439 328 429 q 556 82 390 332 l 458 24 q 266 288 361 183 q 49 481 171 393 l 49 489 q 266 681 171 576 q 458 946 361 786 l 556 888 q 240 531 390 638 q 425 540 328 540 l 1050 540 q 1235 531 1147 540 q 919 888 1085 638 l 1017 946 z "},"↕":{"ha":1042,"x_min":58,"x_max":981,"o":"m 565 -39 q 922 276 672 111 l 981 179 q 716 -13 821 82 q 524 -231 611 -108 l 515 -231 q 323 -13 428 -108 q 58 179 218 82 l 117 276 q 474 -39 367 111 q 464 146 464 49 l 464 771 q 474 956 464 868 q 117 640 367 806 l 58 738 q 323 930 218 835 q 515 1147 428 1025 l 524 1147 q 716 930 611 1025 q 981 738 821 835 l 922 640 q 565 956 672 806 q 575 771 575 868 l 575 146 q 565 -39 575 49 z "},"●":{"ha":833,"x_min":56,"x_max":778,"o":"m 417 -14 q 233 33 315 -14 q 103 163 150 81 q 56 347 56 246 q 103 531 56 449 q 233 661 150 614 q 417 708 315 708 q 601 661 518 708 q 731 531 683 614 q 778 347 778 449 q 731 163 778 246 q 601 33 683 81 q 417 -14 518 -14 z "},"○":{"ha":833,"x_min":56,"x_max":778,"o":"m 417 -14 q 233 33 315 -14 q 103 163 150 81 q 56 347 56 246 q 103 531 56 449 q 233 661 150 614 q 417 708 315 708 q 601 661 518 708 q 731 531 683 614 q 778 347 778 449 q 731 163 778 246 q 601 33 683 81 q 417 -14 518 -14 m 417 90 q 544 124 488 90 q 634 217 601 158 q 667 347 667 275 q 634 478 667 419 q 544 570 601 536 q 417 604 488 604 q 289 570 346 604 q 199 478 232 536 q 167 347 167 419 q 199 217 167 275 q 289 124 232 158 q 417 90 346 90 z "},"◆":{"ha":833,"x_min":49,"x_max":785,"o":"m 49 360 l 417 728 l 785 360 l 417 -8 l 49 360 z "},"◇":{"ha":833,"x_min":49,"x_max":785,"o":"m 49 360 l 417 728 l 785 360 l 417 -8 l 49 360 m 628 360 l 417 571 l 206 360 l 417 149 l 628 360 z "},"◊":{"ha":815,"x_min":67,"x_max":750,"o":"m 750 458 l 474 0 l 342 0 l 67 458 l 342 917 l 474 917 l 750 458 m 624 458 l 408 836 l 193 458 l 408 81 l 624 458 z "},"▪":{"ha":833,"x_min":69,"x_max":764,"o":"m 764 694 l 764 0 l 69 0 l 69 694 l 764 694 z "},"▫":{"ha":833,"x_min":69,"x_max":764,"o":"m 69 694 l 764 694 l 764 0 l 69 0 l 69 694 m 653 96 l 653 599 l 181 599 l 181 96 l 653 96 z "},"❛":{"ha":1014,"x_min":94,"x_max":915,"o":"m 875 833 q 464 769 610 833 q 238 579 318 706 l 247 572 q 365 634 304 615 q 524 653 425 653 q 812 565 708 653 q 915 319 915 476 q 811 74 915 163 q 522 -14 707 -14 q 195 90 296 -14 q 94 390 94 193 q 268 782 94 640 q 810 924 442 924 l 875 833 z "},"❜":{"ha":1014,"x_min":99,"x_max":919,"o":"m 139 -97 q 550 -33 404 -97 q 776 157 696 31 l 767 164 q 649 102 710 121 q 490 83 589 83 q 202 172 306 83 q 99 417 99 260 q 203 662 99 574 q 492 750 307 750 q 819 647 718 750 q 919 346 919 543 q 746 -46 919 96 q 204 -187 572 -187 l 139 -97 z "},"❝":{"ha":1747,"x_min":94,"x_max":1649,"o":"m 1257 653 q 1545 565 1442 653 q 1649 319 1649 476 q 1544 74 1649 163 q 1256 -14 1440 -14 q 878 157 972 -14 q 742 30 833 74 q 522 -14 651 -14 q 195 90 296 -14 q 94 390 94 193 q 268 782 94 640 q 810 924 442 924 l 875 833 q 464 769 610 833 q 238 579 318 706 l 247 572 q 365 634 304 615 q 524 653 425 653 q 712 622 631 653 q 843 533 793 592 q 1060 822 888 719 q 1543 924 1232 924 l 1608 833 q 1197 769 1343 833 q 971 579 1051 706 l 981 572 q 1098 634 1038 615 q 1257 653 1158 653 z "},"❞":{"ha":1747,"x_min":99,"x_max":1653,"o":"m 1225 750 q 1552 647 1451 750 q 1653 346 1653 543 q 1479 -46 1653 96 q 938 -187 1306 -187 l 872 -97 q 1283 -33 1138 -97 q 1510 157 1429 31 l 1500 164 q 1383 102 1443 121 q 1224 83 1322 83 q 1035 114 1117 83 q 904 203 954 144 q 688 -85 860 17 q 204 -187 515 -187 l 139 -97 q 550 -33 404 -97 q 776 157 696 31 l 767 164 q 649 102 710 121 q 490 83 589 83 q 202 172 306 83 q 99 417 99 260 q 203 662 99 574 q 492 750 307 750 q 869 579 775 750 q 1005 706 914 663 q 1225 750 1096 750 z "},"❡":{"ha":885,"x_min":83,"x_max":786,"o":"m 786 86 q 690 -190 786 -82 q 364 -299 594 -299 q 181 -244 256 -299 q 106 -97 106 -190 q 117 -28 106 -68 l 194 -11 q 186 -71 186 -44 q 227 -178 186 -139 q 329 -217 268 -217 q 445 -167 410 -217 q 481 -24 481 -117 l 481 307 l 411 307 q 240 345 314 307 q 124 452 165 383 q 83 611 83 521 q 128 771 83 701 q 252 878 172 840 q 438 917 332 917 l 786 917 l 786 86 m 568 824 l 568 -61 q 549 -148 568 -103 q 503 -211 531 -193 l 507 -217 q 643 -106 597 -182 q 689 69 689 -29 l 689 824 l 568 824 z "},"|":{"ha":338,"x_min":121,"x_max":217,"o":"m 217 -233 l 121 -233 l 121 1014 l 217 1014 l 217 -233 z "},"¦":{"ha":354,"x_min":129,"x_max":225,"o":"m 225 510 l 129 510 l 129 1014 l 225 1014 l 225 510 m 225 -233 l 129 -233 l 129 271 l 225 271 l 225 -233 z "},"@":{"ha":1368,"x_min":92,"x_max":1271,"o":"m 704 917 q 1019 843 892 917 q 1209 644 1147 769 q 1271 361 1271 519 q 1239 165 1271 249 q 1149 38 1207 82 q 1015 -7 1092 -7 q 906 30 944 -7 q 854 121 867 67 q 753 32 817 64 q 608 0 690 0 q 489 34 543 0 q 403 132 435 68 q 371 282 371 196 q 417 476 371 393 q 536 602 463 558 q 692 646 610 646 q 900 525 853 646 l 928 638 l 1000 638 l 946 206 q 944 174 944 194 q 1032 71 944 71 q 1146 144 1107 71 q 1185 361 1185 218 q 1131 608 1185 501 q 968 774 1076 714 q 704 835 860 835 q 427 770 544 835 q 247 588 310 706 q 185 310 185 469 q 248 45 185 158 q 422 -128 311 -68 q 672 -189 533 -189 q 847 -165 781 -189 q 972 -99 913 -142 l 1021 -162 q 870 -243 946 -215 q 672 -271 794 -271 q 367 -199 499 -271 q 164 6 236 -126 q 92 310 92 138 q 167 626 92 488 q 382 840 243 764 q 704 917 521 917 m 703 564 q 533 490 596 564 q 471 288 471 417 q 515 138 471 192 q 642 83 560 83 q 788 136 725 83 q 863 286 850 189 l 871 354 q 874 396 874 382 q 833 519 874 474 q 703 564 792 564 z "},"&":{"ha":865,"x_min":67,"x_max":871,"o":"m 693 164 q 784 88 747 107 q 871 69 821 69 l 843 -14 q 743 7 788 -14 q 633 93 699 28 q 510 14 579 42 q 358 -14 440 -14 q 207 17 274 -14 q 103 101 140 47 q 67 224 67 156 q 117 377 67 310 q 286 507 168 444 q 203 631 226 585 q 181 728 181 676 q 206 826 181 779 q 279 901 231 872 q 396 931 328 931 q 548 884 486 931 q 610 742 610 838 q 573 604 610 663 q 429 483 536 546 q 521 368 453 451 l 571 306 l 632 232 q 690 456 690 328 q 689 493 690 481 l 778 482 l 779 449 q 757 298 779 371 q 693 164 735 225 m 394 836 q 313 806 342 836 q 285 729 285 775 q 301 659 285 693 q 375 551 318 625 q 485 640 460 597 q 511 739 511 683 q 394 836 511 836 m 354 76 q 472 97 417 76 q 572 158 528 118 q 446 308 525 210 l 343 435 q 206 331 242 376 q 171 232 171 286 q 225 121 171 165 q 354 76 279 76 z "},"¶":{"ha":885,"x_min":57,"x_max":758,"o":"m 758 -139 l 661 -139 l 661 824 l 482 824 l 482 -139 l 381 -139 l 381 335 q 144 415 231 336 q 57 625 57 493 q 149 839 57 761 q 410 917 240 917 l 758 917 l 758 -139 z "},"©":{"ha":1139,"x_min":94,"x_max":1044,"o":"m 569 931 q 820 872 713 931 q 986 707 928 814 q 1044 458 1044 600 q 986 210 1044 317 q 820 44 928 103 q 569 -14 713 -14 q 319 44 426 -14 q 153 210 211 103 q 94 458 94 317 q 153 707 94 600 q 319 872 211 814 q 569 931 426 931 m 569 840 q 371 793 456 840 q 240 660 286 746 q 193 458 193 574 q 240 257 193 343 q 371 124 286 171 q 569 76 456 76 q 768 124 683 76 q 899 257 853 171 q 946 458 946 343 q 899 660 946 574 q 768 793 853 746 q 569 840 683 840 m 579 713 q 714 678 660 713 q 796 581 768 644 l 715 540 q 578 629 681 629 q 462 583 504 629 q 419 456 419 538 q 462 328 419 374 q 578 282 504 282 q 725 375 690 282 l 801 344 q 718 237 775 275 q 579 199 661 199 q 394 267 461 199 q 326 456 326 336 q 394 644 326 575 q 579 713 461 713 z "},"®":{"ha":1139,"x_min":94,"x_max":1044,"o":"m 569 931 q 820 872 713 931 q 986 707 928 814 q 1044 458 1044 600 q 986 210 1044 317 q 820 44 928 103 q 569 -14 713 -14 q 319 44 426 -14 q 153 210 211 103 q 94 458 94 317 q 153 707 94 600 q 319 872 211 814 q 569 931 426 931 m 569 76 q 768 124 683 76 q 899 257 853 171 q 946 458 946 343 q 899 660 946 574 q 768 793 853 746 q 569 840 683 840 q 371 793 456 840 q 240 660 286 746 q 193 458 193 574 q 240 257 193 343 q 371 124 286 171 q 569 76 456 76 m 796 549 q 763 449 796 490 q 671 393 729 408 l 807 199 l 701 199 l 578 385 l 483 385 l 483 199 l 390 199 l 390 713 l 601 713 q 742 668 689 713 q 796 549 796 624 m 483 456 l 600 456 q 703 549 703 456 q 600 642 703 642 l 483 642 l 483 456 z "},"§":{"ha":831,"x_min":44,"x_max":792,"o":"m 792 376 q 756 266 792 314 q 664 186 721 218 q 707 56 707 139 q 672 -50 707 -3 q 570 -125 636 -97 q 418 -153 504 -153 q 240 -117 313 -153 q 119 -12 168 -81 l 201 56 q 285 -28 233 -1 q 417 -56 338 -56 q 549 -28 501 -56 q 596 46 596 -1 q 574 114 596 88 q 499 158 551 140 q 351 189 446 176 q 171 231 238 204 q 74 298 104 257 q 44 401 44 339 q 80 512 44 464 q 172 592 115 560 q 129 722 129 639 q 165 828 129 781 q 269 903 201 875 q 428 931 338 931 q 605 894 538 931 q 717 790 672 857 l 639 724 q 553 806 603 779 q 425 833 503 833 q 288 807 336 833 q 240 732 240 781 q 263 663 240 690 q 338 619 285 636 q 485 589 390 601 q 722 518 653 567 q 792 376 792 469 m 574 246 q 681 367 681 293 q 631 446 681 418 q 456 488 582 474 q 263 531 333 503 q 156 411 156 488 q 205 333 156 360 q 381 290 254 306 q 574 246 506 275 z "},"™":{"ha":1164,"x_min":75,"x_max":1038,"o":"m 451 842 l 313 842 l 313 458 l 215 458 l 215 842 l 75 842 l 75 917 l 451 917 l 451 842 m 1038 917 l 1038 458 l 942 458 l 942 678 l 951 799 l 950 799 l 938 761 l 824 458 l 754 458 l 639 761 l 626 799 l 625 799 l 635 678 l 635 458 l 539 458 l 539 917 l 661 917 l 756 667 l 788 578 l 790 578 l 821 667 l 917 917 l 1038 917 z "},"°":{"ha":639,"x_min":83,"x_max":556,"o":"m 319 472 q 198 501 251 472 q 114 583 144 531 q 83 701 83 636 q 114 819 83 767 q 198 901 144 872 q 319 931 251 931 q 441 901 388 931 q 525 819 494 872 q 556 701 556 767 q 525 583 556 636 q 441 501 494 531 q 319 472 388 472 m 319 563 q 419 602 381 563 q 458 701 458 642 q 419 801 458 763 q 319 840 381 840 q 220 801 260 840 q 181 701 181 763 q 220 602 181 642 q 319 563 260 563 z "},"℮":{"ha":1118,"x_min":94,"x_max":1038,"o":"m 567 931 q 914 799 790 931 q 1038 418 1038 667 l 279 418 l 279 183 q 415 94 335 125 q 594 63 494 63 q 819 117 719 63 q 993 289 918 172 l 993 182 q 830 35 932 83 q 594 -14 728 -14 q 326 44 439 -14 q 154 209 214 103 q 94 458 94 315 q 153 707 94 600 q 318 872 211 814 q 567 931 425 931 m 567 854 q 406 824 479 854 q 279 736 332 793 l 279 499 l 854 499 l 854 736 q 728 824 801 793 q 567 854 654 854 z "},"ℓ":{"ha":556,"x_min":65,"x_max":490,"o":"m 369 79 q 424 83 399 79 q 490 99 449 88 l 481 6 q 364 -14 429 -14 q 217 31 264 -14 q 169 172 169 75 l 169 292 q 65 246 122 265 l 65 339 q 169 389 122 358 l 169 743 q 319 931 169 931 q 432 889 396 931 q 468 750 468 847 q 415 544 468 650 q 267 357 363 438 l 267 186 q 294 110 267 142 q 369 79 322 79 m 322 843 q 279 821 292 843 q 267 750 267 799 l 267 471 q 349 606 321 532 q 376 757 376 681 q 364 824 376 806 q 322 843 351 843 z "},"^":{"ha":778,"x_min":38,"x_max":740,"o":"m 628 493 l 389 919 l 150 493 l 38 493 l 336 1014 l 442 1014 l 740 493 l 628 493 z "},"†":{"ha":713,"x_min":54,"x_max":658,"o":"m 658 529 l 413 529 l 413 -139 l 301 -139 l 301 529 l 54 529 l 54 625 l 301 625 l 301 917 l 413 917 l 413 625 l 658 625 l 658 529 z "},"‡":{"ha":713,"x_min":54,"x_max":658,"o":"m 413 529 l 413 249 l 658 249 l 658 153 l 413 153 l 413 -139 l 301 -139 l 301 153 l 54 153 l 54 249 l 301 249 l 301 529 l 54 529 l 54 625 l 301 625 l 301 917 l 413 917 l 413 625 l 658 625 l 658 529 l 413 529 z "},"":{"ha":1569,"x_min":24,"x_max":1513,"o":"m 1501 393 l 1414 351 l 1471 281 l 1375 264 l 1414 179 l 1329 174 q 1290 153 1310 161 l 1290 40 q 1250 0 1290 0 l 1186 0 q 1146 32 1146 0 q 1186 67 1146 67 l 1201 67 l 1201 121 q 1110 107 1163 111 l 1110 40 q 1069 0 1110 0 l 1006 0 q 965 32 965 0 q 1006 67 965 67 l 1021 67 l 1021 104 l 707 104 l 707 40 q 667 0 707 0 l 603 0 q 561 32 561 0 q 572 58 561 49 q 603 67 583 67 l 619 67 l 619 104 l 497 104 l 497 40 q 456 0 497 0 l 394 0 q 351 32 351 0 q 394 67 351 67 l 408 67 l 408 118 q 228 153 315 122 q 88 231 142 183 l 81 231 q 41 248 58 231 q 24 288 24 265 q 41 328 24 311 q 81 344 58 344 q 96 342 88 344 q 188 451 149 382 q 228 581 228 521 l 233 696 l 311 657 l 311 753 l 389 711 l 383 797 l 476 761 l 483 853 l 574 807 l 585 897 l 678 847 l 701 938 l 781 868 l 822 957 l 890 888 l 958 963 l 1010 881 l 1079 957 l 1115 868 l 1203 929 l 1213 833 l 1310 876 l 1294 781 l 1400 803 l 1371 714 l 1472 718 l 1417 640 l 1508 608 l 1433 556 l 1513 501 l 1431 453 l 1501 393 m 549 343 q 599 378 581 354 q 617 438 617 403 q 585 516 617 486 q 506 546 553 546 q 475 539 490 546 q 449 522 460 532 l 464 496 q 501 513 481 511 q 558 493 538 514 q 579 435 579 472 q 532 372 579 383 l 549 343 m 331 322 q 397 346 372 322 q 421 411 421 369 l 388 411 q 374 372 388 383 q 331 360 360 360 q 288 372 301 360 q 274 411 274 383 l 240 411 q 265 346 240 369 q 331 322 289 322 z "},"̦":{"ha":0,"x_min":-451,"x_max":-274,"o":"m -364 -329 l -451 -329 l -390 -106 l -274 -106 l -364 -329 z "},"ˉ":{"ha":694,"x_min":106,"x_max":589,"o":"m 589 828 l 106 828 l 106 921 l 589 921 l 589 828 z "},"´":{"ha":694,"x_min":289,"x_max":515,"o":"m 515 1042 l 379 810 l 289 810 l 394 1042 l 515 1042 z "},"˘":{"ha":694,"x_min":142,"x_max":553,"o":"m 553 1007 q 496 858 553 915 q 347 801 439 801 q 199 858 256 801 q 142 1007 142 915 l 233 1007 q 266 921 233 957 q 347 885 299 885 q 428 921 396 885 q 461 1007 461 957 l 553 1007 z "},"ˇ":{"ha":694,"x_min":128,"x_max":567,"o":"m 411 810 l 283 810 l 128 1042 l 229 1042 l 347 888 l 465 1042 l 567 1042 l 411 810 z "},"¸":{"ha":694,"x_min":203,"x_max":517,"o":"m 343 40 q 472 -37 426 15 q 517 -150 517 -90 q 473 -255 517 -211 q 356 -299 429 -299 q 203 -250 257 -299 l 244 -174 q 288 -203 263 -192 q 340 -215 313 -215 q 397 -193 374 -215 q 419 -135 419 -171 q 391 -61 419 -90 q 282 4 363 -32 l 343 40 z "},"ˆ":{"ha":694,"x_min":128,"x_max":567,"o":"m 465 800 l 347 954 l 229 800 l 128 800 l 283 1032 l 411 1032 l 567 800 l 465 800 z "},"¨":{"ha":694,"x_min":138,"x_max":565,"o":"m 217 967 q 274 945 253 967 q 296 888 296 924 q 274 831 296 853 q 217 808 253 808 q 160 831 182 808 q 138 888 138 853 q 160 945 138 924 q 217 967 182 967 m 486 967 q 544 945 522 967 q 565 888 565 924 q 544 831 565 853 q 486 808 522 808 q 429 831 451 808 q 407 888 407 853 q 429 945 407 924 q 486 967 451 967 z "},"˙":{"ha":694,"x_min":264,"x_max":431,"o":"m 347 994 q 408 972 385 994 q 431 911 431 949 q 408 851 431 874 q 347 828 385 828 q 287 851 310 828 q 264 911 264 874 q 287 972 264 949 q 347 994 310 994 z "},"`":{"ha":694,"x_min":179,"x_max":406,"o":"m 406 810 l 315 810 l 179 1042 l 300 1042 l 406 810 z "},"˝":{"ha":694,"x_min":114,"x_max":585,"o":"m 204 810 l 114 810 l 219 1042 l 340 1042 l 204 810 m 449 810 l 358 810 l 464 1042 l 585 1042 l 449 810 z "},"¯":{"ha":694,"x_min":106,"x_max":589,"o":"m 589 828 l 106 828 l 106 921 l 589 921 l 589 828 z "},"˛":{"ha":694,"x_min":197,"x_max":475,"o":"m 474 22 q 288 -146 288 -60 q 312 -199 288 -179 q 376 -219 336 -219 q 453 -203 426 -219 l 475 -274 q 425 -292 456 -286 q 363 -299 394 -299 q 242 -260 288 -299 q 197 -161 197 -222 q 248 -39 197 -87 q 410 57 299 10 l 474 22 z "},"˚":{"ha":694,"x_min":172,"x_max":521,"o":"m 347 1128 q 473 1083 425 1128 q 521 964 521 1038 q 473 844 521 890 q 347 799 425 799 q 221 844 269 799 q 172 964 172 890 q 221 1083 172 1038 q 347 1128 269 1128 m 347 1060 q 276 1033 304 1060 q 249 964 249 1006 q 276 895 249 922 q 347 868 304 868 q 418 895 390 868 q 446 964 446 922 q 418 1033 446 1006 q 347 1060 390 1060 z "},"˜":{"ha":694,"x_min":96,"x_max":599,"o":"m 599 996 q 443 810 583 810 q 376 824 403 810 q 319 867 350 839 q 283 895 297 886 q 251 904 269 904 q 207 881 222 904 q 183 808 192 857 l 96 808 q 141 948 103 901 q 253 994 179 994 q 319 979 292 994 q 376 936 346 964 q 412 909 397 918 q 442 900 426 900 q 487 924 471 900 q 511 996 503 949 l 599 996 z "}}}
